<svg xmlns="http://www.w3.org/2000/svg" xmlns:v="https://svgstorm.com"
viewBox = "0 0 881 283"
width="881"
height="283">
<g fill="None" fill-opacity="0.0" stroke="#000000" stroke-opacity="0.00" stroke-width="0.3"><path d="
M 0.00 283.00 
L 881.00 283.00
L 881.00 0.00
L 0.00 0.00
L 0.00 283.00
M 607.00 197.00 
C 604.18 195.82 604.18 191.62 604.00 189.00
C 601.96 189.81 601.03 192.27 599.00 193.00
C 598.50 193.30 597.38 193.66 597.00 194.00
C 594.73 196.03 592.10 198.01 589.00 199.00
C 582.21 201.18 575.08 199.67 569.00 198.00
C 563.06 197.62 560.33 195.32 556.00 192.00
C 552.65 189.43 550.64 187.55 548.00 184.00
C 536.69 168.79 535.00 143.12 546.00 127.00
C 546.43 126.37 546.62 125.62 547.00 125.00
C 551.87 117.00 562.30 110.77 571.00 110.00 C 579.71 109.23 595.70 108.97 601.00 118.00
C 602.02 118.29 602.75 119.38 604.00 119.00
C 604.00 106.33 604.00 93.67 604.00 81.00
C 603.61 79.15 612.62 77.79 617.00 79.00 C 621.38 80.21 625.54 77.55 625.00 87.00 C 624.46 96.45 625.38 109.61 625.00 119.00 C 624.62 128.39 625.20 127.94 625.00 135.00 C 624.80 142.06 625.16 145.12 625.00 151.00 C 624.84 156.88 625.22 161.93 625.00 167.00 C 624.78 172.07 625.42 178.92 625.00 183.00 C 624.58 187.08 626.84 196.21 622.92 196.92 C 618.99 197.62 610.48 198.45 607.00 197.00
M 153.00 85.00 
C 154.47 85.75 155.10 86.79 156.00 88.00
C 158.18 90.93 159.88 94.06 162.00 97.00
C 162.98 98.36 164.13 99.62 165.00 101.00
C 165.34 101.55 165.63 102.54 166.00 103.00
C 169.52 107.40 172.86 112.14 176.00 117.00
C 177.58 119.45 179.32 122.96 181.00 125.00
C 186.89 132.17 193.15 139.53 197.00 148.00
C 197.80 149.00 199.17 149.97 200.00 151.00
C 201.94 153.43 203.32 156.52 205.00 159.00
C 205.93 160.37 207.70 161.93 209.00 163.00
C 209.00 157.67 209.00 152.33 209.00 147.00
C 209.00 137.74 207.65 126.01 209.00 117.00 C 210.35 107.99 205.40 95.11 209.00 87.00
C 208.01 84.63 230.05 79.42 228.99 88.01 C 227.93 96.60 229.70 107.34 229.00 116.00 C 228.30 124.66 229.78 134.62 229.00 143.00 C 228.22 151.38 230.35 163.38 229.00 171.00 C 227.65 178.62 232.73 193.34 227.00 197.00
C 223.73 199.09 213.52 198.38 210.00 197.00
C 206.41 195.59 205.76 191.57 204.00 189.00
C 203.38 188.10 202.59 186.85 202.00 186.00
C 200.40 183.69 197.80 181.36 196.00 179.00
C 195.76 178.68 196.00 178.00 196.00 178.00
C 193.66 176.48 192.43 174.29 191.00 172.00
C 190.64 171.43 190.37 170.50 190.00 170.00
C 188.36 167.81 186.52 165.44 185.00 163.00
C 184.66 162.45 184.36 161.46 184.00 161.00
C 179.90 155.87 175.79 150.53 172.00 145.00
C 170.59 142.95 169.33 141.00 168.00 139.00
C 163.77 132.64 157.15 126.12 154.00 119.00
C 153.22 118.35 153.08 117.37 152.00 117.00
C 152.00 118.33 152.00 119.67 152.00 121.00
C 152.94 146.30 151.29 171.69 152.00 197.00
C 145.56 197.17 140.33 197.97 134.00 197.00
C 128.34 194.04 131.89 184.28 132.00 178.00 C 132.11 171.71 131.73 161.93 132.00 155.00 C 132.27 148.07 131.39 139.08 132.00 132.00 C 132.61 124.92 130.65 115.85 132.00 109.00 C 133.35 102.15 129.00 92.07 132.00 86.00
C 133.99 81.98 149.85 83.41 153.00 85.00
M 407.00 85.00 
C 418.98 87.65 429.29 95.94 430.00 109.00
C 430.25 113.63 430.42 118.74 429.00 123.00
C 428.15 125.56 426.33 127.06 425.00 129.00
C 422.87 132.11 422.06 133.10 419.00 135.00
C 418.24 135.84 417.52 137.03 417.00 138.00
C 425.06 141.11 432.64 148.31 434.00 157.00
C 435.00 161.03 435.37 166.28 435.00 171.00
C 434.51 177.18 432.10 182.12 427.75 186.75 C 423.40 191.38 419.43 193.64 413.33 195.33 C 407.22 197.01 398.96 197.81 392.00 197.00 C 385.04 196.19 375.80 198.43 369.00 197.00 C 362.20 195.57 352.06 200.00 346.00 197.00
C 340.72 194.39 344.99 181.92 344.00 176.00 C 343.01 170.08 344.29 159.77 344.00 153.00 C 343.71 146.23 343.78 137.02 344.00 130.00 C 344.22 122.98 343.12 113.84 344.00 107.00 C 344.88 100.16 341.40 90.80 345.00 85.00
C 345.20 84.68 345.65 84.05 346.00 84.00
C 355.81 82.59 367.13 84.33 377.00 84.00 C 386.87 83.67 398.06 83.02 407.00 85.00
M 294.00 110.00 
C 304.89 111.25 312.66 115.75 320.00 124.00
C 321.44 125.62 322.76 127.09 324.00 129.00
C 341.85 156.38 324.92 193.46 294.00 199.00
C 289.68 199.77 285.23 199.60 281.00 199.00
C 264.38 196.63 248.14 186.98 245.02 168.98 C 241.91 150.97 242.55 131.20 258.00 119.00
C 260.67 116.89 263.11 115.40 266.00 114.00
C 270.27 111.94 273.94 110.58 279.00 110.00
C 284.40 109.38 288.57 109.38 294.00 110.00
M 502.00 112.00 
C 509.62 114.85 515.41 117.45 521.00 124.00
C 522.69 125.98 523.78 128.01 525.00 130.00
C 532.02 141.46 532.84 158.27 529.00 171.00
C 528.86 171.46 529.13 172.54 529.00 173.00
C 524.78 188.39 508.61 195.98 495.00 199.00
C 493.93 199.24 492.62 199.91 491.00 200.00
C 488.15 200.17 484.84 200.33 482.00 200.00
C 476.93 199.40 470.62 197.18 466.00 195.00
C 464.33 194.21 463.30 192.80 462.00 192.00
C 460.40 191.99 461.01 191.69 460.00 191.00
C 455.42 187.84 452.63 183.57 450.00 179.00
C 439.40 160.58 441.96 131.41 460.00 118.00
C 461.64 116.78 463.25 115.97 465.00 115.00
C 469.42 112.54 474.61 110.37 480.00 110.00
C 487.56 109.49 495.60 109.61 502.00 112.00
M 656.00 116.00 
C 663.62 131.75 667.17 149.70 674.00 166.00
C 674.40 166.94 675.26 168.95 676.00 170.00
C 680.10 171.49 678.15 164.26 681.78 158.78 C 685.41 153.29 682.62 149.52 687.78 142.78 C 692.93 136.04 692.10 116.59 700.00 112.00
C 705.04 109.07 713.11 112.12 719.00 111.00
C 719.00 112.67 719.00 114.33 719.00 116.00
C 718.79 122.64 712.83 128.70 711.22 135.22 C 709.62 141.75 705.48 148.67 703.00 155.00
C 702.25 156.90 701.76 159.07 701.00 161.00
C 694.95 176.41 688.50 192.11 682.00 207.00
C 681.03 209.22 680.50 211.13 679.00 213.00
C 678.89 213.47 679.00 214.00 679.00 214.00
C 676.99 219.58 670.29 226.21 664.77 227.77 C 659.25 229.33 644.31 232.67 642.00 226.00
C 640.86 222.72 641.35 214.91 644.00 213.00
C 647.14 210.74 653.99 212.07 658.00 211.00
C 658.27 210.84 660.87 208.20 661.00 208.00
C 661.28 206.85 661.50 206.11 662.00 205.00
C 662.73 203.38 664.52 201.36 665.00 200.00
C 666.23 188.53 658.50 175.84 654.08 164.92 C 649.65 154.01 646.14 140.57 641.00 130.00
C 640.58 129.14 639.50 128.07 639.00 127.00
C 637.35 123.48 635.67 119.83 635.00 116.00
C 633.46 107.19 652.92 109.63 656.00 116.00
M 861.00 258.00 
C 860.53 258.11 860.00 258.00 860.00 258.00
C 858.77 259.76 857.12 261.23 856.00 263.00
C 854.93 264.69 855.30 267.33 853.00 268.00
C 852.07 264.09 849.61 261.01 847.00 258.00
C 845.35 256.96 842.63 257.39 841.00 256.00
C 842.08 253.50 845.29 253.97 847.00 252.00
C 849.85 249.77 851.82 246.39 853.00 243.00
C 856.28 247.68 859.39 253.83 866.00 255.00
C 865.32 257.39 862.61 256.74 861.00 258.00 Z"/>
</g>
<g fill="None" fill-opacity="0.0" stroke="#909399" stroke-opacity="0.31" stroke-width="0.3"><path d="
M 604.00 81.00 
C 604.08 80.81 605.50 81.00 606.00 81.00
C 611.67 81.00 617.33 81.00 623.00 81.00
C 623.00 119.33 623.00 157.67 623.00 196.00
C 617.83 196.65 611.34 194.69 607.00 197.00
C 610.48 198.45 618.99 197.62 622.92 196.92 C 626.84 196.21 624.58 187.08 625.00 183.00 C 625.42 178.92 624.78 172.07 625.00 167.00 C 625.22 161.93 624.84 156.88 625.00 151.00 C 625.16 145.12 624.80 142.06 625.00 135.00 C 625.20 127.94 624.62 128.39 625.00 119.00 C 625.38 109.61 624.46 96.45 625.00 87.00 C 625.54 77.55 621.38 80.21 617.00 79.00 C 612.62 77.79 603.61 79.15 604.00 81.00 Z"/>
</g>
<g fill="None" fill-opacity="0.0" stroke="#8B8F96" stroke-opacity="0.55" stroke-width="0.3"><path d="
M 601.00 118.00 
C 606.47 127.33 607.23 116.00 606.00 108.00 C 604.76 100.00 609.22 88.24 606.00 81.00
C 605.50 81.00 604.08 80.81 604.00 81.00
C 604.00 93.67 604.00 106.33 604.00 119.00
C 602.75 119.38 602.02 118.29 601.00 118.00 Z"/>
</g>
<g fill="None" fill-opacity="0.0" stroke="#959AA3" stroke-opacity="0.93" stroke-width="0.3"><path d="
M 601.00 118.00 
C 595.70 108.97 579.71 109.23 571.00 110.00 C 562.30 110.77 551.87 117.00 547.00 125.00
C 547.73 124.21 549.12 123.54 550.00 123.00
C 550.21 124.62 547.12 128.65 546.00 127.00
C 535.00 143.12 536.69 168.79 548.00 184.00
C 550.17 185.63 554.50 189.87 556.00 192.00
C 560.33 195.32 563.06 197.62 569.00 198.00
C 572.58 198.23 580.24 198.37 584.67 197.67 C 589.10 196.97 589.19 199.00 589.00 199.00
C 592.10 198.01 594.73 196.03 597.00 194.00
C 597.94 192.86 605.19 180.37 606.00 190.00
C 604.14 185.86 600.42 190.76 599.00 193.00
C 601.03 192.27 601.96 189.81 604.00 189.00
C 604.18 191.62 604.18 195.82 607.00 197.00
C 611.34 194.69 617.83 196.65 623.00 196.00
C 623.00 157.67 623.00 119.33 623.00 81.00
C 617.33 81.00 611.67 81.00 606.00 81.00
C 609.22 88.24 604.76 100.00 606.00 108.00 C 607.23 116.00 606.47 127.33 601.00 118.00
M 593.00 130.00 
C 590.75 126.66 595.73 129.18 597.00 130.00
C 596.54 131.86 594.96 130.16 594.00 130.00
C 603.92 140.35 606.51 151.87 602.67 166.67 C 598.84 181.47 583.76 184.32 571.00 180.00
C 569.60 179.53 569.21 179.80 566.75 178.25 C 564.30 176.69 565.77 174.40 566.00 175.00
C 549.76 156.73 565.48 112.66 593.00 130.00 Z"/>
</g>
<g fill="None" fill-opacity="0.0" stroke="#989BA1" stroke-opacity="0.45" stroke-width="0.3"><path d="
M 132.00 86.00 
C 138.27 88.12 147.39 83.63 153.00 85.00
C 149.85 83.41 133.99 81.98 132.00 86.00 Z"/>
</g>
<g fill="None" fill-opacity="0.0" stroke="#90949A" stroke-opacity="0.54" stroke-width="0.3"><path d="
M 209.00 87.00 
C 209.08 86.81 210.58 87.18 211.00 87.00
C 215.55 85.06 221.72 86.37 227.00 86.00
C 227.06 95.37 226.92 104.61 227.00 114.00 C 227.08 123.39 226.86 133.68 227.00 143.00 C 227.14 152.32 226.70 162.97 227.00 172.00 C 227.30 181.03 226.24 191.28 227.00 197.00
C 232.73 193.34 227.65 178.62 229.00 171.00 C 230.35 163.38 228.22 151.38 229.00 143.00 C 229.78 134.62 228.30 124.66 229.00 116.00 C 229.70 107.34 227.93 96.60 228.99 88.01 C 230.05 79.42 208.01 84.63 209.00 87.00 Z"/>
</g>
<g fill="None" fill-opacity="0.0" stroke="#979CA4" stroke-opacity="0.95" stroke-width="0.3"><path d="
M 345.00 85.00 
C 346.61 90.37 345.88 96.90 346.00 103.00 C 346.12 109.11 345.85 115.90 346.00 122.00 C 346.15 128.10 345.73 135.07 346.00 141.00 C 346.27 146.93 345.42 154.51 346.00 160.00 C 346.58 165.49 344.72 174.51 346.00 179.00 C 347.28 183.49 343.23 195.16 346.00 197.00
C 352.06 200.00 362.20 195.57 369.00 197.00 C 375.80 198.43 385.04 196.19 392.00 197.00 C 398.96 197.81 407.22 197.01 413.33 195.33 C 419.43 193.64 423.40 191.38 427.75 186.75 C 432.10 182.12 434.51 177.18 435.00 171.00
C 434.83 169.65 432.89 167.51 433.00 165.00 C 433.11 162.48 434.05 158.64 434.00 157.00
C 432.64 148.31 425.06 141.11 417.00 138.00
C 417.52 137.03 418.24 135.84 419.00 135.00
C 417.39 136.00 413.17 137.44 417.00 139.00
C 415.69 141.04 411.96 138.39 413.00 136.00
C 418.02 136.35 421.64 128.87 425.00 129.00
C 426.33 127.06 428.15 125.56 429.00 123.00
C 428.74 125.23 427.19 121.73 428.31 120.30 C 429.42 118.88 428.98 116.22 428.00 114.00 C 427.03 111.77 430.26 107.67 430.00 109.00
C 429.29 95.94 418.98 87.65 407.00 85.00
C 398.44 84.95 385.03 87.76 376.00 86.00 C 366.97 84.24 352.55 90.09 346.00 84.00
C 345.65 84.05 345.20 84.68 345.00 85.00
M 400.00 102.00 
C 401.95 102.48 406.30 105.51 408.00 107.00
C 406.98 105.73 405.80 104.37 405.00 103.00
C 407.29 102.46 411.80 108.09 408.00 108.00
C 408.05 108.27 408.85 109.84 409.00 110.00
C 412.56 113.91 410.76 117.88 409.00 121.00
C 405.93 126.44 402.93 127.75 397.00 129.00
C 396.93 129.01 397.00 130.00 397.00 130.00
C 398.92 132.58 386.24 132.21 384.00 132.00
C 385.14 130.13 388.13 131.39 390.00 131.00
C 389.98 131.00 390.00 130.00 390.00 130.00
C 382.49 130.41 373.43 131.07 366.00 130.00
C 367.79 131.00 370.48 130.54 372.00 132.00
C 363.43 134.70 361.77 126.46 363.00 120.00 C 364.23 113.54 360.52 104.86 365.00 100.00
C 370.30 97.57 378.14 101.26 384.00 100.00 C 389.86 98.74 397.28 100.69 403.00 101.00
C 402.74 102.39 400.95 101.78 400.00 102.00
M 397.00 148.00 
C 415.72 150.26 421.98 174.43 401.00 179.00
C 402.21 179.34 402.72 180.22 402.00 181.00
C 399.19 184.04 388.47 181.90 384.00 182.00 C 379.53 182.10 368.46 183.57 365.00 181.00
C 357.80 175.65 366.28 166.68 363.00 158.00 C 359.72 149.32 367.54 144.51 376.00 146.00 C 384.46 147.49 391.75 145.61 397.00 148.00
M 411.00 195.00 
C 409.82 195.78 407.16 196.00 405.00 196.00
C 406.26 195.12 409.75 192.78 411.00 195.00 Z"/>
</g>
<g fill="None" fill-opacity="0.0" stroke="#93969B" stroke-opacity="0.45" stroke-width="0.3"><path d="
M 407.00 85.00 
C 398.06 83.02 386.87 83.67 377.00 84.00 C 367.13 84.33 355.81 82.59 346.00 84.00
C 352.55 90.09 366.97 84.24 376.00 86.00 C 385.03 87.76 398.44 84.95 407.00 85.00 Z"/>
</g>
<g fill="None" fill-opacity="0.0" stroke="#989CA5" stroke-opacity="0.96" stroke-width="0.3"><path d="
M 132.00 86.00 
C 129.00 92.07 133.35 102.15 132.00 109.00 C 130.65 115.85 132.61 124.92 132.00 132.00 C 131.39 139.08 132.27 148.07 132.00 155.00 C 131.73 161.93 132.11 171.71 132.00 178.00 C 131.89 184.28 128.34 194.04 134.00 197.00
C 137.49 198.26 146.44 193.97 151.00 196.00
C 148.67 169.17 150.66 141.25 150.00 114.00
C 151.93 113.91 156.39 117.41 154.00 119.00
C 157.15 126.12 163.77 132.64 168.00 139.00
C 168.28 139.24 170.14 139.63 171.75 141.25 C 173.36 142.86 172.22 145.76 172.00 145.00
C 175.79 150.53 179.90 155.87 184.00 161.00
C 184.06 161.04 189.17 162.12 188.00 165.00
C 186.75 164.70 186.29 163.17 185.00 163.00
C 186.52 165.44 188.36 167.81 190.00 170.00
C 190.88 170.76 193.20 170.50 193.00 173.00
C 193.11 173.35 193.68 173.80 194.00 174.00
C 198.51 176.79 201.03 182.77 202.00 186.00
C 202.59 186.85 203.38 188.10 204.00 189.00
C 205.26 189.95 207.87 195.74 210.00 197.00
C 213.52 198.38 223.73 199.09 227.00 197.00
C 226.24 191.28 227.30 181.03 227.00 172.00 C 226.70 162.97 227.14 152.32 227.00 143.00 C 226.86 133.68 227.08 123.39 227.00 114.00 C 226.92 104.61 227.06 95.37 227.00 86.00
C 221.72 86.37 215.55 85.06 211.00 87.00
C 214.24 94.29 209.50 104.92 211.00 113.00 C 212.50 121.08 210.25 130.52 211.00 139.00 C 211.75 147.48 210.43 157.39 211.00 166.00
C 208.78 166.05 207.01 163.71 206.00 162.00
C 205.08 160.66 205.11 159.30 205.00 159.00
C 203.32 156.52 201.94 153.43 200.00 151.00
C 199.25 150.36 197.56 149.23 197.00 148.00
C 193.15 139.53 186.89 132.17 181.00 125.00
C 180.09 124.30 179.97 123.34 177.25 121.75 C 174.52 120.17 175.90 116.59 176.00 117.00
C 172.86 112.14 169.52 107.40 166.00 103.00
C 165.76 102.82 161.07 101.55 161.00 99.00
C 162.82 98.45 163.47 100.75 165.00 101.00
C 164.13 99.62 162.98 98.36 162.00 97.00
C 160.92 96.19 159.29 96.04 157.25 93.75 C 155.20 91.47 155.86 87.59 156.00 88.00
C 155.10 86.79 154.47 85.75 153.00 85.00
C 147.39 83.63 138.27 88.12 132.00 86.00 Z"/>
</g>
<g fill="None" fill-opacity="0.0" stroke="#979BA4" stroke-opacity="0.30" stroke-width="0.3"><path d="
M 346.00 197.00 
C 343.23 195.16 347.28 183.49 346.00 179.00 C 344.72 174.51 346.58 165.49 346.00 160.00 C 345.42 154.51 346.27 146.93 346.00 141.00 C 345.73 135.07 346.15 128.10 346.00 122.00 C 345.85 115.90 346.12 109.11 346.00 103.00 C 345.88 96.90 346.61 90.37 345.00 85.00
C 341.40 90.80 344.88 100.16 344.00 107.00 C 343.12 113.84 344.22 122.98 344.00 130.00 C 343.78 137.02 343.71 146.23 344.00 153.00 C 344.29 159.77 343.01 170.08 344.00 176.00 C 344.99 181.92 340.72 194.39 346.00 197.00 Z"/>
</g>
<g fill="None" fill-opacity="0.0" stroke="#80838B" stroke-opacity="0.45" stroke-width="0.3"><path d="
M 209.00 147.00 
C 209.51 152.26 210.70 159.03 210.00 165.00
C 208.34 164.46 207.67 162.44 206.00 162.00
C 207.01 163.71 208.78 166.05 211.00 166.00
C 210.43 157.39 211.75 147.48 211.00 139.00 C 210.25 130.52 212.50 121.08 211.00 113.00 C 209.50 104.92 214.24 94.29 211.00 87.00
C 210.58 87.18 209.08 86.81 209.00 87.00
C 205.40 95.11 210.35 107.99 209.00 117.00 C 207.65 126.01 209.00 137.74 209.00 147.00 Z"/>
</g>
<g fill="None" fill-opacity="0.0" stroke="#979A9F" stroke-opacity="0.38" stroke-width="0.3"><path d="
M 162.00 97.00 
C 159.88 94.06 158.18 90.93 156.00 88.00
C 155.86 87.59 155.20 91.47 157.25 93.75 C 159.29 96.04 160.92 96.19 162.00 97.00 Z"/>
</g>
<g fill="None" fill-opacity="0.0" stroke="#8E9498" stroke-opacity="0.44" stroke-width="0.3"><path d="
M 166.00 103.00 
C 165.63 102.54 165.34 101.55 165.00 101.00
C 163.47 100.75 162.82 98.45 161.00 99.00
C 161.07 101.55 165.76 102.82 166.00 103.00 Z"/>
</g>
<g fill="None" fill-opacity="0.0" stroke="#92979C" stroke-opacity="0.68" stroke-width="0.3"><path d="
M 366.00 130.00 
C 365.67 129.82 365.22 129.30 365.00 129.00
C 362.06 125.01 362.87 107.29 364.00 102.00
C 364.02 101.89 365.03 99.99 365.00 100.00
C 360.52 104.86 364.23 113.54 363.00 120.00 C 361.77 126.46 363.43 134.70 372.00 132.00
C 370.48 130.54 367.79 131.00 366.00 130.00 Z"/>
</g>
<g fill="None" fill-opacity="0.0" stroke="#93969A" stroke-opacity="0.37" stroke-width="0.3"><path d="
M 364.00 102.00 
C 363.18 100.33 368.70 102.05 368.00 102.00
C 378.04 102.67 390.02 103.26 400.00 102.00
C 400.95 101.78 402.74 102.39 403.00 101.00
C 397.28 100.69 389.86 98.74 384.00 100.00 C 378.14 101.26 370.30 97.57 365.00 100.00
C 365.03 99.99 364.02 101.89 364.00 102.00 Z"/>
</g>
<g fill="None" fill-opacity="0.0" stroke="#979A9F" stroke-opacity="0.13" stroke-width="0.3"><path d="
M 364.00 102.00 
C 362.87 107.29 362.06 125.01 365.00 129.00
C 363.73 120.18 365.95 110.86 365.00 102.00
C 366.00 102.00 367.00 102.00 368.00 102.00
C 368.70 102.05 363.18 100.33 364.00 102.00 Z"/>
</g>
<g fill="None" fill-opacity="0.0" stroke="#000000" stroke-opacity="0.00" stroke-width="0.3"><path d="
M 365.00 129.00 
C 365.22 129.30 365.67 129.82 366.00 130.00
C 373.43 131.07 382.49 130.41 390.00 130.00
C 392.64 129.86 394.52 129.52 397.00 129.00
C 402.93 127.75 405.93 126.44 409.00 121.00
C 409.62 118.27 409.58 112.74 409.00 110.00
C 408.85 109.84 408.05 108.27 408.00 108.00
C 407.91 107.52 408.00 107.00 408.00 107.00
C 406.30 105.51 401.95 102.48 400.00 102.00
C 390.02 103.26 378.04 102.67 368.00 102.00
C 367.00 102.00 366.00 102.00 365.00 102.00
C 365.95 110.86 363.73 120.18 365.00 129.00 Z"/>
</g>
<g fill="None" fill-opacity="0.0" stroke="#8F939B" stroke-opacity="0.62" stroke-width="0.3"><path d="
M 408.00 107.00 
C 408.00 107.00 407.91 107.52 408.00 108.00
C 411.80 108.09 407.29 102.46 405.00 103.00
C 405.80 104.37 406.98 105.73 408.00 107.00 Z"/>
</g>
<g fill="None" fill-opacity="0.0" stroke="#8D9195" stroke-opacity="0.48" stroke-width="0.3"><path d="
M 429.00 123.00 
C 430.42 118.74 430.25 113.63 430.00 109.00
C 430.26 107.67 427.03 111.77 428.00 114.00 C 428.98 116.22 429.42 118.88 428.31 120.30 C 427.19 121.73 428.74 125.23 429.00 123.00 Z"/>
</g>
<g fill="None" fill-opacity="0.0" stroke="#96999D" stroke-opacity="0.56" stroke-width="0.3"><path d="
M 279.00 110.00 
C 277.95 109.80 279.47 112.40 282.00 112.00 C 284.54 111.60 287.45 111.06 290.00 112.00 C 292.55 112.94 295.06 109.80 294.00 110.00
C 288.57 109.38 284.40 109.38 279.00 110.00 Z"/>
</g>
<g fill="None" fill-opacity="0.0" stroke="#9599A1" stroke-opacity="0.89" stroke-width="0.3"><path d="
M 266.00 114.00 
C 266.03 113.98 263.96 115.79 262.75 117.75 C 261.54 119.72 256.86 119.44 258.00 119.00
C 242.55 131.20 241.91 150.97 245.02 168.98 C 248.14 186.98 264.38 196.63 281.00 199.00
C 284.73 198.78 290.38 198.90 294.00 199.00
C 324.92 193.46 341.85 156.38 324.00 129.00
C 322.88 127.97 320.84 125.50 320.00 124.00
C 312.66 115.75 304.89 111.25 294.00 110.00
C 295.06 109.80 292.55 112.94 290.00 112.00 C 287.45 111.06 284.54 111.60 282.00 112.00 C 279.47 112.40 277.95 109.80 279.00 110.00
C 273.94 110.58 270.27 111.94 266.00 114.00
M 308.00 168.00 
C 307.52 170.27 302.93 179.78 304.00 175.00
C 297.86 183.02 284.51 184.50 276.00 180.00
C 277.92 182.62 268.94 176.49 268.00 174.00
C 262.24 158.73 258.12 130.99 282.07 127.07 C 306.03 123.15 311.98 149.10 308.00 168.00 Z"/>
</g>
<g fill="None" fill-opacity="0.0" stroke="#82868C" stroke-opacity="0.27" stroke-width="0.3"><path d="
M 409.00 121.00 
C 410.76 117.88 412.56 113.91 409.00 110.00
C 409.58 112.74 409.62 118.27 409.00 121.00 Z"/>
</g>
<g fill="None" fill-opacity="0.0" stroke="#9599A1" stroke-opacity="0.90" stroke-width="0.3"><path d="
M 465.00 115.00 
C 465.03 114.97 464.34 116.63 462.92 117.92 C 461.49 119.21 459.04 118.37 460.00 118.00
C 441.96 131.41 439.40 160.58 450.00 179.00
C 450.23 179.25 451.00 179.00 451.00 179.00
C 453.60 180.78 459.38 186.85 460.00 190.00
C 460.09 190.48 460.00 191.00 460.00 191.00
C 461.01 191.69 460.40 191.99 462.00 192.00
C 465.62 192.01 464.51 193.78 466.00 195.00
C 470.62 197.18 476.93 199.40 482.00 200.00
C 481.66 200.04 483.97 199.01 484.00 199.00
C 487.78 197.46 491.52 198.85 495.00 199.00
C 508.61 195.98 524.78 188.39 529.00 173.00
C 525.46 176.41 528.12 165.80 529.00 171.00
C 532.84 158.27 532.02 141.46 525.00 130.00
C 523.42 128.29 517.14 123.79 515.00 120.00
C 517.75 119.73 518.68 123.29 521.00 124.00
C 515.41 117.45 509.62 114.85 502.00 112.00
C 499.60 111.69 494.63 111.17 491.00 112.00 C 487.37 112.83 481.57 110.23 480.00 110.00
C 474.61 110.37 469.42 112.54 465.00 115.00
M 477.00 129.00 
C 492.22 121.96 506.85 133.50 509.98 147.02 C 513.10 160.55 508.20 181.98 492.00 182.00
C 492.00 182.00 492.00 183.00 492.00 183.00
C 490.65 184.40 482.88 184.67 484.00 183.00
C 484.23 182.65 484.00 182.00 484.00 182.00
C 461.18 180.76 463.33 151.93 468.00 137.00
C 468.83 134.35 469.26 134.12 471.75 130.75 C 474.25 127.38 477.96 128.99 477.00 129.00 Z"/>
</g>
<g fill="None" fill-opacity="0.0" stroke="#919699" stroke-opacity="0.54" stroke-width="0.3"><path d="
M 502.00 112.00 
C 495.60 109.61 487.56 109.49 480.00 110.00
C 481.57 110.23 487.37 112.83 491.00 112.00 C 494.63 111.17 499.60 111.69 502.00 112.00 Z"/>
</g>
<g fill="None" fill-opacity="0.0" stroke="#84868D" stroke-opacity="0.41" stroke-width="0.3"><path d="
M 635.00 116.00 
C 636.42 110.48 643.28 114.64 647.00 113.00 C 650.72 111.36 657.10 117.30 656.00 116.00
C 652.92 109.63 633.46 107.19 635.00 116.00 Z"/>
</g>
<g fill="None" fill-opacity="0.0" stroke="#83878B" stroke-opacity="0.49" stroke-width="0.3"><path d="
M 700.00 112.00 
C 704.14 110.74 712.19 115.03 717.00 113.00
C 716.72 114.49 717.02 116.38 719.00 116.00
C 719.00 114.33 719.00 112.67 719.00 111.00
C 713.11 112.12 705.04 109.07 700.00 112.00 Z"/>
</g>
<g fill="None" fill-opacity="0.0" stroke="#9498A0" stroke-opacity="0.89" stroke-width="0.3"><path d="
M 676.00 170.00 
C 673.11 168.95 674.52 168.98 674.00 166.00
C 667.17 149.70 663.62 131.75 656.00 116.00
C 657.10 117.30 650.72 111.36 647.00 113.00 C 643.28 114.64 636.42 110.48 635.00 116.00
C 635.67 119.83 637.35 123.48 639.00 127.00
C 639.86 128.13 640.46 127.32 641.00 130.00
C 646.14 140.57 649.65 154.01 654.08 164.92 C 658.50 175.84 666.23 188.53 665.00 200.00
C 664.60 203.70 663.78 203.25 662.00 205.00
C 661.50 206.11 661.28 206.85 661.00 208.00
C 660.53 209.97 659.81 210.51 658.00 211.00
C 653.99 212.07 647.14 210.74 644.00 213.00
C 645.46 214.44 643.15 228.31 642.00 226.00
C 644.31 232.67 659.25 229.33 664.77 227.77 C 670.29 226.21 676.99 219.58 679.00 214.00
C 675.26 216.51 679.82 208.09 681.00 207.00
C 681.28 206.74 681.84 205.64 682.00 207.00
C 688.50 192.11 694.95 176.41 701.00 161.00
C 698.04 164.58 702.62 155.71 703.00 155.00
C 705.48 148.67 709.62 141.75 711.22 135.22 C 712.83 128.70 718.79 122.64 719.00 116.00
C 717.02 116.38 716.72 114.49 717.00 113.00
C 712.19 115.03 704.14 110.74 700.00 112.00
C 692.10 116.59 692.93 136.04 687.78 142.78 C 682.62 149.52 685.41 153.29 681.78 158.78 C 678.15 164.26 680.10 171.49 676.00 170.00
M 675.00 172.00 
C 682.09 172.42 674.72 177.97 675.00 172.00 Z"/>
</g>
<g fill="None" fill-opacity="0.0" stroke="#83898F" stroke-opacity="0.46" stroke-width="0.3"><path d="
M 134.00 197.00 
C 140.33 197.97 145.56 197.17 152.00 197.00
C 151.29 171.69 152.94 146.30 152.00 121.00
C 151.97 120.11 150.00 117.61 151.00 116.00
C 152.69 115.68 154.29 117.32 154.00 119.00
C 156.39 117.41 151.93 113.91 150.00 114.00
C 150.66 141.25 148.67 169.17 151.00 196.00
C 146.44 193.97 137.49 198.26 134.00 197.00 Z"/>
</g>
<g fill="None" fill-opacity="0.0" stroke="#8C8E94" stroke-opacity="0.36" stroke-width="0.3"><path d="
M 258.00 119.00 
C 256.86 119.44 261.54 119.72 262.75 117.75 C 263.96 115.79 266.03 113.98 266.00 114.00
C 263.11 115.40 260.67 116.89 258.00 119.00 Z"/>
</g>
<g fill="None" fill-opacity="0.0" stroke="#8A8C90" stroke-opacity="0.38" stroke-width="0.3"><path d="
M 460.00 118.00 
C 459.04 118.37 461.49 119.21 462.92 117.92 C 464.34 116.63 465.03 114.97 465.00 115.00
C 463.25 115.97 461.64 116.78 460.00 118.00 Z"/>
</g>
<g fill="None" fill-opacity="0.0" stroke="#8D8E98" stroke-opacity="0.09" stroke-width="0.3"><path d="
M 152.00 121.00 
C 152.00 119.67 152.00 118.33 152.00 117.00
C 153.08 117.37 153.22 118.35 154.00 119.00
C 154.29 117.32 152.69 115.68 151.00 116.00
C 150.00 117.61 151.97 120.11 152.00 121.00 Z"/>
</g>
<g fill="None" fill-opacity="0.0" stroke="#8D8F94" stroke-opacity="0.38" stroke-width="0.3"><path d="
M 181.00 125.00 
C 179.32 122.96 177.58 119.45 176.00 117.00
C 175.90 116.59 174.52 120.17 177.25 121.75 C 179.97 123.34 180.09 124.30 181.00 125.00 Z"/>
</g>
<g fill="None" fill-opacity="0.0" stroke="#888C90" stroke-opacity="0.42" stroke-width="0.3"><path d="
M 525.00 130.00 
C 523.78 128.01 522.69 125.98 521.00 124.00
C 518.68 123.29 517.75 119.73 515.00 120.00
C 517.14 123.79 523.42 128.29 525.00 130.00 Z"/>
</g>
<g fill="None" fill-opacity="0.0" stroke="#8D9196" stroke-opacity="0.41" stroke-width="0.3"><path d="
M 547.00 125.00 
C 546.62 125.62 546.43 126.37 546.00 127.00
C 547.12 128.65 550.21 124.62 550.00 123.00
C 549.12 123.54 547.73 124.21 547.00 125.00 Z"/>
</g>
<g fill="None" fill-opacity="0.0" stroke="#8C8F92" stroke-opacity="0.31" stroke-width="0.3"><path d="
M 324.00 129.00 
C 322.76 127.09 321.44 125.62 320.00 124.00
C 320.84 125.50 322.88 127.97 324.00 129.00 Z"/>
</g>
<g fill="None" fill-opacity="0.0" stroke="#898D98" stroke-opacity="0.38" stroke-width="0.3"><path d="
M 639.00 127.00 
C 639.50 128.07 640.58 129.14 641.00 130.00
C 640.46 127.32 639.86 128.13 639.00 127.00 Z"/>
</g>
<g fill="None" fill-opacity="0.0" stroke="#000000" stroke-opacity="0.00" stroke-width="0.3"><path d="
M 268.00 174.00 
C 269.53 176.27 273.67 178.77 276.00 180.00
C 284.51 184.50 297.86 183.02 304.00 175.00
C 305.03 173.66 307.44 169.50 308.00 168.00
C 311.98 149.10 306.03 123.15 282.07 127.07 C 258.12 130.99 262.24 158.73 268.00 174.00 Z"/>
</g>
<g fill="None" fill-opacity="0.0" stroke="#94979C" stroke-opacity="0.36" stroke-width="0.3"><path d="
M 468.00 137.00 
C 469.68 134.31 474.01 130.38 477.00 129.00
C 477.96 128.99 474.25 127.38 471.75 130.75 C 469.26 134.12 468.83 134.35 468.00 137.00 Z"/>
</g>
<g fill="None" fill-opacity="0.0" stroke="#000000" stroke-opacity="0.00" stroke-width="0.3"><path d="
M 477.00 129.00 
C 474.01 130.38 469.68 134.31 468.00 137.00
C 463.33 151.93 461.18 180.76 484.00 182.00
C 486.65 182.14 489.36 181.76 492.00 182.00
C 508.20 181.98 513.10 160.55 509.98 147.02 C 506.85 133.50 492.22 121.96 477.00 129.00 Z"/>
</g>
<g fill="None" fill-opacity="0.0" stroke="#000000" stroke-opacity="0.00" stroke-width="0.3"><path d="
M 566.00 175.00 
C 567.24 176.40 569.47 178.99 571.00 180.00
C 583.76 184.32 598.84 181.47 602.67 166.67 C 606.51 151.87 603.92 140.35 594.00 130.00
C 593.58 129.82 593.00 130.00 593.00 130.00
C 565.48 112.66 549.76 156.73 566.00 175.00 Z"/>
</g>
<g fill="None" fill-opacity="0.0" stroke="#8F9399" stroke-opacity="0.48" stroke-width="0.3"><path d="
M 419.00 135.00 
C 422.06 133.10 422.87 132.11 425.00 129.00
C 421.64 128.87 418.02 136.35 413.00 136.00
C 411.96 138.39 415.69 141.04 417.00 139.00
C 413.17 137.44 417.39 136.00 419.00 135.00 Z"/>
</g>
<g fill="None" fill-opacity="0.0" stroke="#8C8F96" stroke-opacity="0.52" stroke-width="0.3"><path d="
M 593.00 130.00 
C 593.00 130.00 593.58 129.82 594.00 130.00
C 594.96 130.16 596.54 131.86 597.00 130.00
C 595.73 129.18 590.75 126.66 593.00 130.00 Z"/>
</g>
<g fill="None" fill-opacity="0.0" stroke="#838389" stroke-opacity="0.26" stroke-width="0.3"><path d="
M 390.00 130.00 
C 390.00 130.00 389.98 131.00 390.00 131.00
C 392.34 130.81 395.04 131.58 397.00 130.00
C 397.00 130.00 396.93 129.01 397.00 129.00
C 394.52 129.52 392.64 129.86 390.00 130.00 Z"/>
</g>
<g fill="None" fill-opacity="0.0" stroke="#787A7F" stroke-opacity="0.84" stroke-width="0.3"><path d="
M 390.00 131.00 
C 388.13 131.39 385.14 130.13 384.00 132.00
C 386.24 132.21 398.92 132.58 397.00 130.00
C 395.04 131.58 392.34 130.81 390.00 131.00 Z"/>
</g>
<g fill="None" fill-opacity="0.0" stroke="#92949C" stroke-opacity="0.34" stroke-width="0.3"><path d="
M 168.00 139.00 
C 169.33 141.00 170.59 142.95 172.00 145.00
C 172.22 145.76 173.36 142.86 171.75 141.25 C 170.14 139.63 168.28 139.24 168.00 139.00 Z"/>
</g>
<g fill="None" fill-opacity="0.0" stroke="#8F9397" stroke-opacity="0.42" stroke-width="0.3"><path d="
M 365.00 181.00 
C 368.75 182.92 378.60 181.17 383.00 181.00 C 387.40 180.83 398.15 183.06 402.00 181.00
C 402.72 180.22 402.21 179.34 401.00 179.00
C 389.18 181.58 377.02 178.80 365.00 179.00
C 365.00 168.67 365.00 158.33 365.00 148.00
C 375.67 148.00 386.33 148.00 397.00 148.00
C 391.75 145.61 384.46 147.49 376.00 146.00 C 367.54 144.51 359.72 149.32 363.00 158.00 C 366.28 166.68 357.80 175.65 365.00 181.00 Z"/>
</g>
<g fill="None" fill-opacity="0.0" stroke="#898E95" stroke-opacity="0.14" stroke-width="0.3"><path d="
M 205.00 159.00 
C 205.11 159.30 205.08 160.66 206.00 162.00
C 207.67 162.44 208.34 164.46 210.00 165.00
C 210.70 159.03 209.51 152.26 209.00 147.00
C 209.00 152.33 209.00 157.67 209.00 163.00
C 207.70 161.93 205.93 160.37 205.00 159.00 Z"/>
</g>
<g fill="None" fill-opacity="0.0" stroke="#8F9195" stroke-opacity="0.28" stroke-width="0.3"><path d="
M 200.00 151.00 
C 199.17 149.97 197.80 149.00 197.00 148.00
C 197.56 149.23 199.25 150.36 200.00 151.00 Z"/>
</g>
<g fill="None" fill-opacity="0.0" stroke="#000000" stroke-opacity="0.00" stroke-width="0.3"><path d="
M 401.00 179.00 
C 421.98 174.43 415.72 150.26 397.00 148.00
C 386.33 148.00 375.67 148.00 365.00 148.00
C 365.00 158.33 365.00 168.67 365.00 179.00
C 377.02 178.80 389.18 181.58 401.00 179.00 Z"/>
</g>
<g fill="None" fill-opacity="0.0" stroke="#869092" stroke-opacity="0.18" stroke-width="0.3"><path d="
M 701.00 161.00 
C 701.76 159.07 702.25 156.90 703.00 155.00
C 702.62 155.71 698.04 164.58 701.00 161.00 Z"/>
</g>
<g fill="None" fill-opacity="0.0" stroke="#8F929A" stroke-opacity="0.40" stroke-width="0.3"><path d="
M 435.00 171.00 
C 435.37 166.28 435.00 161.03 434.00 157.00
C 434.05 158.64 433.11 162.48 433.00 165.00 C 432.89 167.51 434.83 169.65 435.00 171.00 Z"/>
</g>
<g fill="None" fill-opacity="0.0" stroke="#85898E" stroke-opacity="0.48" stroke-width="0.3"><path d="
M 184.00 161.00 
C 184.36 161.46 184.66 162.45 185.00 163.00
C 186.29 163.17 186.75 164.70 188.00 165.00
C 189.17 162.12 184.06 161.04 184.00 161.00 Z"/>
</g>
<g fill="None" fill-opacity="0.0" stroke="#86888D" stroke-opacity="0.35" stroke-width="0.3"><path d="
M 676.00 170.00 
C 675.26 168.95 674.40 166.94 674.00 166.00
C 674.52 168.98 673.11 168.95 676.00 170.00 Z"/>
</g>
<g fill="None" fill-opacity="0.0" stroke="#898B94" stroke-opacity="0.35" stroke-width="0.3"><path d="
M 304.00 175.00 
C 302.93 179.78 307.52 170.27 308.00 168.00
C 307.44 169.50 305.03 173.66 304.00 175.00 Z"/>
</g>
<g fill="None" fill-opacity="0.0" stroke="#909298" stroke-opacity="0.44" stroke-width="0.3"><path d="
M 190.00 170.00 
C 190.37 170.50 190.64 171.43 191.00 172.00
C 191.18 172.18 192.98 172.93 193.00 173.00
C 193.20 170.50 190.88 170.76 190.00 170.00 Z"/>
</g>
<g fill="None" fill-opacity="0.0" stroke="#85878D" stroke-opacity="0.42" stroke-width="0.3"><path d="
M 529.00 173.00 
C 529.13 172.54 528.86 171.46 529.00 171.00
C 528.12 165.80 525.46 176.41 529.00 173.00 Z"/>
</g>
<g fill="None" fill-opacity="0.0" stroke="#94959F" stroke-opacity="0.14" stroke-width="0.3"><path d="
M 196.00 178.00 
C 195.88 176.66 194.98 174.93 194.00 174.00
C 193.68 173.80 193.11 173.35 193.00 173.00
C 192.98 172.93 191.18 172.18 191.00 172.00
C 192.43 174.29 193.66 176.48 196.00 178.00 Z"/>
</g>
<g fill="None" fill-opacity="0.0" stroke="#878C90" stroke-opacity="0.59" stroke-width="0.3"><path d="
M 675.00 172.00 
C 674.72 177.97 682.09 172.42 675.00 172.00 Z"/>
</g>
<g fill="None" fill-opacity="0.0" stroke="#8F939A" stroke-opacity="0.62" stroke-width="0.3"><path d="
M 196.00 178.00 
C 196.00 178.00 195.76 178.68 196.00 179.00
C 198.67 180.87 200.44 183.24 202.00 186.00
C 201.03 182.77 198.51 176.79 194.00 174.00
C 194.98 174.93 195.88 176.66 196.00 178.00 Z"/>
</g>
<g fill="None" fill-opacity="0.0" stroke="#8A8D91" stroke-opacity="0.35" stroke-width="0.3"><path d="
M 276.00 180.00 
C 273.67 178.77 269.53 176.27 268.00 174.00
C 268.94 176.49 277.92 182.62 276.00 180.00 Z"/>
</g>
<g fill="None" fill-opacity="0.0" stroke="#8B8E92" stroke-opacity="0.38" stroke-width="0.3"><path d="
M 571.00 180.00 
C 569.47 178.99 567.24 176.40 566.00 175.00
C 565.77 174.40 564.30 176.69 566.75 178.25 C 569.21 179.80 569.60 179.53 571.00 180.00 Z"/>
</g>
<g fill="None" fill-opacity="0.0" stroke="#8C909B" stroke-opacity="0.09" stroke-width="0.3"><path d="
M 202.00 186.00 
C 200.44 183.24 198.67 180.87 196.00 179.00
C 197.80 181.36 200.40 183.69 202.00 186.00 Z"/>
</g>
<g fill="None" fill-opacity="0.0" stroke="#8D9296" stroke-opacity="0.10" stroke-width="0.3"><path d="
M 460.00 191.00 
C 460.00 191.00 460.09 190.48 460.00 190.00
C 456.04 187.23 453.19 183.11 451.00 179.00
C 451.00 179.00 450.23 179.25 450.00 179.00
C 452.63 183.57 455.42 187.84 460.00 191.00 Z"/>
</g>
<g fill="None" fill-opacity="0.0" stroke="#8E9399" stroke-opacity="0.60" stroke-width="0.3"><path d="
M 460.00 190.00 
C 459.38 186.85 453.60 180.78 451.00 179.00
C 453.19 183.11 456.04 187.23 460.00 190.00 Z"/>
</g>
<g fill="None" fill-opacity="0.0" stroke="#777A7F" stroke-opacity="0.94" stroke-width="0.3"><path d="
M 402.00 181.00 
C 398.15 183.06 387.40 180.83 383.00 181.00 C 378.60 181.17 368.75 182.92 365.00 181.00
C 368.46 183.57 379.53 182.10 384.00 182.00 C 388.47 181.90 399.19 184.04 402.00 181.00 Z"/>
</g>
<g fill="None" fill-opacity="0.0" stroke="#8E8E91" stroke-opacity="0.03" stroke-width="0.3"><path d="
M 484.00 183.00 
C 486.52 183.23 489.48 183.23 492.00 183.00
C 492.00 183.00 492.00 182.00 492.00 182.00
C 489.36 181.76 486.65 182.14 484.00 182.00
C 484.00 182.00 484.23 182.65 484.00 183.00 Z"/>
</g>
<g fill="None" fill-opacity="0.0" stroke="#8D8D93" stroke-opacity="0.47" stroke-width="0.3"><path d="
M 492.00 183.00 
C 489.48 183.23 486.52 183.23 484.00 183.00
C 482.88 184.67 490.65 184.40 492.00 183.00 Z"/>
</g>
<g fill="None" fill-opacity="0.0" stroke="#92969F" stroke-opacity="0.34" stroke-width="0.3"><path d="
M 548.00 184.00 
C 550.64 187.55 552.65 189.43 556.00 192.00
C 554.50 189.87 550.17 185.63 548.00 184.00 Z"/>
</g>
<g fill="None" fill-opacity="0.0" stroke="#888C92" stroke-opacity="0.53" stroke-width="0.3"><path d="
M 597.00 194.00 
C 597.38 193.66 598.50 193.30 599.00 193.00
C 600.42 190.76 604.14 185.86 606.00 190.00
C 605.19 180.37 597.94 192.86 597.00 194.00 Z"/>
</g>
<g fill="None" fill-opacity="0.0" stroke="#95999E" stroke-opacity="0.27" stroke-width="0.3"><path d="
M 204.00 189.00 
C 205.76 191.57 206.41 195.59 210.00 197.00
C 207.87 195.74 205.26 189.95 204.00 189.00 Z"/>
</g>
<g fill="None" fill-opacity="0.0" stroke="#919398" stroke-opacity="0.35" stroke-width="0.3"><path d="
M 462.00 192.00 
C 463.30 192.80 464.33 194.21 466.00 195.00
C 464.51 193.78 465.62 192.01 462.00 192.00 Z"/>
</g>
<g fill="None" fill-opacity="0.0" stroke="#83868B" stroke-opacity="0.76" stroke-width="0.3"><path d="
M 411.00 195.00 
C 409.75 192.78 406.26 195.12 405.00 196.00
C 407.16 196.00 409.82 195.78 411.00 195.00 Z"/>
</g>
<g fill="None" fill-opacity="0.0" stroke="#8F9399" stroke-opacity="0.34" stroke-width="0.3"><path d="
M 569.00 198.00 
C 575.08 199.67 582.21 201.18 589.00 199.00
C 589.19 199.00 589.10 196.97 584.67 197.67 C 580.24 198.37 572.58 198.23 569.00 198.00 Z"/>
</g>
<g fill="None" fill-opacity="0.0" stroke="#929599" stroke-opacity="0.57" stroke-width="0.3"><path d="
M 281.00 199.00 
C 285.33 199.00 289.67 199.00 294.00 199.00
C 290.38 198.90 284.73 198.78 281.00 199.00 Z"/>
</g>
<g fill="None" fill-opacity="0.0" stroke="#95979C" stroke-opacity="0.45" stroke-width="0.3"><path d="
M 484.00 199.00 
C 486.53 198.62 489.31 199.92 491.00 200.00
C 492.62 199.91 493.93 199.24 495.00 199.00
C 491.52 198.85 487.78 197.46 484.00 199.00 Z"/>
</g>
<g fill="None" fill-opacity="0.0" stroke="#8B9198" stroke-opacity="0.05" stroke-width="0.3"><path d="
M 294.00 199.00 
C 289.67 199.00 285.33 199.00 281.00 199.00
C 285.23 199.60 289.68 199.77 294.00 199.00 Z"/>
</g>
<g fill="None" fill-opacity="0.0" stroke="#96969A" stroke-opacity="0.05" stroke-width="0.3"><path d="
M 482.00 200.00 
C 484.84 200.33 488.15 200.17 491.00 200.00
C 489.31 199.92 486.53 198.62 484.00 199.00
C 483.97 199.01 481.66 200.04 482.00 200.00 Z"/>
</g>
<g fill="None" fill-opacity="0.0" stroke="#8B8E95" stroke-opacity="0.33" stroke-width="0.3"><path d="
M 662.00 205.00 
C 663.78 203.25 664.60 203.70 665.00 200.00
C 664.52 201.36 662.73 203.38 662.00 205.00 Z"/>
</g>
<g fill="None" fill-opacity="0.0" stroke="#85878D" stroke-opacity="0.16" stroke-width="0.3"><path d="
M 681.00 207.00 
C 680.10 208.50 679.41 211.24 679.00 213.00
C 680.50 211.13 681.03 209.22 682.00 207.00
C 681.84 205.64 681.28 206.74 681.00 207.00 Z"/>
</g>
<g fill="None" fill-opacity="0.0" stroke="#898B91" stroke-opacity="0.53" stroke-width="0.3"><path d="
M 679.00 214.00 
C 679.00 214.00 678.89 213.47 679.00 213.00
C 679.41 211.24 680.10 208.50 681.00 207.00
C 679.82 208.09 675.26 216.51 679.00 214.00 Z"/>
</g>
<g fill="None" fill-opacity="0.0" stroke="#8F9496" stroke-opacity="0.24" stroke-width="0.3"><path d="
M 658.00 211.00 
C 659.81 210.51 660.53 209.97 661.00 208.00
C 660.87 208.20 658.27 210.84 658.00 211.00 Z"/>
</g>
<g fill="None" fill-opacity="0.0" stroke="#85898E" stroke-opacity="0.35" stroke-width="0.3"><path d="
M 642.00 226.00 
C 643.15 228.31 645.46 214.44 644.00 213.00
C 641.35 214.91 640.86 222.72 642.00 226.00 Z"/>
</g>
<g fill="None" fill-opacity="0.0" stroke="#AAAAAE" stroke-opacity="0.37" stroke-width="0.3"><path d="
M 847.00 252.00 
C 848.46 251.28 852.14 249.28 853.00 246.00
C 856.53 248.80 858.54 253.24 863.00 255.00
C 862.70 256.25 861.17 256.71 861.00 258.00
C 862.61 256.74 865.32 257.39 866.00 255.00
C 859.39 253.83 856.28 247.68 853.00 243.00
C 851.82 246.39 849.85 249.77 847.00 252.00 Z"/>
</g>
<g fill="None" fill-opacity="0.0" stroke="#A2A3A5" stroke-opacity="0.69" stroke-width="0.3"><path d="
M 847.00 252.00 
C 845.29 253.97 842.08 253.50 841.00 256.00
C 842.63 257.39 845.35 256.96 847.00 258.00
C 844.68 253.05 852.65 251.73 853.00 247.00
C 855.94 249.48 857.85 253.88 862.00 255.00
C 861.70 256.25 860.17 256.71 860.00 258.00
C 860.00 258.00 860.53 258.11 861.00 258.00
C 861.17 256.71 862.70 256.25 863.00 255.00
C 858.54 253.24 856.53 248.80 853.00 246.00
C 852.14 249.28 848.46 251.28 847.00 252.00 Z"/>
</g>
<g fill="None" fill-opacity="0.0" stroke="#8D8D90" stroke-opacity="0.97" stroke-width="0.3"><path d="
M 847.00 258.00 
C 848.27 260.71 853.44 264.17 856.00 263.00
C 857.12 261.23 858.77 259.76 860.00 258.00
C 860.17 256.71 861.70 256.25 862.00 255.00
C 857.85 253.88 855.94 249.48 853.00 247.00
C 852.65 251.73 844.68 253.05 847.00 258.00 Z"/>
</g>
<g fill="None" fill-opacity="0.0" stroke="#A6A6A9" stroke-opacity="0.49" stroke-width="0.3"><path d="
M 856.00 263.00 
C 853.44 264.17 848.27 260.71 847.00 258.00
C 849.61 261.01 852.07 264.09 853.00 268.00
C 855.30 267.33 854.93 264.69 856.00 263.00 Z"/>
</g>
<g fill="#000000" fill-opacity="0.00" stroke="None">
<path d="
M 0.00 283.00 
L 881.00 283.00
L 881.00 0.00
L 0.00 0.00
L 0.00 283.00
M 607.00 197.00 
C 604.18 195.82 604.18 191.62 604.00 189.00
C 601.96 189.81 601.03 192.27 599.00 193.00
C 598.50 193.30 597.38 193.66 597.00 194.00
C 594.73 196.03 592.10 198.01 589.00 199.00
C 582.21 201.18 575.08 199.67 569.00 198.00
C 563.06 197.62 560.33 195.32 556.00 192.00
C 552.65 189.43 550.64 187.55 548.00 184.00
C 536.69 168.79 535.00 143.12 546.00 127.00
C 546.43 126.37 546.62 125.62 547.00 125.00
C 551.87 117.00 562.30 110.77 571.00 110.00 C 579.71 109.23 595.70 108.97 601.00 118.00
C 602.02 118.29 602.75 119.38 604.00 119.00
C 604.00 106.33 604.00 93.67 604.00 81.00
C 603.61 79.15 612.62 77.79 617.00 79.00 C 621.38 80.21 625.54 77.55 625.00 87.00 C 624.46 96.45 625.38 109.61 625.00 119.00 C 624.62 128.39 625.20 127.94 625.00 135.00 C 624.80 142.06 625.16 145.12 625.00 151.00 C 624.84 156.88 625.22 161.93 625.00 167.00 C 624.78 172.07 625.42 178.92 625.00 183.00 C 624.58 187.08 626.84 196.21 622.92 196.92 C 618.99 197.62 610.48 198.45 607.00 197.00
M 153.00 85.00 
C 154.47 85.75 155.10 86.79 156.00 88.00
C 158.18 90.93 159.88 94.06 162.00 97.00
C 162.98 98.36 164.13 99.62 165.00 101.00
C 165.34 101.55 165.63 102.54 166.00 103.00
C 169.52 107.40 172.86 112.14 176.00 117.00
C 177.58 119.45 179.32 122.96 181.00 125.00
C 186.89 132.17 193.15 139.53 197.00 148.00
C 197.80 149.00 199.17 149.97 200.00 151.00
C 201.94 153.43 203.32 156.52 205.00 159.00
C 205.93 160.37 207.70 161.93 209.00 163.00
C 209.00 157.67 209.00 152.33 209.00 147.00
C 209.00 137.74 207.65 126.01 209.00 117.00 C 210.35 107.99 205.40 95.11 209.00 87.00
C 208.01 84.63 230.05 79.42 228.99 88.01 C 227.93 96.60 229.70 107.34 229.00 116.00 C 228.30 124.66 229.78 134.62 229.00 143.00 C 228.22 151.38 230.35 163.38 229.00 171.00 C 227.65 178.62 232.73 193.34 227.00 197.00
C 223.73 199.09 213.52 198.38 210.00 197.00
C 206.41 195.59 205.76 191.57 204.00 189.00
C 203.38 188.10 202.59 186.85 202.00 186.00
C 200.40 183.69 197.80 181.36 196.00 179.00
C 195.76 178.68 196.00 178.00 196.00 178.00
C 193.66 176.48 192.43 174.29 191.00 172.00
C 190.64 171.43 190.37 170.50 190.00 170.00
C 188.36 167.81 186.52 165.44 185.00 163.00
C 184.66 162.45 184.36 161.46 184.00 161.00
C 179.90 155.87 175.79 150.53 172.00 145.00
C 170.59 142.95 169.33 141.00 168.00 139.00
C 163.77 132.64 157.15 126.12 154.00 119.00
C 153.22 118.35 153.08 117.37 152.00 117.00
C 152.00 118.33 152.00 119.67 152.00 121.00
C 152.94 146.30 151.29 171.69 152.00 197.00
C 145.56 197.17 140.33 197.97 134.00 197.00
C 128.34 194.04 131.89 184.28 132.00 178.00 C 132.11 171.71 131.73 161.93 132.00 155.00 C 132.27 148.07 131.39 139.08 132.00 132.00 C 132.61 124.92 130.65 115.85 132.00 109.00 C 133.35 102.15 129.00 92.07 132.00 86.00
C 133.99 81.98 149.85 83.41 153.00 85.00
M 407.00 85.00 
C 418.98 87.65 429.29 95.94 430.00 109.00
C 430.25 113.63 430.42 118.74 429.00 123.00
C 428.15 125.56 426.33 127.06 425.00 129.00
C 422.87 132.11 422.06 133.10 419.00 135.00
C 418.24 135.84 417.52 137.03 417.00 138.00
C 425.06 141.11 432.64 148.31 434.00 157.00
C 435.00 161.03 435.37 166.28 435.00 171.00
C 434.51 177.18 432.10 182.12 427.75 186.75 C 423.40 191.38 419.43 193.64 413.33 195.33 C 407.22 197.01 398.96 197.81 392.00 197.00 C 385.04 196.19 375.80 198.43 369.00 197.00 C 362.20 195.57 352.06 200.00 346.00 197.00
C 340.72 194.39 344.99 181.92 344.00 176.00 C 343.01 170.08 344.29 159.77 344.00 153.00 C 343.71 146.23 343.78 137.02 344.00 130.00 C 344.22 122.98 343.12 113.84 344.00 107.00 C 344.88 100.16 341.40 90.80 345.00 85.00
C 345.20 84.68 345.65 84.05 346.00 84.00
C 355.81 82.59 367.13 84.33 377.00 84.00 C 386.87 83.67 398.06 83.02 407.00 85.00
M 294.00 110.00 
C 304.89 111.25 312.66 115.75 320.00 124.00
C 321.44 125.62 322.76 127.09 324.00 129.00
C 341.85 156.38 324.92 193.46 294.00 199.00
C 289.68 199.77 285.23 199.60 281.00 199.00
C 264.38 196.63 248.14 186.98 245.02 168.98 C 241.91 150.97 242.55 131.20 258.00 119.00
C 260.67 116.89 263.11 115.40 266.00 114.00
C 270.27 111.94 273.94 110.58 279.00 110.00
C 284.40 109.38 288.57 109.38 294.00 110.00
M 502.00 112.00 
C 509.62 114.85 515.41 117.45 521.00 124.00
C 522.69 125.98 523.78 128.01 525.00 130.00
C 532.02 141.46 532.84 158.27 529.00 171.00
C 528.86 171.46 529.13 172.54 529.00 173.00
C 524.78 188.39 508.61 195.98 495.00 199.00
C 493.93 199.24 492.62 199.91 491.00 200.00
C 488.15 200.17 484.84 200.33 482.00 200.00
C 476.93 199.40 470.62 197.18 466.00 195.00
C 464.33 194.21 463.30 192.80 462.00 192.00
C 460.40 191.99 461.01 191.69 460.00 191.00
C 455.42 187.84 452.63 183.57 450.00 179.00
C 439.40 160.58 441.96 131.41 460.00 118.00
C 461.64 116.78 463.25 115.97 465.00 115.00
C 469.42 112.54 474.61 110.37 480.00 110.00
C 487.56 109.49 495.60 109.61 502.00 112.00
M 656.00 116.00 
C 663.62 131.75 667.17 149.70 674.00 166.00
C 674.40 166.94 675.26 168.95 676.00 170.00
C 680.10 171.49 678.15 164.26 681.78 158.78 C 685.41 153.29 682.62 149.52 687.78 142.78 C 692.93 136.04 692.10 116.59 700.00 112.00
C 705.04 109.07 713.11 112.12 719.00 111.00
C 719.00 112.67 719.00 114.33 719.00 116.00
C 718.79 122.64 712.83 128.70 711.22 135.22 C 709.62 141.75 705.48 148.67 703.00 155.00
C 702.25 156.90 701.76 159.07 701.00 161.00
C 694.95 176.41 688.50 192.11 682.00 207.00
C 681.03 209.22 680.50 211.13 679.00 213.00
C 678.89 213.47 679.00 214.00 679.00 214.00
C 676.99 219.58 670.29 226.21 664.77 227.77 C 659.25 229.33 644.31 232.67 642.00 226.00
C 640.86 222.72 641.35 214.91 644.00 213.00
C 647.14 210.74 653.99 212.07 658.00 211.00
C 658.27 210.84 660.87 208.20 661.00 208.00
C 661.28 206.85 661.50 206.11 662.00 205.00
C 662.73 203.38 664.52 201.36 665.00 200.00
C 666.23 188.53 658.50 175.84 654.08 164.92 C 649.65 154.01 646.14 140.57 641.00 130.00
C 640.58 129.14 639.50 128.07 639.00 127.00
C 637.35 123.48 635.67 119.83 635.00 116.00
C 633.46 107.19 652.92 109.63 656.00 116.00
M 861.00 258.00 
C 860.53 258.11 860.00 258.00 860.00 258.00
C 858.77 259.76 857.12 261.23 856.00 263.00
C 854.93 264.69 855.30 267.33 853.00 268.00
C 852.07 264.09 849.61 261.01 847.00 258.00
C 845.35 256.96 842.63 257.39 841.00 256.00
C 842.08 253.50 845.29 253.97 847.00 252.00
C 849.85 249.77 851.82 246.39 853.00 243.00
C 856.28 247.68 859.39 253.83 866.00 255.00
C 865.32 257.39 862.61 256.74 861.00 258.00 Z"/>
</g>
<g fill="#909399" fill-opacity="0.31" stroke="None">
<path d="
M 604.00 81.00 
C 604.08 80.81 605.50 81.00 606.00 81.00
C 611.67 81.00 617.33 81.00 623.00 81.00
C 623.00 119.33 623.00 157.67 623.00 196.00
C 617.83 196.65 611.34 194.69 607.00 197.00
C 610.48 198.45 618.99 197.62 622.92 196.92 C 626.84 196.21 624.58 187.08 625.00 183.00 C 625.42 178.92 624.78 172.07 625.00 167.00 C 625.22 161.93 624.84 156.88 625.00 151.00 C 625.16 145.12 624.80 142.06 625.00 135.00 C 625.20 127.94 624.62 128.39 625.00 119.00 C 625.38 109.61 624.46 96.45 625.00 87.00 C 625.54 77.55 621.38 80.21 617.00 79.00 C 612.62 77.79 603.61 79.15 604.00 81.00 Z"/>
</g>
<g fill="#8B8F96" fill-opacity="0.55" stroke="None">
<path d="
M 601.00 118.00 
C 606.47 127.33 607.23 116.00 606.00 108.00 C 604.76 100.00 609.22 88.24 606.00 81.00
C 605.50 81.00 604.08 80.81 604.00 81.00
C 604.00 93.67 604.00 106.33 604.00 119.00
C 602.75 119.38 602.02 118.29 601.00 118.00 Z"/>
</g>
<g fill="#959AA3" fill-opacity="0.93" stroke="None">
<path d="
M 601.00 118.00 
C 595.70 108.97 579.71 109.23 571.00 110.00 C 562.30 110.77 551.87 117.00 547.00 125.00
C 547.73 124.21 549.12 123.54 550.00 123.00
C 550.21 124.62 547.12 128.65 546.00 127.00
C 535.00 143.12 536.69 168.79 548.00 184.00
C 550.17 185.63 554.50 189.87 556.00 192.00
C 560.33 195.32 563.06 197.62 569.00 198.00
C 572.58 198.23 580.24 198.37 584.67 197.67 C 589.10 196.97 589.19 199.00 589.00 199.00
C 592.10 198.01 594.73 196.03 597.00 194.00
C 597.94 192.86 605.19 180.37 606.00 190.00
C 604.14 185.86 600.42 190.76 599.00 193.00
C 601.03 192.27 601.96 189.81 604.00 189.00
C 604.18 191.62 604.18 195.82 607.00 197.00
C 611.34 194.69 617.83 196.65 623.00 196.00
C 623.00 157.67 623.00 119.33 623.00 81.00
C 617.33 81.00 611.67 81.00 606.00 81.00
C 609.22 88.24 604.76 100.00 606.00 108.00 C 607.23 116.00 606.47 127.33 601.00 118.00
M 593.00 130.00 
C 590.75 126.66 595.73 129.18 597.00 130.00
C 596.54 131.86 594.96 130.16 594.00 130.00
C 603.92 140.35 606.51 151.87 602.67 166.67 C 598.84 181.47 583.76 184.32 571.00 180.00
C 569.60 179.53 569.21 179.80 566.75 178.25 C 564.30 176.69 565.77 174.40 566.00 175.00
C 549.76 156.73 565.48 112.66 593.00 130.00 Z"/>
</g>
<g fill="#989BA1" fill-opacity="0.45" stroke="None">
<path d="
M 132.00 86.00 
C 138.27 88.12 147.39 83.63 153.00 85.00
C 149.85 83.41 133.99 81.98 132.00 86.00 Z"/>
</g>
<g fill="#90949A" fill-opacity="0.54" stroke="None">
<path d="
M 209.00 87.00 
C 209.08 86.81 210.58 87.18 211.00 87.00
C 215.55 85.06 221.72 86.37 227.00 86.00
C 227.06 95.37 226.92 104.61 227.00 114.00 C 227.08 123.39 226.86 133.68 227.00 143.00 C 227.14 152.32 226.70 162.97 227.00 172.00 C 227.30 181.03 226.24 191.28 227.00 197.00
C 232.73 193.34 227.65 178.62 229.00 171.00 C 230.35 163.38 228.22 151.38 229.00 143.00 C 229.78 134.62 228.30 124.66 229.00 116.00 C 229.70 107.34 227.93 96.60 228.99 88.01 C 230.05 79.42 208.01 84.63 209.00 87.00 Z"/>
</g>
<g fill="#979CA4" fill-opacity="0.95" stroke="None">
<path d="
M 345.00 85.00 
C 346.61 90.37 345.88 96.90 346.00 103.00 C 346.12 109.11 345.85 115.90 346.00 122.00 C 346.15 128.10 345.73 135.07 346.00 141.00 C 346.27 146.93 345.42 154.51 346.00 160.00 C 346.58 165.49 344.72 174.51 346.00 179.00 C 347.28 183.49 343.23 195.16 346.00 197.00
C 352.06 200.00 362.20 195.57 369.00 197.00 C 375.80 198.43 385.04 196.19 392.00 197.00 C 398.96 197.81 407.22 197.01 413.33 195.33 C 419.43 193.64 423.40 191.38 427.75 186.75 C 432.10 182.12 434.51 177.18 435.00 171.00
C 434.83 169.65 432.89 167.51 433.00 165.00 C 433.11 162.48 434.05 158.64 434.00 157.00
C 432.64 148.31 425.06 141.11 417.00 138.00
C 417.52 137.03 418.24 135.84 419.00 135.00
C 417.39 136.00 413.17 137.44 417.00 139.00
C 415.69 141.04 411.96 138.39 413.00 136.00
C 418.02 136.35 421.64 128.87 425.00 129.00
C 426.33 127.06 428.15 125.56 429.00 123.00
C 428.74 125.23 427.19 121.73 428.31 120.30 C 429.42 118.88 428.98 116.22 428.00 114.00 C 427.03 111.77 430.26 107.67 430.00 109.00
C 429.29 95.94 418.98 87.65 407.00 85.00
C 398.44 84.95 385.03 87.76 376.00 86.00 C 366.97 84.24 352.55 90.09 346.00 84.00
C 345.65 84.05 345.20 84.68 345.00 85.00
M 400.00 102.00 
C 401.95 102.48 406.30 105.51 408.00 107.00
C 406.98 105.73 405.80 104.37 405.00 103.00
C 407.29 102.46 411.80 108.09 408.00 108.00
C 408.05 108.27 408.85 109.84 409.00 110.00
C 412.56 113.91 410.76 117.88 409.00 121.00
C 405.93 126.44 402.93 127.75 397.00 129.00
C 396.93 129.01 397.00 130.00 397.00 130.00
C 398.92 132.58 386.24 132.21 384.00 132.00
C 385.14 130.13 388.13 131.39 390.00 131.00
C 389.98 131.00 390.00 130.00 390.00 130.00
C 382.49 130.41 373.43 131.07 366.00 130.00
C 367.79 131.00 370.48 130.54 372.00 132.00
C 363.43 134.70 361.77 126.46 363.00 120.00 C 364.23 113.54 360.52 104.86 365.00 100.00
C 370.30 97.57 378.14 101.26 384.00 100.00 C 389.86 98.74 397.28 100.69 403.00 101.00
C 402.74 102.39 400.95 101.78 400.00 102.00
M 397.00 148.00 
C 415.72 150.26 421.98 174.43 401.00 179.00
C 402.21 179.34 402.72 180.22 402.00 181.00
C 399.19 184.04 388.47 181.90 384.00 182.00 C 379.53 182.10 368.46 183.57 365.00 181.00
C 357.80 175.65 366.28 166.68 363.00 158.00 C 359.72 149.32 367.54 144.51 376.00 146.00 C 384.46 147.49 391.75 145.61 397.00 148.00
M 411.00 195.00 
C 409.82 195.78 407.16 196.00 405.00 196.00
C 406.26 195.12 409.75 192.78 411.00 195.00 Z"/>
</g>
<g fill="#93969B" fill-opacity="0.45" stroke="None">
<path d="
M 407.00 85.00 
C 398.06 83.02 386.87 83.67 377.00 84.00 C 367.13 84.33 355.81 82.59 346.00 84.00
C 352.55 90.09 366.97 84.24 376.00 86.00 C 385.03 87.76 398.44 84.95 407.00 85.00 Z"/>
</g>
<g fill="#989CA5" fill-opacity="0.96" stroke="None">
<path d="
M 132.00 86.00 
C 129.00 92.07 133.35 102.15 132.00 109.00 C 130.65 115.85 132.61 124.92 132.00 132.00 C 131.39 139.08 132.27 148.07 132.00 155.00 C 131.73 161.93 132.11 171.71 132.00 178.00 C 131.89 184.28 128.34 194.04 134.00 197.00
C 137.49 198.26 146.44 193.97 151.00 196.00
C 148.67 169.17 150.66 141.25 150.00 114.00
C 151.93 113.91 156.39 117.41 154.00 119.00
C 157.15 126.12 163.77 132.64 168.00 139.00
C 168.28 139.24 170.14 139.63 171.75 141.25 C 173.36 142.86 172.22 145.76 172.00 145.00
C 175.79 150.53 179.90 155.87 184.00 161.00
C 184.06 161.04 189.17 162.12 188.00 165.00
C 186.75 164.70 186.29 163.17 185.00 163.00
C 186.52 165.44 188.36 167.81 190.00 170.00
C 190.88 170.76 193.20 170.50 193.00 173.00
C 193.11 173.35 193.68 173.80 194.00 174.00
C 198.51 176.79 201.03 182.77 202.00 186.00
C 202.59 186.85 203.38 188.10 204.00 189.00
C 205.26 189.95 207.87 195.74 210.00 197.00
C 213.52 198.38 223.73 199.09 227.00 197.00
C 226.24 191.28 227.30 181.03 227.00 172.00 C 226.70 162.97 227.14 152.32 227.00 143.00 C 226.86 133.68 227.08 123.39 227.00 114.00 C 226.92 104.61 227.06 95.37 227.00 86.00
C 221.72 86.37 215.55 85.06 211.00 87.00
C 214.24 94.29 209.50 104.92 211.00 113.00 C 212.50 121.08 210.25 130.52 211.00 139.00 C 211.75 147.48 210.43 157.39 211.00 166.00
C 208.78 166.05 207.01 163.71 206.00 162.00
C 205.08 160.66 205.11 159.30 205.00 159.00
C 203.32 156.52 201.94 153.43 200.00 151.00
C 199.25 150.36 197.56 149.23 197.00 148.00
C 193.15 139.53 186.89 132.17 181.00 125.00
C 180.09 124.30 179.97 123.34 177.25 121.75 C 174.52 120.17 175.90 116.59 176.00 117.00
C 172.86 112.14 169.52 107.40 166.00 103.00
C 165.76 102.82 161.07 101.55 161.00 99.00
C 162.82 98.45 163.47 100.75 165.00 101.00
C 164.13 99.62 162.98 98.36 162.00 97.00
C 160.92 96.19 159.29 96.04 157.25 93.75 C 155.20 91.47 155.86 87.59 156.00 88.00
C 155.10 86.79 154.47 85.75 153.00 85.00
C 147.39 83.63 138.27 88.12 132.00 86.00 Z"/>
</g>
<g fill="#979BA4" fill-opacity="0.30" stroke="None">
<path d="
M 346.00 197.00 
C 343.23 195.16 347.28 183.49 346.00 179.00 C 344.72 174.51 346.58 165.49 346.00 160.00 C 345.42 154.51 346.27 146.93 346.00 141.00 C 345.73 135.07 346.15 128.10 346.00 122.00 C 345.85 115.90 346.12 109.11 346.00 103.00 C 345.88 96.90 346.61 90.37 345.00 85.00
C 341.40 90.80 344.88 100.16 344.00 107.00 C 343.12 113.84 344.22 122.98 344.00 130.00 C 343.78 137.02 343.71 146.23 344.00 153.00 C 344.29 159.77 343.01 170.08 344.00 176.00 C 344.99 181.92 340.72 194.39 346.00 197.00 Z"/>
</g>
<g fill="#80838B" fill-opacity="0.45" stroke="None">
<path d="
M 209.00 147.00 
C 209.51 152.26 210.70 159.03 210.00 165.00
C 208.34 164.46 207.67 162.44 206.00 162.00
C 207.01 163.71 208.78 166.05 211.00 166.00
C 210.43 157.39 211.75 147.48 211.00 139.00 C 210.25 130.52 212.50 121.08 211.00 113.00 C 209.50 104.92 214.24 94.29 211.00 87.00
C 210.58 87.18 209.08 86.81 209.00 87.00
C 205.40 95.11 210.35 107.99 209.00 117.00 C 207.65 126.01 209.00 137.74 209.00 147.00 Z"/>
</g>
<g fill="#979A9F" fill-opacity="0.38" stroke="None">
<path d="
M 162.00 97.00 
C 159.88 94.06 158.18 90.93 156.00 88.00
C 155.86 87.59 155.20 91.47 157.25 93.75 C 159.29 96.04 160.92 96.19 162.00 97.00 Z"/>
</g>
<g fill="#8E9498" fill-opacity="0.44" stroke="None">
<path d="
M 166.00 103.00 
C 165.63 102.54 165.34 101.55 165.00 101.00
C 163.47 100.75 162.82 98.45 161.00 99.00
C 161.07 101.55 165.76 102.82 166.00 103.00 Z"/>
</g>
<g fill="#92979C" fill-opacity="0.68" stroke="None">
<path d="
M 366.00 130.00 
C 365.67 129.82 365.22 129.30 365.00 129.00
C 362.06 125.01 362.87 107.29 364.00 102.00
C 364.02 101.89 365.03 99.99 365.00 100.00
C 360.52 104.86 364.23 113.54 363.00 120.00 C 361.77 126.46 363.43 134.70 372.00 132.00
C 370.48 130.54 367.79 131.00 366.00 130.00 Z"/>
</g>
<g fill="#93969A" fill-opacity="0.37" stroke="None">
<path d="
M 364.00 102.00 
C 363.18 100.33 368.70 102.05 368.00 102.00
C 378.04 102.67 390.02 103.26 400.00 102.00
C 400.95 101.78 402.74 102.39 403.00 101.00
C 397.28 100.69 389.86 98.74 384.00 100.00 C 378.14 101.26 370.30 97.57 365.00 100.00
C 365.03 99.99 364.02 101.89 364.00 102.00 Z"/>
</g>
<g fill="#979A9F" fill-opacity="0.13" stroke="None">
<path d="
M 364.00 102.00 
C 362.87 107.29 362.06 125.01 365.00 129.00
C 363.73 120.18 365.95 110.86 365.00 102.00
C 366.00 102.00 367.00 102.00 368.00 102.00
C 368.70 102.05 363.18 100.33 364.00 102.00 Z"/>
</g>
<g fill="#000000" fill-opacity="0.00" stroke="None">
<path d="
M 365.00 129.00 
C 365.22 129.30 365.67 129.82 366.00 130.00
C 373.43 131.07 382.49 130.41 390.00 130.00
C 392.64 129.86 394.52 129.52 397.00 129.00
C 402.93 127.75 405.93 126.44 409.00 121.00
C 409.62 118.27 409.58 112.74 409.00 110.00
C 408.85 109.84 408.05 108.27 408.00 108.00
C 407.91 107.52 408.00 107.00 408.00 107.00
C 406.30 105.51 401.95 102.48 400.00 102.00
C 390.02 103.26 378.04 102.67 368.00 102.00
C 367.00 102.00 366.00 102.00 365.00 102.00
C 365.95 110.86 363.73 120.18 365.00 129.00 Z"/>
</g>
<g fill="#8F939B" fill-opacity="0.62" stroke="None">
<path d="
M 408.00 107.00 
C 408.00 107.00 407.91 107.52 408.00 108.00
C 411.80 108.09 407.29 102.46 405.00 103.00
C 405.80 104.37 406.98 105.73 408.00 107.00 Z"/>
</g>
<g fill="#8D9195" fill-opacity="0.48" stroke="None">
<path d="
M 429.00 123.00 
C 430.42 118.74 430.25 113.63 430.00 109.00
C 430.26 107.67 427.03 111.77 428.00 114.00 C 428.98 116.22 429.42 118.88 428.31 120.30 C 427.19 121.73 428.74 125.23 429.00 123.00 Z"/>
</g>
<g fill="#96999D" fill-opacity="0.56" stroke="None">
<path d="
M 279.00 110.00 
C 277.95 109.80 279.47 112.40 282.00 112.00 C 284.54 111.60 287.45 111.06 290.00 112.00 C 292.55 112.94 295.06 109.80 294.00 110.00
C 288.57 109.38 284.40 109.38 279.00 110.00 Z"/>
</g>
<g fill="#9599A1" fill-opacity="0.89" stroke="None">
<path d="
M 266.00 114.00 
C 266.03 113.98 263.96 115.79 262.75 117.75 C 261.54 119.72 256.86 119.44 258.00 119.00
C 242.55 131.20 241.91 150.97 245.02 168.98 C 248.14 186.98 264.38 196.63 281.00 199.00
C 284.73 198.78 290.38 198.90 294.00 199.00
C 324.92 193.46 341.85 156.38 324.00 129.00
C 322.88 127.97 320.84 125.50 320.00 124.00
C 312.66 115.75 304.89 111.25 294.00 110.00
C 295.06 109.80 292.55 112.94 290.00 112.00 C 287.45 111.06 284.54 111.60 282.00 112.00 C 279.47 112.40 277.95 109.80 279.00 110.00
C 273.94 110.58 270.27 111.94 266.00 114.00
M 308.00 168.00 
C 307.52 170.27 302.93 179.78 304.00 175.00
C 297.86 183.02 284.51 184.50 276.00 180.00
C 277.92 182.62 268.94 176.49 268.00 174.00
C 262.24 158.73 258.12 130.99 282.07 127.07 C 306.03 123.15 311.98 149.10 308.00 168.00 Z"/>
</g>
<g fill="#82868C" fill-opacity="0.27" stroke="None">
<path d="
M 409.00 121.00 
C 410.76 117.88 412.56 113.91 409.00 110.00
C 409.58 112.74 409.62 118.27 409.00 121.00 Z"/>
</g>
<g fill="#9599A1" fill-opacity="0.90" stroke="None">
<path d="
M 465.00 115.00 
C 465.03 114.97 464.34 116.63 462.92 117.92 C 461.49 119.21 459.04 118.37 460.00 118.00
C 441.96 131.41 439.40 160.58 450.00 179.00
C 450.23 179.25 451.00 179.00 451.00 179.00
C 453.60 180.78 459.38 186.85 460.00 190.00
C 460.09 190.48 460.00 191.00 460.00 191.00
C 461.01 191.69 460.40 191.99 462.00 192.00
C 465.62 192.01 464.51 193.78 466.00 195.00
C 470.62 197.18 476.93 199.40 482.00 200.00
C 481.66 200.04 483.97 199.01 484.00 199.00
C 487.78 197.46 491.52 198.85 495.00 199.00
C 508.61 195.98 524.78 188.39 529.00 173.00
C 525.46 176.41 528.12 165.80 529.00 171.00
C 532.84 158.27 532.02 141.46 525.00 130.00
C 523.42 128.29 517.14 123.79 515.00 120.00
C 517.75 119.73 518.68 123.29 521.00 124.00
C 515.41 117.45 509.62 114.85 502.00 112.00
C 499.60 111.69 494.63 111.17 491.00 112.00 C 487.37 112.83 481.57 110.23 480.00 110.00
C 474.61 110.37 469.42 112.54 465.00 115.00
M 477.00 129.00 
C 492.22 121.96 506.85 133.50 509.98 147.02 C 513.10 160.55 508.20 181.98 492.00 182.00
C 492.00 182.00 492.00 183.00 492.00 183.00
C 490.65 184.40 482.88 184.67 484.00 183.00
C 484.23 182.65 484.00 182.00 484.00 182.00
C 461.18 180.76 463.33 151.93 468.00 137.00
C 468.83 134.35 469.26 134.12 471.75 130.75 C 474.25 127.38 477.96 128.99 477.00 129.00 Z"/>
</g>
<g fill="#919699" fill-opacity="0.54" stroke="None">
<path d="
M 502.00 112.00 
C 495.60 109.61 487.56 109.49 480.00 110.00
C 481.57 110.23 487.37 112.83 491.00 112.00 C 494.63 111.17 499.60 111.69 502.00 112.00 Z"/>
</g>
<g fill="#84868D" fill-opacity="0.41" stroke="None">
<path d="
M 635.00 116.00 
C 636.42 110.48 643.28 114.64 647.00 113.00 C 650.72 111.36 657.10 117.30 656.00 116.00
C 652.92 109.63 633.46 107.19 635.00 116.00 Z"/>
</g>
<g fill="#83878B" fill-opacity="0.49" stroke="None">
<path d="
M 700.00 112.00 
C 704.14 110.74 712.19 115.03 717.00 113.00
C 716.72 114.49 717.02 116.38 719.00 116.00
C 719.00 114.33 719.00 112.67 719.00 111.00
C 713.11 112.12 705.04 109.07 700.00 112.00 Z"/>
</g>
<g fill="#9498A0" fill-opacity="0.89" stroke="None">
<path d="
M 676.00 170.00 
C 673.11 168.95 674.52 168.98 674.00 166.00
C 667.17 149.70 663.62 131.75 656.00 116.00
C 657.10 117.30 650.72 111.36 647.00 113.00 C 643.28 114.64 636.42 110.48 635.00 116.00
C 635.67 119.83 637.35 123.48 639.00 127.00
C 639.86 128.13 640.46 127.32 641.00 130.00
C 646.14 140.57 649.65 154.01 654.08 164.92 C 658.50 175.84 666.23 188.53 665.00 200.00
C 664.60 203.70 663.78 203.25 662.00 205.00
C 661.50 206.11 661.28 206.85 661.00 208.00
C 660.53 209.97 659.81 210.51 658.00 211.00
C 653.99 212.07 647.14 210.74 644.00 213.00
C 645.46 214.44 643.15 228.31 642.00 226.00
C 644.31 232.67 659.25 229.33 664.77 227.77 C 670.29 226.21 676.99 219.58 679.00 214.00
C 675.26 216.51 679.82 208.09 681.00 207.00
C 681.28 206.74 681.84 205.64 682.00 207.00
C 688.50 192.11 694.95 176.41 701.00 161.00
C 698.04 164.58 702.62 155.71 703.00 155.00
C 705.48 148.67 709.62 141.75 711.22 135.22 C 712.83 128.70 718.79 122.64 719.00 116.00
C 717.02 116.38 716.72 114.49 717.00 113.00
C 712.19 115.03 704.14 110.74 700.00 112.00
C 692.10 116.59 692.93 136.04 687.78 142.78 C 682.62 149.52 685.41 153.29 681.78 158.78 C 678.15 164.26 680.10 171.49 676.00 170.00
M 675.00 172.00 
C 682.09 172.42 674.72 177.97 675.00 172.00 Z"/>
</g>
<g fill="#83898F" fill-opacity="0.46" stroke="None">
<path d="
M 134.00 197.00 
C 140.33 197.97 145.56 197.17 152.00 197.00
C 151.29 171.69 152.94 146.30 152.00 121.00
C 151.97 120.11 150.00 117.61 151.00 116.00
C 152.69 115.68 154.29 117.32 154.00 119.00
C 156.39 117.41 151.93 113.91 150.00 114.00
C 150.66 141.25 148.67 169.17 151.00 196.00
C 146.44 193.97 137.49 198.26 134.00 197.00 Z"/>
</g>
<g fill="#8C8E94" fill-opacity="0.36" stroke="None">
<path d="
M 258.00 119.00 
C 256.86 119.44 261.54 119.72 262.75 117.75 C 263.96 115.79 266.03 113.98 266.00 114.00
C 263.11 115.40 260.67 116.89 258.00 119.00 Z"/>
</g>
<g fill="#8A8C90" fill-opacity="0.38" stroke="None">
<path d="
M 460.00 118.00 
C 459.04 118.37 461.49 119.21 462.92 117.92 C 464.34 116.63 465.03 114.97 465.00 115.00
C 463.25 115.97 461.64 116.78 460.00 118.00 Z"/>
</g>
<g fill="#8D8E98" fill-opacity="0.09" stroke="None">
<path d="
M 152.00 121.00 
C 152.00 119.67 152.00 118.33 152.00 117.00
C 153.08 117.37 153.22 118.35 154.00 119.00
C 154.29 117.32 152.69 115.68 151.00 116.00
C 150.00 117.61 151.97 120.11 152.00 121.00 Z"/>
</g>
<g fill="#8D8F94" fill-opacity="0.38" stroke="None">
<path d="
M 181.00 125.00 
C 179.32 122.96 177.58 119.45 176.00 117.00
C 175.90 116.59 174.52 120.17 177.25 121.75 C 179.97 123.34 180.09 124.30 181.00 125.00 Z"/>
</g>
<g fill="#888C90" fill-opacity="0.42" stroke="None">
<path d="
M 525.00 130.00 
C 523.78 128.01 522.69 125.98 521.00 124.00
C 518.68 123.29 517.75 119.73 515.00 120.00
C 517.14 123.79 523.42 128.29 525.00 130.00 Z"/>
</g>
<g fill="#8D9196" fill-opacity="0.41" stroke="None">
<path d="
M 547.00 125.00 
C 546.62 125.62 546.43 126.37 546.00 127.00
C 547.12 128.65 550.21 124.62 550.00 123.00
C 549.12 123.54 547.73 124.21 547.00 125.00 Z"/>
</g>
<g fill="#8C8F92" fill-opacity="0.31" stroke="None">
<path d="
M 324.00 129.00 
C 322.76 127.09 321.44 125.62 320.00 124.00
C 320.84 125.50 322.88 127.97 324.00 129.00 Z"/>
</g>
<g fill="#898D98" fill-opacity="0.38" stroke="None">
<path d="
M 639.00 127.00 
C 639.50 128.07 640.58 129.14 641.00 130.00
C 640.46 127.32 639.86 128.13 639.00 127.00 Z"/>
</g>
<g fill="#000000" fill-opacity="0.00" stroke="None">
<path d="
M 268.00 174.00 
C 269.53 176.27 273.67 178.77 276.00 180.00
C 284.51 184.50 297.86 183.02 304.00 175.00
C 305.03 173.66 307.44 169.50 308.00 168.00
C 311.98 149.10 306.03 123.15 282.07 127.07 C 258.12 130.99 262.24 158.73 268.00 174.00 Z"/>
</g>
<g fill="#94979C" fill-opacity="0.36" stroke="None">
<path d="
M 468.00 137.00 
C 469.68 134.31 474.01 130.38 477.00 129.00
C 477.96 128.99 474.25 127.38 471.75 130.75 C 469.26 134.12 468.83 134.35 468.00 137.00 Z"/>
</g>
<g fill="#000000" fill-opacity="0.00" stroke="None">
<path d="
M 477.00 129.00 
C 474.01 130.38 469.68 134.31 468.00 137.00
C 463.33 151.93 461.18 180.76 484.00 182.00
C 486.65 182.14 489.36 181.76 492.00 182.00
C 508.20 181.98 513.10 160.55 509.98 147.02 C 506.85 133.50 492.22 121.96 477.00 129.00 Z"/>
</g>
<g fill="#000000" fill-opacity="0.00" stroke="None">
<path d="
M 566.00 175.00 
C 567.24 176.40 569.47 178.99 571.00 180.00
C 583.76 184.32 598.84 181.47 602.67 166.67 C 606.51 151.87 603.92 140.35 594.00 130.00
C 593.58 129.82 593.00 130.00 593.00 130.00
C 565.48 112.66 549.76 156.73 566.00 175.00 Z"/>
</g>
<g fill="#8F9399" fill-opacity="0.48" stroke="None">
<path d="
M 419.00 135.00 
C 422.06 133.10 422.87 132.11 425.00 129.00
C 421.64 128.87 418.02 136.35 413.00 136.00
C 411.96 138.39 415.69 141.04 417.00 139.00
C 413.17 137.44 417.39 136.00 419.00 135.00 Z"/>
</g>
<g fill="#8C8F96" fill-opacity="0.52" stroke="None">
<path d="
M 593.00 130.00 
C 593.00 130.00 593.58 129.82 594.00 130.00
C 594.96 130.16 596.54 131.86 597.00 130.00
C 595.73 129.18 590.75 126.66 593.00 130.00 Z"/>
</g>
<g fill="#838389" fill-opacity="0.26" stroke="None">
<path d="
M 390.00 130.00 
C 390.00 130.00 389.98 131.00 390.00 131.00
C 392.34 130.81 395.04 131.58 397.00 130.00
C 397.00 130.00 396.93 129.01 397.00 129.00
C 394.52 129.52 392.64 129.86 390.00 130.00 Z"/>
</g>
<g fill="#787A7F" fill-opacity="0.84" stroke="None">
<path d="
M 390.00 131.00 
C 388.13 131.39 385.14 130.13 384.00 132.00
C 386.24 132.21 398.92 132.58 397.00 130.00
C 395.04 131.58 392.34 130.81 390.00 131.00 Z"/>
</g>
<g fill="#92949C" fill-opacity="0.34" stroke="None">
<path d="
M 168.00 139.00 
C 169.33 141.00 170.59 142.95 172.00 145.00
C 172.22 145.76 173.36 142.86 171.75 141.25 C 170.14 139.63 168.28 139.24 168.00 139.00 Z"/>
</g>
<g fill="#8F9397" fill-opacity="0.42" stroke="None">
<path d="
M 365.00 181.00 
C 368.75 182.92 378.60 181.17 383.00 181.00 C 387.40 180.83 398.15 183.06 402.00 181.00
C 402.72 180.22 402.21 179.34 401.00 179.00
C 389.18 181.58 377.02 178.80 365.00 179.00
C 365.00 168.67 365.00 158.33 365.00 148.00
C 375.67 148.00 386.33 148.00 397.00 148.00
C 391.75 145.61 384.46 147.49 376.00 146.00 C 367.54 144.51 359.72 149.32 363.00 158.00 C 366.28 166.68 357.80 175.65 365.00 181.00 Z"/>
</g>
<g fill="#898E95" fill-opacity="0.14" stroke="None">
<path d="
M 205.00 159.00 
C 205.11 159.30 205.08 160.66 206.00 162.00
C 207.67 162.44 208.34 164.46 210.00 165.00
C 210.70 159.03 209.51 152.26 209.00 147.00
C 209.00 152.33 209.00 157.67 209.00 163.00
C 207.70 161.93 205.93 160.37 205.00 159.00 Z"/>
</g>
<g fill="#8F9195" fill-opacity="0.28" stroke="None">
<path d="
M 200.00 151.00 
C 199.17 149.97 197.80 149.00 197.00 148.00
C 197.56 149.23 199.25 150.36 200.00 151.00 Z"/>
</g>
<g fill="#000000" fill-opacity="0.00" stroke="None">
<path d="
M 401.00 179.00 
C 421.98 174.43 415.72 150.26 397.00 148.00
C 386.33 148.00 375.67 148.00 365.00 148.00
C 365.00 158.33 365.00 168.67 365.00 179.00
C 377.02 178.80 389.18 181.58 401.00 179.00 Z"/>
</g>
<g fill="#869092" fill-opacity="0.18" stroke="None">
<path d="
M 701.00 161.00 
C 701.76 159.07 702.25 156.90 703.00 155.00
C 702.62 155.71 698.04 164.58 701.00 161.00 Z"/>
</g>
<g fill="#8F929A" fill-opacity="0.40" stroke="None">
<path d="
M 435.00 171.00 
C 435.37 166.28 435.00 161.03 434.00 157.00
C 434.05 158.64 433.11 162.48 433.00 165.00 C 432.89 167.51 434.83 169.65 435.00 171.00 Z"/>
</g>
<g fill="#85898E" fill-opacity="0.48" stroke="None">
<path d="
M 184.00 161.00 
C 184.36 161.46 184.66 162.45 185.00 163.00
C 186.29 163.17 186.75 164.70 188.00 165.00
C 189.17 162.12 184.06 161.04 184.00 161.00 Z"/>
</g>
<g fill="#86888D" fill-opacity="0.35" stroke="None">
<path d="
M 676.00 170.00 
C 675.26 168.95 674.40 166.94 674.00 166.00
C 674.52 168.98 673.11 168.95 676.00 170.00 Z"/>
</g>
<g fill="#898B94" fill-opacity="0.35" stroke="None">
<path d="
M 304.00 175.00 
C 302.93 179.78 307.52 170.27 308.00 168.00
C 307.44 169.50 305.03 173.66 304.00 175.00 Z"/>
</g>
<g fill="#909298" fill-opacity="0.44" stroke="None">
<path d="
M 190.00 170.00 
C 190.37 170.50 190.64 171.43 191.00 172.00
C 191.18 172.18 192.98 172.93 193.00 173.00
C 193.20 170.50 190.88 170.76 190.00 170.00 Z"/>
</g>
<g fill="#85878D" fill-opacity="0.42" stroke="None">
<path d="
M 529.00 173.00 
C 529.13 172.54 528.86 171.46 529.00 171.00
C 528.12 165.80 525.46 176.41 529.00 173.00 Z"/>
</g>
<g fill="#94959F" fill-opacity="0.14" stroke="None">
<path d="
M 196.00 178.00 
C 195.88 176.66 194.98 174.93 194.00 174.00
C 193.68 173.80 193.11 173.35 193.00 173.00
C 192.98 172.93 191.18 172.18 191.00 172.00
C 192.43 174.29 193.66 176.48 196.00 178.00 Z"/>
</g>
<g fill="#878C90" fill-opacity="0.59" stroke="None">
<path d="
M 675.00 172.00 
C 674.72 177.97 682.09 172.42 675.00 172.00 Z"/>
</g>
<g fill="#8F939A" fill-opacity="0.62" stroke="None">
<path d="
M 196.00 178.00 
C 196.00 178.00 195.76 178.68 196.00 179.00
C 198.67 180.87 200.44 183.24 202.00 186.00
C 201.03 182.77 198.51 176.79 194.00 174.00
C 194.98 174.93 195.88 176.66 196.00 178.00 Z"/>
</g>
<g fill="#8A8D91" fill-opacity="0.35" stroke="None">
<path d="
M 276.00 180.00 
C 273.67 178.77 269.53 176.27 268.00 174.00
C 268.94 176.49 277.92 182.62 276.00 180.00 Z"/>
</g>
<g fill="#8B8E92" fill-opacity="0.38" stroke="None">
<path d="
M 571.00 180.00 
C 569.47 178.99 567.24 176.40 566.00 175.00
C 565.77 174.40 564.30 176.69 566.75 178.25 C 569.21 179.80 569.60 179.53 571.00 180.00 Z"/>
</g>
<g fill="#8C909B" fill-opacity="0.09" stroke="None">
<path d="
M 202.00 186.00 
C 200.44 183.24 198.67 180.87 196.00 179.00
C 197.80 181.36 200.40 183.69 202.00 186.00 Z"/>
</g>
<g fill="#8D9296" fill-opacity="0.10" stroke="None">
<path d="
M 460.00 191.00 
C 460.00 191.00 460.09 190.48 460.00 190.00
C 456.04 187.23 453.19 183.11 451.00 179.00
C 451.00 179.00 450.23 179.25 450.00 179.00
C 452.63 183.57 455.42 187.84 460.00 191.00 Z"/>
</g>
<g fill="#8E9399" fill-opacity="0.60" stroke="None">
<path d="
M 460.00 190.00 
C 459.38 186.85 453.60 180.78 451.00 179.00
C 453.19 183.11 456.04 187.23 460.00 190.00 Z"/>
</g>
<g fill="#777A7F" fill-opacity="0.94" stroke="None">
<path d="
M 402.00 181.00 
C 398.15 183.06 387.40 180.83 383.00 181.00 C 378.60 181.17 368.75 182.92 365.00 181.00
C 368.46 183.57 379.53 182.10 384.00 182.00 C 388.47 181.90 399.19 184.04 402.00 181.00 Z"/>
</g>
<g fill="#8E8E91" fill-opacity="0.03" stroke="None">
<path d="
M 484.00 183.00 
C 486.52 183.23 489.48 183.23 492.00 183.00
C 492.00 183.00 492.00 182.00 492.00 182.00
C 489.36 181.76 486.65 182.14 484.00 182.00
C 484.00 182.00 484.23 182.65 484.00 183.00 Z"/>
</g>
<g fill="#8D8D93" fill-opacity="0.47" stroke="None">
<path d="
M 492.00 183.00 
C 489.48 183.23 486.52 183.23 484.00 183.00
C 482.88 184.67 490.65 184.40 492.00 183.00 Z"/>
</g>
<g fill="#92969F" fill-opacity="0.34" stroke="None">
<path d="
M 548.00 184.00 
C 550.64 187.55 552.65 189.43 556.00 192.00
C 554.50 189.87 550.17 185.63 548.00 184.00 Z"/>
</g>
<g fill="#888C92" fill-opacity="0.53" stroke="None">
<path d="
M 597.00 194.00 
C 597.38 193.66 598.50 193.30 599.00 193.00
C 600.42 190.76 604.14 185.86 606.00 190.00
C 605.19 180.37 597.94 192.86 597.00 194.00 Z"/>
</g>
<g fill="#95999E" fill-opacity="0.27" stroke="None">
<path d="
M 204.00 189.00 
C 205.76 191.57 206.41 195.59 210.00 197.00
C 207.87 195.74 205.26 189.95 204.00 189.00 Z"/>
</g>
<g fill="#919398" fill-opacity="0.35" stroke="None">
<path d="
M 462.00 192.00 
C 463.30 192.80 464.33 194.21 466.00 195.00
C 464.51 193.78 465.62 192.01 462.00 192.00 Z"/>
</g>
<g fill="#83868B" fill-opacity="0.76" stroke="None">
<path d="
M 411.00 195.00 
C 409.75 192.78 406.26 195.12 405.00 196.00
C 407.16 196.00 409.82 195.78 411.00 195.00 Z"/>
</g>
<g fill="#8F9399" fill-opacity="0.34" stroke="None">
<path d="
M 569.00 198.00 
C 575.08 199.67 582.21 201.18 589.00 199.00
C 589.19 199.00 589.10 196.97 584.67 197.67 C 580.24 198.37 572.58 198.23 569.00 198.00 Z"/>
</g>
<g fill="#929599" fill-opacity="0.57" stroke="None">
<path d="
M 281.00 199.00 
C 285.33 199.00 289.67 199.00 294.00 199.00
C 290.38 198.90 284.73 198.78 281.00 199.00 Z"/>
</g>
<g fill="#95979C" fill-opacity="0.45" stroke="None">
<path d="
M 484.00 199.00 
C 486.53 198.62 489.31 199.92 491.00 200.00
C 492.62 199.91 493.93 199.24 495.00 199.00
C 491.52 198.85 487.78 197.46 484.00 199.00 Z"/>
</g>
<g fill="#8B9198" fill-opacity="0.05" stroke="None">
<path d="
M 294.00 199.00 
C 289.67 199.00 285.33 199.00 281.00 199.00
C 285.23 199.60 289.68 199.77 294.00 199.00 Z"/>
</g>
<g fill="#96969A" fill-opacity="0.05" stroke="None">
<path d="
M 482.00 200.00 
C 484.84 200.33 488.15 200.17 491.00 200.00
C 489.31 199.92 486.53 198.62 484.00 199.00
C 483.97 199.01 481.66 200.04 482.00 200.00 Z"/>
</g>
<g fill="#8B8E95" fill-opacity="0.33" stroke="None">
<path d="
M 662.00 205.00 
C 663.78 203.25 664.60 203.70 665.00 200.00
C 664.52 201.36 662.73 203.38 662.00 205.00 Z"/>
</g>
<g fill="#85878D" fill-opacity="0.16" stroke="None">
<path d="
M 681.00 207.00 
C 680.10 208.50 679.41 211.24 679.00 213.00
C 680.50 211.13 681.03 209.22 682.00 207.00
C 681.84 205.64 681.28 206.74 681.00 207.00 Z"/>
</g>
<g fill="#898B91" fill-opacity="0.53" stroke="None">
<path d="
M 679.00 214.00 
C 679.00 214.00 678.89 213.47 679.00 213.00
C 679.41 211.24 680.10 208.50 681.00 207.00
C 679.82 208.09 675.26 216.51 679.00 214.00 Z"/>
</g>
<g fill="#8F9496" fill-opacity="0.24" stroke="None">
<path d="
M 658.00 211.00 
C 659.81 210.51 660.53 209.97 661.00 208.00
C 660.87 208.20 658.27 210.84 658.00 211.00 Z"/>
</g>
<g fill="#85898E" fill-opacity="0.35" stroke="None">
<path d="
M 642.00 226.00 
C 643.15 228.31 645.46 214.44 644.00 213.00
C 641.35 214.91 640.86 222.72 642.00 226.00 Z"/>
</g>
<g fill="#AAAAAE" fill-opacity="0.37" stroke="None">
<path d="
M 847.00 252.00 
C 848.46 251.28 852.14 249.28 853.00 246.00
C 856.53 248.80 858.54 253.24 863.00 255.00
C 862.70 256.25 861.17 256.71 861.00 258.00
C 862.61 256.74 865.32 257.39 866.00 255.00
C 859.39 253.83 856.28 247.68 853.00 243.00
C 851.82 246.39 849.85 249.77 847.00 252.00 Z"/>
</g>
<g fill="#A2A3A5" fill-opacity="0.69" stroke="None">
<path d="
M 847.00 252.00 
C 845.29 253.97 842.08 253.50 841.00 256.00
C 842.63 257.39 845.35 256.96 847.00 258.00
C 844.68 253.05 852.65 251.73 853.00 247.00
C 855.94 249.48 857.85 253.88 862.00 255.00
C 861.70 256.25 860.17 256.71 860.00 258.00
C 860.00 258.00 860.53 258.11 861.00 258.00
C 861.17 256.71 862.70 256.25 863.00 255.00
C 858.54 253.24 856.53 248.80 853.00 246.00
C 852.14 249.28 848.46 251.28 847.00 252.00 Z"/>
</g>
<g fill="#8D8D90" fill-opacity="0.97" stroke="None">
<path d="
M 847.00 258.00 
C 848.27 260.71 853.44 264.17 856.00 263.00
C 857.12 261.23 858.77 259.76 860.00 258.00
C 860.17 256.71 861.70 256.25 862.00 255.00
C 857.85 253.88 855.94 249.48 853.00 247.00
C 852.65 251.73 844.68 253.05 847.00 258.00 Z"/>
</g>
<g fill="#A6A6A9" fill-opacity="0.49" stroke="None">
<path d="
M 856.00 263.00 
C 853.44 264.17 848.27 260.71 847.00 258.00
C 849.61 261.01 852.07 264.09 853.00 268.00
C 855.30 267.33 854.93 264.69 856.00 263.00 Z"/>
</g>
</svg>