<svg xmlns="http://www.w3.org/2000/svg" xmlns:v="https://svgstorm.com"
viewBox = "0 0 256 256"
width="256"
height="256">
<g fill="None" fill-opacity="0.0" stroke="#000000" stroke-opacity="0.00" stroke-width="0.3"><path d="
M 0.00 256.00 
L 256.00 256.00
L 256.00 0.00
L 0.00 0.00
L 0.00 256.00
M 141.00 6.00 
C 144.62 6.07 147.57 6.42 151.00 7.00
C 152.69 7.29 152.81 6.89 154.00 8.00
C 154.33 7.76 155.00 8.00 155.00 8.00
C 156.72 7.79 156.96 8.70 158.00 9.00
C 162.74 10.35 167.29 11.26 172.00 13.00
C 174.12 13.78 176.16 15.18 178.00 16.00
C 180.88 16.85 183.27 17.49 186.00 19.00
C 190.84 21.67 194.77 24.76 199.00 28.00
C 200.55 28.94 202.42 29.75 204.00 31.00
C 206.38 32.88 208.75 35.08 211.00 37.00
C 213.22 38.90 215.15 40.83 217.00 43.00
C 219.10 45.45 222.61 48.15 224.00 51.00
C 224.20 51.40 224.00 52.00 224.00 52.00
C 226.34 53.52 227.57 55.71 229.00 58.00
C 229.22 58.36 229.00 59.00 229.00 59.00
C 231.75 60.79 232.58 63.22 234.00 66.00
C 234.30 66.59 234.65 67.49 235.00 68.00
C 236.85 70.71 238.63 73.83 240.00 77.00
C 244.80 88.13 248.75 100.54 249.00 113.00
C 249.26 115.16 250.00 118.18 250.00 121.00
C 250.00 125.33 250.09 129.67 250.00 134.00
C 249.95 136.52 249.26 139.17 249.00 141.00
C 247.45 166.94 234.70 189.46 218.00 209.00
C 216.10 211.22 214.17 213.15 212.00 215.00
C 205.42 220.62 199.16 225.52 192.00 230.00
C 190.47 230.96 188.70 232.02 187.00 233.00
C 173.07 241.01 156.47 247.00 140.00 247.00
C 133.08 247.67 124.85 247.66 118.00 247.00
C 101.20 247.00 84.43 240.98 70.00 233.00
C 68.45 232.14 67.26 230.80 66.00 230.00
C 54.11 224.11 41.38 213.44 34.00 202.00
C 30.46 197.69 26.83 193.93 24.00 189.00
C 23.24 187.68 22.75 186.31 22.00 185.00
C 13.95 171.00 8.00 153.54 8.00 137.00
C 7.30 129.76 7.13 121.19 8.00 114.00
C 8.15 106.45 10.07 100.03 12.00 93.00
C 12.58 90.90 13.37 88.78 14.00 87.00
C 14.55 84.73 15.13 83.19 16.00 81.00
C 16.57 79.57 17.40 78.21 18.00 77.00
C 19.02 73.91 20.39 70.92 22.00 68.00
C 22.86 66.45 24.20 65.26 25.00 64.00
C 26.77 60.42 28.56 57.35 31.00 54.00
C 36.72 46.15 44.29 38.09 52.00 32.00
C 54.31 30.17 56.63 28.64 59.00 27.00
C 62.55 24.54 66.15 22.21 70.00 20.00
C 80.97 13.69 91.88 11.02 104.00 8.00
C 104.86 7.79 105.57 7.01 107.00 7.00
C 107.50 7.00 108.50 6.97 109.00 7.00
C 110.59 6.43 111.85 5.99 114.00 6.00
C 115.00 6.00 116.00 6.00 117.00 6.00
C 124.40 4.38 133.69 5.12 141.00 6.00 Z"/>
</g>
<g fill="None" fill-opacity="0.0" stroke="#5A91A6" stroke-opacity="0.11" stroke-width="0.3"><path d="
M 117.00 6.00 
C 124.99 6.00 133.01 5.84 141.00 6.00
C 133.69 5.12 124.40 4.38 117.00 6.00 Z"/>
</g>
<g fill="None" fill-opacity="0.0" stroke="#5CA2B1" stroke-opacity="0.11" stroke-width="0.3"><path d="
M 109.00 7.00 
C 111.07 7.11 112.63 6.25 114.00 6.00
C 111.85 5.99 110.59 6.43 109.00 7.00 Z"/>
</g>
<g fill="None" fill-opacity="0.0" stroke="#2B6D90" stroke-opacity="0.82" stroke-width="0.3"><path d="
M 109.00 7.00 
C 108.50 6.97 107.50 7.00 107.00 7.00
C 104.89 8.39 105.83 7.87 104.00 8.00
C 91.88 11.02 80.97 13.69 70.00 20.00
C 66.47 22.73 62.88 24.82 59.00 27.00
C 56.63 28.64 54.31 30.17 52.00 32.00
C 44.68 38.77 37.60 46.87 31.00 54.00
C 28.56 57.35 26.77 60.42 25.00 64.00
C 24.12 65.77 23.11 66.50 22.00 68.00
C 20.39 70.92 19.02 73.91 18.00 77.00
C 17.33 79.03 16.94 79.40 16.00 81.00
C 15.13 83.19 14.55 84.73 14.00 87.00
C 13.41 89.46 12.81 90.97 12.00 93.00
C 10.07 100.03 8.15 106.45 8.00 114.00
C 7.85 121.66 8.00 129.34 8.00 137.00
C 8.00 153.54 13.95 171.00 22.00 185.00
C 23.47 186.81 24.75 187.90 26.00 190.00
C 28.48 194.18 31.37 197.92 34.00 202.00
C 41.38 213.44 54.11 224.11 66.00 230.00
C 67.77 230.88 68.50 231.89 70.00 233.00
C 84.43 240.98 101.20 247.00 118.00 247.00
C 125.33 247.00 132.67 247.00 140.00 247.00
C 156.47 247.00 173.07 241.01 187.00 233.00
C 188.44 231.95 189.73 231.08 192.00 230.00
C 199.16 225.52 205.42 220.62 212.00 215.00
C 213.92 213.08 216.12 210.88 218.00 209.00
C 234.70 189.46 247.45 166.94 249.00 141.00
C 249.14 138.68 249.84 135.64 250.00 134.00
C 250.09 129.67 250.00 125.33 250.00 121.00
C 249.80 118.93 249.05 115.73 249.00 113.00
C 248.75 100.54 244.80 88.13 240.00 77.00
C 238.36 73.99 235.59 70.52 235.00 68.00
C 234.65 67.49 234.30 66.59 234.00 66.00
C 232.23 63.78 230.04 61.89 229.00 59.00
C 229.00 59.00 229.22 58.36 229.00 58.00
C 226.66 56.48 225.43 54.29 224.00 52.00
C 224.00 52.00 224.20 51.40 224.00 51.00
C 216.37 45.67 210.71 37.20 204.00 31.00
C 202.42 29.75 200.55 28.94 199.00 28.00
C 194.24 25.11 190.19 22.28 186.00 19.00
C 183.27 17.49 180.88 16.85 178.00 16.00
C 175.49 15.26 173.98 14.04 172.00 13.00
C 167.29 11.26 162.74 10.35 158.00 9.00
C 156.64 8.88 156.33 10.44 155.00 8.00
C 155.00 8.00 154.33 7.76 154.00 8.00
C 151.18 10.02 152.28 7.49 151.00 7.00
C 147.57 6.42 144.62 6.07 141.00 6.00
C 133.01 5.84 124.99 6.00 117.00 6.00
C 116.00 6.00 115.00 6.00 114.00 6.00
C 112.63 6.25 111.07 7.11 109.00 7.00
M 145.00 9.00 
C 207.19 16.52 253.79 77.70 246.00 141.00 C 238.22 204.31 178.03 250.57 114.00 243.00 C 49.97 235.43 4.16 175.58 11.78 111.78 C 19.40 47.98 81.70 1.35 145.00 9.00 Z"/>
</g>
<g fill="None" fill-opacity="0.0" stroke="#5183A0" stroke-opacity="0.35" stroke-width="0.3"><path d="
M 104.00 8.00 
C 105.83 7.87 104.89 8.39 107.00 7.00
C 105.57 7.01 104.86 7.79 104.00 8.00 Z"/>
</g>
<g fill="None" fill-opacity="0.0" stroke="#6C9DAE" stroke-opacity="0.34" stroke-width="0.3"><path d="
M 154.00 8.00 
C 152.81 6.89 152.69 7.29 151.00 7.00
C 152.28 7.49 151.18 10.02 154.00 8.00 Z"/>
</g>
<g fill="None" fill-opacity="0.0" stroke="#5F8FB1" stroke-opacity="0.33" stroke-width="0.3"><path d="
M 158.00 9.00 
C 156.96 8.70 156.72 7.79 155.00 8.00
C 156.33 10.44 156.64 8.88 158.00 9.00 Z"/>
</g>
<g fill="None" fill-opacity="0.0" stroke="#185680" stroke-opacity="1.00" stroke-width="0.3"><path d="
M 145.00 9.00 
C 81.70 1.35 19.40 47.98 11.78 111.78 C 4.16 175.58 49.97 235.43 114.00 243.00 C 178.03 250.57 238.22 204.31 246.00 141.00 C 253.79 77.70 207.19 16.52 145.00 9.00
M 143.00 13.00 
C 188.44 17.33 226.99 53.67 238.98 98.02 C 250.96 142.38 231.96 199.12 189.30 223.30 C 146.65 247.49 90.59 245.17 53.25 211.75 C 15.91 178.34 3.69 124.01 24.92 78.92 C 46.16 33.84 93.06 8.24 143.00 13.00 Z"/>
</g>
<g fill="None" fill-opacity="0.0" stroke="#164771" stroke-opacity="1.00" stroke-width="0.3"><path d="
M 143.00 13.00 
C 93.06 8.24 46.16 33.84 24.92 78.92 C 3.69 124.01 15.91 178.34 53.25 211.75 C 90.59 245.17 146.65 247.49 189.30 223.30 C 231.96 199.12 250.96 142.38 238.98 98.02 C 226.99 53.67 188.44 17.33 143.00 13.00
M 174.00 63.00 
C 150.96 49.88 129.77 50.90 104.00 55.00
C 109.19 57.03 105.81 63.84 105.00 67.00
C 101.45 65.95 96.64 66.33 95.00 62.00
C 91.16 59.22 86.96 64.77 81.30 68.30 C 75.64 71.83 83.46 77.41 90.00 77.00
C 99.42 72.34 109.68 69.14 119.00 64.00
C 122.49 59.11 118.56 54.09 127.00 54.00 C 135.44 53.91 132.86 57.98 136.00 63.00
C 147.15 68.28 158.46 74.13 170.00 79.00
C 173.06 79.09 174.91 77.04 178.01 77.01 C 181.11 76.98 182.46 79.92 185.00 81.00
C 181.10 77.59 184.54 65.53 192.00 70.00 C 199.46 74.47 194.62 79.91 188.00 81.00
C 185.00 82.60 184.53 91.24 182.00 92.00
C 185.99 101.34 189.02 112.24 192.00 122.00
C 194.45 123.73 201.88 121.97 202.00 127.00
C 199.79 129.04 197.47 131.90 199.00 135.00
C 200.93 134.27 203.02 135.44 204.00 133.00
C 206.72 134.13 204.91 138.76 203.00 137.00
C 199.85 137.42 193.45 134.72 191.00 136.00
C 186.50 145.91 182.28 155.97 178.00 166.00
C 177.33 168.75 175.75 177.18 180.00 178.00
C 180.66 177.90 182.04 177.99 182.00 178.00
C 190.33 176.70 193.56 163.45 199.00 159.00
C 204.97 162.38 196.89 169.45 201.00 174.00
C 213.41 156.55 217.58 134.28 216.00 113.00
C 229.20 136.00 220.43 169.32 203.00 188.00
C 200.08 191.70 196.52 194.99 193.00 198.00
C 186.07 203.93 179.25 207.76 171.00 211.00
C 163.07 214.11 155.73 216.53 147.00 217.00
C 142.42 217.74 137.48 217.54 133.00 217.00
C 113.39 216.61 88.77 205.31 78.00 188.00
C 76.72 187.52 75.47 186.21 75.00 185.00
C 76.28 184.73 77.72 185.77 78.00 187.00
C 78.25 186.75 79.00 187.00 79.00 187.00
C 89.78 193.70 98.83 200.21 112.00 201.00
C 123.77 201.70 135.46 202.56 147.00 200.00
C 144.92 194.05 149.27 189.11 156.00 191.00
C 157.70 191.48 159.15 193.68 160.00 195.00
C 166.22 191.68 171.96 187.27 178.00 184.00
C 178.27 178.01 173.55 175.57 168.00 176.00
C 157.76 178.90 147.72 184.71 138.00 189.00
C 135.18 192.65 137.18 200.55 129.99 199.99 C 122.80 199.44 120.09 197.66 122.00 191.00
C 106.39 185.41 92.79 171.47 75.00 175.00
C 73.46 171.30 71.22 165.50 76.00 163.00
C 72.23 152.38 69.32 141.47 65.00 131.00
C 56.03 132.87 57.11 116.22 66.00 119.00
C 68.45 105.61 81.52 92.66 74.00 79.00
C 73.89 78.52 73.76 77.31 74.00 77.00
C 72.49 73.68 66.39 73.33 67.00 69.00
C 63.46 69.22 62.07 73.74 59.00 75.00
C 56.69 78.30 53.98 82.29 52.00 86.00
C 44.12 100.77 40.32 117.36 42.00 135.00
C 32.19 128.45 36.10 110.48 36.78 99.78 C 37.46 89.08 44.41 79.41 50.00 71.00
C 54.82 64.65 60.49 57.84 67.00 53.00
C 76.92 45.62 87.91 40.12 100.00 38.00
C 130.44 32.65 163.76 41.04 182.00 68.00
C 178.47 68.14 177.53 62.83 174.00 63.00
M 57.00 124.00 
C 54.66 126.05 50.23 123.94 48.00 127.00
C 44.94 121.07 53.79 125.02 57.00 124.00
M 71.00 187.00 
C 64.52 188.02 54.95 180.59 63.25 175.25 C 71.55 169.91 74.79 181.56 71.00 187.00 Z"/>
</g>
<g fill="None" fill-opacity="0.0" stroke="#74A2B5" stroke-opacity="0.22" stroke-width="0.3"><path d="
M 178.00 16.00 
C 176.16 15.18 174.12 13.78 172.00 13.00
C 173.98 14.04 175.49 15.26 178.00 16.00 Z"/>
</g>
<g fill="None" fill-opacity="0.0" stroke="#81A8B9" stroke-opacity="0.16" stroke-width="0.3"><path d="
M 199.00 28.00 
C 194.77 24.76 190.84 21.67 186.00 19.00
C 190.19 22.28 194.24 25.11 199.00 28.00 Z"/>
</g>
<g fill="None" fill-opacity="0.0" stroke="#71A2B7" stroke-opacity="0.16" stroke-width="0.3"><path d="
M 59.00 27.00 
C 62.88 24.82 66.47 22.73 70.00 20.00
C 66.15 22.21 62.55 24.54 59.00 27.00 Z"/>
</g>
<g fill="None" fill-opacity="0.0" stroke="#5692A8" stroke-opacity="0.20" stroke-width="0.3"><path d="
M 224.00 51.00 
C 222.61 48.15 219.10 45.45 217.00 43.00
C 215.08 41.08 212.88 38.88 211.00 37.00
C 208.75 35.08 206.38 32.88 204.00 31.00
C 210.71 37.20 216.37 45.67 224.00 51.00 Z"/>
</g>
<g fill="None" fill-opacity="0.0" stroke="#5E95AB" stroke-opacity="0.16" stroke-width="0.3"><path d="
M 31.00 54.00 
C 37.60 46.87 44.68 38.77 52.00 32.00
C 44.29 38.09 36.72 46.15 31.00 54.00 Z"/>
</g>
<g fill="None" fill-opacity="0.0" stroke="#36B8CA" stroke-opacity="1.00" stroke-width="0.3"><path d="
M 100.00 38.00 
C 98.06 39.94 101.41 41.77 101.00 44.00
C 103.00 44.00 105.00 44.00 107.00 44.00
C 134.03 37.71 153.80 48.28 174.00 63.00
C 177.53 62.83 178.47 68.14 182.00 68.00
C 163.76 41.04 130.44 32.65 100.00 38.00 Z"/>
</g>
<g fill="None" fill-opacity="0.0" stroke="#C6D4E2" stroke-opacity="0.01" stroke-width="0.3"><path d="
M 217.00 43.00 
C 215.15 40.83 213.22 38.90 211.00 37.00
C 212.88 38.88 215.08 41.08 217.00 43.00 Z"/>
</g>
<g fill="None" fill-opacity="0.0" stroke="#2D9FB7" stroke-opacity="1.00" stroke-width="0.3"><path d="
M 67.00 53.00 
C 63.92 55.69 61.66 59.44 60.00 63.00
C 66.65 69.74 74.16 56.77 82.00 54.00
C 83.01 53.47 84.06 53.45 85.00 53.00
C 92.08 49.65 99.44 45.76 107.00 44.00
C 105.00 44.00 103.00 44.00 101.00 44.00
C 101.41 41.77 98.06 39.94 100.00 38.00
C 87.91 40.12 76.92 45.62 67.00 53.00 Z"/>
</g>
<g fill="None" fill-opacity="0.0" stroke="#297695" stroke-opacity="1.00" stroke-width="0.3"><path d="
M 107.00 44.00 
C 99.44 45.76 92.08 49.65 85.00 53.00
C 86.71 52.64 88.56 53.34 90.00 52.00
C 88.21 54.89 90.50 57.09 91.00 60.00
C 92.28 58.70 93.65 59.22 95.00 60.00
C 95.00 53.94 99.75 55.68 104.00 55.00
C 129.77 50.90 150.96 49.88 174.00 63.00
C 153.80 48.28 134.03 37.71 107.00 44.00 Z"/>
</g>
<g fill="None" fill-opacity="0.0" stroke="#246384" stroke-opacity="1.00" stroke-width="0.3"><path d="
M 85.00 53.00 
C 84.06 53.45 83.01 53.47 82.00 54.00
C 74.26 59.41 64.71 66.84 59.00 75.00
C 62.07 73.74 63.46 69.22 67.00 69.00
C 66.39 73.33 72.49 73.68 74.00 77.00
C 76.44 73.82 75.11 75.91 74.00 73.00
C 78.85 71.62 81.27 86.32 90.00 77.00
C 83.46 77.41 75.64 71.83 81.30 68.30 C 86.96 64.77 91.16 59.22 95.00 62.00
C 94.85 61.55 95.00 60.50 95.00 60.00
C 93.65 59.22 92.28 58.70 91.00 60.00
C 90.50 57.09 88.21 54.89 90.00 52.00
C 88.56 53.34 86.71 52.64 85.00 53.00 Z"/>
</g>
<g fill="None" fill-opacity="0.0" stroke="#4C8A9C" stroke-opacity="0.13" stroke-width="0.3"><path d="
M 229.00 58.00 
C 227.57 55.71 226.34 53.52 224.00 52.00
C 225.43 54.29 226.66 56.48 229.00 58.00 Z"/>
</g>
<g fill="None" fill-opacity="0.0" stroke="#2580A0" stroke-opacity="1.00" stroke-width="0.3"><path d="
M 50.00 71.00 
C 45.66 78.08 39.87 86.26 45.00 94.00
C 48.85 93.48 48.67 87.57 52.00 86.00
C 53.98 82.29 56.69 78.30 59.00 75.00
C 64.71 66.84 74.26 59.41 82.00 54.00
C 74.16 56.77 66.65 69.74 60.00 63.00
C 61.66 59.44 63.92 55.69 67.00 53.00
C 60.49 57.84 54.82 64.65 50.00 71.00 Z"/>
</g>
<g fill="None" fill-opacity="0.0" stroke="#396283" stroke-opacity="1.00" stroke-width="0.3"><path d="
M 119.00 64.00 
C 122.92 61.84 122.68 61.38 125.75 57.75 C 128.83 54.13 131.54 60.78 133.00 62.00
C 134.01 62.51 135.07 62.56 136.00 63.00
C 132.86 57.98 135.44 53.91 127.00 54.00 C 118.56 54.09 122.49 59.11 119.00 64.00 Z"/>
</g>
<g fill="None" fill-opacity="0.0" stroke="#769DB6" stroke-opacity="1.00" stroke-width="0.3"><path d="
M 95.00 60.00 
C 95.00 60.50 94.85 61.55 95.00 62.00
C 96.64 66.33 101.45 65.95 105.00 67.00
C 105.81 63.84 109.19 57.03 104.00 55.00
C 99.75 55.68 95.00 53.94 95.00 60.00
M 104.00 57.00 
C 108.47 59.11 103.99 67.91 98.78 64.22 C 93.57 60.53 98.55 54.43 104.00 57.00 Z"/>
</g>
<g fill="None" fill-opacity="0.0" stroke="#315776" stroke-opacity="1.00" stroke-width="0.3"><path d="
M 104.00 57.00 
C 98.55 54.43 93.57 60.53 98.78 64.22 C 103.99 67.91 108.47 59.11 104.00 57.00
M 104.00 60.00 
C 98.39 62.88 96.31 58.04 104.00 60.00 Z"/>
</g>
<g fill="None" fill-opacity="0.0" stroke="#5B9FAE" stroke-opacity="1.00" stroke-width="0.3"><path d="
M 119.00 64.00 
C 109.68 69.14 99.42 72.34 90.00 77.00
C 81.27 86.32 78.85 71.62 74.00 73.00
C 75.11 75.91 76.44 73.82 74.00 77.00
C 73.76 77.31 73.89 78.52 74.00 79.00
C 75.20 78.56 75.75 77.28 77.00 77.00
C 78.74 79.38 80.56 81.80 80.00 85.00
C 87.98 84.01 93.70 94.55 101.00 98.00
C 104.01 95.43 107.08 98.61 106.00 102.00
C 112.64 97.89 122.29 102.57 130.00 101.00 C 137.71 99.43 147.22 102.66 155.00 102.00
C 155.27 104.70 156.14 105.03 159.00 106.00
C 157.43 121.13 156.15 136.76 152.00 151.00
C 156.01 148.86 158.30 158.23 152.00 157.00
C 151.90 156.98 149.98 155.95 150.00 156.00
C 148.66 157.59 157.17 157.70 158.22 158.78 C 159.27 159.86 162.19 162.99 164.08 163.92 C 165.98 164.85 169.05 167.83 171.00 169.00
C 165.46 171.74 171.69 172.74 175.00 173.00
C 176.64 170.93 175.44 167.38 178.00 166.00
C 182.28 155.97 186.50 145.91 191.00 136.00
C 191.58 134.73 192.18 133.11 193.00 132.00
C 189.08 132.00 191.15 129.12 190.00 127.00
C 187.64 122.62 180.43 118.22 176.75 115.25 C 173.07 112.28 167.82 105.12 163.00 104.00
C 161.75 103.71 160.22 104.37 159.00 104.00
C 155.94 103.07 156.14 94.04 152.08 91.92 C 148.02 89.79 145.29 83.16 139.00 85.00
C 147.98 83.19 140.06 78.50 137.25 73.75 C 134.43 69.01 129.87 63.93 125.00 62.00
C 123.48 56.07 129.43 58.73 131.00 61.00
C 131.34 61.49 132.52 61.76 133.00 62.00
C 131.54 60.78 128.83 54.13 125.75 57.75 C 122.68 61.38 122.92 61.84 119.00 64.00
M 97.00 82.00 
C 99.93 83.66 96.50 88.93 93.33 86.67 C 90.15 84.40 93.98 80.29 97.00 82.00
M 130.00 83.00 
C 132.67 84.42 130.51 90.46 127.32 88.66 C 124.13 86.86 126.92 81.35 130.00 83.00
M 172.00 141.00 
C 175.00 141.76 174.62 147.84 170.75 147.19 C 166.88 146.54 168.04 140.00 172.00 141.00 Z"/>
</g>
<g fill="None" fill-opacity="0.0" stroke="#E7F3F4" stroke-opacity="1.00" stroke-width="0.3"><path d="
M 125.00 62.00 
C 126.76 65.30 129.97 61.29 131.00 61.00
C 129.43 58.73 123.48 56.07 125.00 62.00 Z"/>
</g>
<g fill="None" fill-opacity="0.0" stroke="#7A9DB6" stroke-opacity="1.00" stroke-width="0.3"><path d="
M 104.00 60.00 
C 96.31 58.04 98.39 62.88 104.00 60.00 Z"/>
</g>
<g fill="None" fill-opacity="0.0" stroke="#699AB2" stroke-opacity="0.15" stroke-width="0.3"><path d="
M 234.00 66.00 
C 232.58 63.22 231.75 60.79 229.00 59.00
C 230.04 61.89 232.23 63.78 234.00 66.00 Z"/>
</g>
<g fill="None" fill-opacity="0.0" stroke="#53C4CC" stroke-opacity="1.00" stroke-width="0.3"><path d="
M 125.00 62.00 
C 129.87 63.93 134.43 69.01 137.25 73.75 C 140.06 78.50 147.98 83.19 139.00 85.00
C 145.29 83.16 148.02 89.79 152.08 91.92 C 156.14 94.04 155.94 103.07 159.00 104.00
C 156.23 102.62 158.36 98.02 161.03 98.03 C 163.69 98.04 165.65 102.68 163.00 104.00
C 167.82 105.12 173.07 112.28 176.75 115.25 C 180.43 118.22 187.64 122.62 190.00 127.00
C 189.89 126.98 193.19 125.70 193.00 126.00
C 192.07 124.56 192.47 123.53 192.00 122.00
C 189.02 112.24 185.99 101.34 182.00 92.00
C 181.68 91.24 181.17 91.18 181.00 90.00
C 180.59 88.98 179.86 88.60 180.00 87.00
C 179.07 85.83 172.16 85.60 175.00 81.00
C 173.05 80.82 171.48 79.63 170.00 79.00
C 158.46 74.13 147.15 68.28 136.00 63.00
C 135.07 62.56 134.01 62.51 133.00 62.00
C 132.52 61.76 131.34 61.49 131.00 61.00
C 129.97 61.29 126.76 65.30 125.00 62.00
M 149.00 86.00 
C 139.29 87.38 148.96 77.06 149.00 86.00 Z"/>
</g>
<g fill="None" fill-opacity="0.0" stroke="#5C99B2" stroke-opacity="0.21" stroke-width="0.3"><path d="
M 22.00 68.00 
C 23.11 66.50 24.12 65.77 25.00 64.00
C 24.20 65.26 22.86 66.45 22.00 68.00 Z"/>
</g>
<g fill="None" fill-opacity="0.0" stroke="#568F9F" stroke-opacity="0.15" stroke-width="0.3"><path d="
M 240.00 77.00 
C 238.63 73.83 236.85 70.71 235.00 68.00
C 235.59 70.52 238.36 73.99 240.00 77.00 Z"/>
</g>
<g fill="None" fill-opacity="0.0" stroke="#6C90AB" stroke-opacity="1.00" stroke-width="0.3"><path d="
M 185.00 81.00 
C 186.72 81.73 185.98 81.33 188.00 81.00
C 194.62 79.91 199.46 74.47 192.00 70.00 C 184.54 65.53 181.10 77.59 185.00 81.00
M 191.00 71.00 
C 196.56 72.43 193.69 81.86 187.99 79.99 C 182.29 78.12 185.41 69.56 191.00 71.00 Z"/>
</g>
<g fill="None" fill-opacity="0.0" stroke="#1D668B" stroke-opacity="1.00" stroke-width="0.3"><path d="
M 52.00 86.00 
C 48.67 87.57 48.85 93.48 45.00 94.00
C 39.87 86.26 45.66 78.08 50.00 71.00
C 44.41 79.41 37.46 89.08 36.78 99.78 C 36.10 110.48 32.19 128.45 42.00 135.00
C 40.32 117.36 44.12 100.77 52.00 86.00 Z"/>
</g>
<g fill="None" fill-opacity="0.0" stroke="#244E72" stroke-opacity="1.00" stroke-width="0.3"><path d="
M 191.00 71.00 
C 185.41 69.56 182.29 78.12 187.99 79.99 C 193.69 81.86 196.56 72.43 191.00 71.00
M 193.00 76.00 
C 191.67 77.47 187.26 77.71 186.00 76.00
C 187.33 74.53 191.74 74.29 193.00 76.00 Z"/>
</g>
<g fill="None" fill-opacity="0.0" stroke="#59809F" stroke-opacity="1.00" stroke-width="0.3"><path d="
M 193.00 76.00 
C 191.74 74.29 187.33 74.53 186.00 76.00
C 187.26 77.71 191.67 77.47 193.00 76.00 Z"/>
</g>
<g fill="None" fill-opacity="0.0" stroke="#518AA6" stroke-opacity="0.23" stroke-width="0.3"><path d="
M 16.00 81.00 
C 16.94 79.40 17.33 79.03 18.00 77.00
C 17.40 78.21 16.57 79.57 16.00 81.00 Z"/>
</g>
<g fill="None" fill-opacity="0.0" stroke="#426B84" stroke-opacity="1.00" stroke-width="0.3"><path d="
M 74.00 79.00 
C 81.52 92.66 68.45 105.61 66.00 119.00
C 57.11 116.22 56.03 132.87 65.00 131.00
C 69.32 141.47 72.23 152.38 76.00 163.00
C 71.22 165.50 73.46 171.30 75.00 175.00
C 92.79 171.47 106.39 185.41 122.00 191.00
C 120.09 197.66 122.80 199.44 129.99 199.99 C 137.18 200.55 135.18 192.65 138.00 189.00
C 134.10 190.72 131.99 197.29 127.33 195.67 C 122.66 194.04 126.73 187.53 123.00 185.00
C 124.57 185.96 126.25 187.32 127.00 189.00
C 127.14 188.78 128.50 188.97 129.00 189.00
C 136.50 187.34 137.45 173.58 143.00 169.00
C 139.39 168.29 136.51 170.23 133.00 170.00
C 132.09 171.83 132.66 174.74 131.00 176.00
C 134.67 169.17 123.75 170.12 128.00 166.00
C 117.65 165.34 110.97 158.36 102.00 155.00
C 104.04 160.86 110.60 163.25 111.00 168.00
C 104.84 164.81 103.37 156.35 97.00 155.00
C 96.50 154.98 96.00 155.00 96.00 155.00
C 93.50 154.63 93.48 148.12 90.00 146.00
C 92.90 148.38 91.18 152.16 93.00 155.00
C 87.78 164.73 78.30 167.22 76.02 155.98 C 73.75 144.73 68.11 140.12 67.00 129.00
C 71.86 133.18 77.37 135.57 82.00 140.00
C 80.37 144.31 81.19 149.32 81.00 154.00
C 82.48 150.63 82.66 146.02 83.00 142.00
C 85.31 141.55 86.07 144.53 88.00 145.00
C 89.35 145.53 94.00 145.90 96.00 148.00
C 93.20 137.63 88.63 127.72 87.00 117.00
C 79.43 118.68 82.48 106.29 88.00 111.00
C 88.50 105.79 90.78 98.69 93.00 93.00
C 95.41 94.11 96.62 96.96 99.00 98.00
C 98.34 103.59 92.79 105.49 90.00 110.00
C 93.25 108.86 96.79 106.66 99.00 104.00
C 99.04 103.94 100.53 99.96 101.00 99.00
C 101.07 98.51 101.00 98.00 101.00 98.00
C 93.70 94.55 87.98 84.01 80.00 85.00
C 80.56 81.80 78.74 79.38 77.00 77.00
C 75.75 77.28 75.20 78.56 74.00 79.00
M 67.00 127.00 
C 64.01 133.33 57.01 122.23 64.00 122.00
C 64.50 121.98 65.53 122.12 66.00 122.00
C 66.58 121.85 67.95 122.05 68.00 124.00
C 69.07 122.47 81.45 114.27 83.25 116.80 C 85.04 119.34 81.92 134.07 82.00 138.00
C 77.16 133.91 71.65 131.43 67.00 127.00
M 82.00 171.00 
C 79.12 173.84 75.91 170.21 77.00 167.00
C 78.58 162.34 85.51 167.54 82.00 171.00
M 115.00 176.00 
C 114.55 176.15 113.45 176.14 113.00 176.00
C 109.63 174.93 110.84 169.45 114.03 170.03 C 117.21 170.61 117.98 175.03 115.00 176.00 Z"/>
</g>
<g fill="None" fill-opacity="0.0" stroke="#3D6685" stroke-opacity="1.00" stroke-width="0.3"><path d="
M 170.00 79.00 
C 171.48 79.63 173.05 80.82 175.00 81.00
C 179.33 81.39 180.50 78.77 181.00 85.00
C 181.13 86.64 180.76 88.37 181.00 90.00
C 181.17 91.18 181.68 91.24 182.00 92.00
C 184.53 91.24 185.00 82.60 188.00 81.00
C 185.98 81.33 186.72 81.73 185.00 81.00
C 182.46 79.92 181.11 76.98 178.01 77.01 C 174.91 77.04 173.06 79.09 170.00 79.00 Z"/>
</g>
<g fill="None" fill-opacity="0.0" stroke="#C9E3E8" stroke-opacity="1.00" stroke-width="0.3"><path d="
M 175.00 81.00 
C 172.16 85.60 179.07 85.83 180.00 87.00
C 180.11 85.72 180.79 85.76 181.00 85.00
C 180.50 78.77 179.33 81.39 175.00 81.00 Z"/>
</g>
<g fill="None" fill-opacity="0.0" stroke="#CEE8ED" stroke-opacity="1.00" stroke-width="0.3"><path d="
M 97.00 82.00 
C 93.98 80.29 90.15 84.40 93.33 86.67 C 96.50 88.93 99.93 83.66 97.00 82.00 Z"/>
</g>
<g fill="None" fill-opacity="0.0" stroke="#DFF5F6" stroke-opacity="1.00" stroke-width="0.3"><path d="
M 149.00 86.00 
C 148.96 77.06 139.29 87.38 149.00 86.00 Z"/>
</g>
<g fill="None" fill-opacity="0.0" stroke="#E0F0F2" stroke-opacity="1.00" stroke-width="0.3"><path d="
M 130.00 83.00 
C 126.92 81.35 124.13 86.86 127.32 88.66 C 130.51 90.46 132.67 84.42 130.00 83.00 Z"/>
</g>
<g fill="None" fill-opacity="0.0" stroke="#5D95AC" stroke-opacity="1.00" stroke-width="0.3"><path d="
M 180.00 87.00 
C 179.86 88.60 180.59 88.98 181.00 90.00
C 180.76 88.37 181.13 86.64 181.00 85.00
C 180.79 85.76 180.11 85.72 180.00 87.00 Z"/>
</g>
<g fill="None" fill-opacity="0.0" stroke="#85ACBD" stroke-opacity="0.20" stroke-width="0.3"><path d="
M 12.00 93.00 
C 12.81 90.97 13.41 89.46 14.00 87.00
C 13.37 88.78 12.58 90.90 12.00 93.00 Z"/>
</g>
<g fill="None" fill-opacity="0.0" stroke="#4E6578" stroke-opacity="1.00" stroke-width="0.3"><path d="
M 88.00 111.00 
C 87.95 111.50 88.00 112.00 88.00 112.00
C 88.00 113.00 88.00 114.00 88.00 115.00
C 88.00 115.50 88.00 116.00 88.00 116.00
C 88.24 126.47 95.27 135.84 97.00 146.00
C 96.74 131.75 98.99 118.09 102.00 104.00
C 101.00 104.00 100.00 104.00 99.00 104.00
C 96.79 106.66 93.25 108.86 90.00 110.00
C 92.79 105.49 98.34 103.59 99.00 98.00
C 96.62 96.96 95.41 94.11 93.00 93.00
C 90.78 98.69 88.50 105.79 88.00 111.00 Z"/>
</g>
<g fill="None" fill-opacity="0.0" stroke="#D4E7EC" stroke-opacity="1.00" stroke-width="0.3"><path d="
M 101.00 98.00 
C 101.00 98.00 101.07 98.51 101.00 99.00
C 100.67 101.44 102.21 103.80 105.00 103.00
C 105.24 102.93 105.68 102.20 106.00 102.00
C 107.08 98.61 104.01 95.43 101.00 98.00 Z"/>
</g>
<g fill="None" fill-opacity="0.0" stroke="#C9EDEF" stroke-opacity="1.00" stroke-width="0.3"><path d="
M 159.00 104.00 
C 160.22 104.37 161.75 103.71 163.00 104.00
C 165.65 102.68 163.69 98.04 161.03 98.03 C 158.36 98.02 156.23 102.62 159.00 104.00
M 163.00 103.00 
C 154.49 104.41 163.45 94.47 163.00 103.00 Z"/>
</g>
<g fill="None" fill-opacity="0.0" stroke="#627583" stroke-opacity="1.00" stroke-width="0.3"><path d="
M 99.00 104.00 
C 100.00 104.00 101.00 104.00 102.00 104.00
C 98.99 118.09 96.74 131.75 97.00 146.00
C 95.27 135.84 88.24 126.47 88.00 116.00
C 87.88 116.26 87.04 116.65 87.00 117.00
C 88.63 127.72 93.20 137.63 96.00 148.00
C 94.00 145.90 89.35 145.53 88.00 145.00
C 88.63 145.43 89.38 145.62 90.00 146.00
C 93.48 148.12 93.50 154.63 96.00 155.00
C 94.13 152.78 95.06 147.50 99.01 149.01 C 102.95 150.51 100.57 155.12 97.00 155.00
C 103.37 156.35 104.84 164.81 111.00 168.00
C 110.60 163.25 104.04 160.86 102.00 155.00
C 110.97 158.36 117.65 165.34 128.00 166.00
C 123.75 170.12 134.67 169.17 131.00 176.00
C 132.66 174.74 132.09 171.83 133.00 170.00
C 131.41 170.43 129.66 169.52 129.08 166.92 C 128.50 164.32 132.34 164.53 134.00 164.00
C 135.70 163.46 137.43 163.03 139.00 162.00
C 131.81 170.39 149.00 166.92 149.00 159.00
C 148.67 159.32 141.68 160.71 140.00 162.00
C 142.20 159.17 146.00 157.96 149.00 156.00
C 136.86 151.00 119.59 156.49 107.00 152.00
C 115.91 151.95 110.33 147.18 107.00 143.00
C 104.59 144.11 103.38 146.96 101.00 148.00
C 107.12 142.56 104.26 136.60 103.02 129.98 C 101.79 123.35 106.44 115.31 111.00 112.00
C 111.55 110.18 109.25 109.53 109.00 108.00
C 108.09 106.89 105.90 104.27 105.00 103.00
C 102.21 103.80 100.67 101.44 101.00 99.00
C 100.53 99.96 99.04 103.94 99.00 104.00 Z"/>
</g>
<g fill="None" fill-opacity="0.0" stroke="#F6FBFA" stroke-opacity="1.00" stroke-width="0.3"><path d="
M 163.00 103.00 
C 163.45 94.47 154.49 104.41 163.00 103.00 Z"/>
</g>
<g fill="None" fill-opacity="0.0" stroke="#7898A0" stroke-opacity="1.00" stroke-width="0.3"><path d="
M 106.00 102.00 
C 105.68 102.20 105.24 102.93 105.00 103.00
C 105.90 104.27 108.09 106.89 109.00 108.00
C 110.82 110.21 114.05 111.98 116.00 114.00
C 115.24 110.93 122.84 108.48 127.02 107.02 C 131.21 105.57 139.36 108.56 144.00 109.00
C 145.12 115.17 153.52 123.29 149.67 130.67 C 145.82 138.05 142.55 142.91 148.00 149.00
C 149.12 151.81 149.99 152.60 150.00 156.00
C 149.98 155.95 151.90 156.98 152.00 157.00
C 151.92 157.13 151.71 151.99 152.00 151.00
C 156.15 136.76 157.43 121.13 159.00 106.00
C 156.14 105.03 155.27 104.70 155.00 102.00
C 147.22 102.66 137.71 99.43 130.00 101.00 C 122.29 102.57 112.64 97.89 106.00 102.00 Z"/>
</g>
<g fill="None" fill-opacity="0.0" stroke="#91A3A6" stroke-opacity="1.00" stroke-width="0.3"><path d="
M 116.00 114.00 
C 117.10 115.14 118.00 116.84 119.00 118.00
C 119.21 118.25 120.00 118.00 120.00 118.00
C 122.03 113.54 132.72 117.18 136.00 113.00
C 132.76 117.64 139.81 119.07 140.97 124.03 C 142.13 128.99 138.45 133.34 139.00 138.00
C 136.96 137.19 136.03 134.73 134.00 134.00
C 136.23 136.61 138.63 139.63 141.00 142.00
C 143.30 144.30 146.30 146.44 148.00 149.00
C 142.55 142.91 145.82 138.05 149.67 130.67 C 153.52 123.29 145.12 115.17 144.00 109.00
C 139.36 108.56 131.21 105.57 127.02 107.02 C 122.84 108.48 115.24 110.93 116.00 114.00 Z"/>
</g>
<g fill="None" fill-opacity="0.0" stroke="#788089" stroke-opacity="1.00" stroke-width="0.3"><path d="
M 149.00 159.00 
C 149.31 158.23 150.00 156.59 150.00 156.00
C 149.99 152.60 149.12 151.81 148.00 149.00
C 146.30 146.44 143.30 144.30 141.00 142.00
C 140.46 148.10 128.31 145.41 123.77 144.23 C 119.24 143.05 115.22 133.23 111.00 135.00
C 113.11 129.16 120.85 125.43 119.00 118.00
C 118.00 116.84 117.10 115.14 116.00 114.00
C 114.05 111.98 110.82 110.21 109.00 108.00
C 109.25 109.53 111.55 110.18 111.00 112.00
C 106.44 115.31 101.79 123.35 103.02 129.98 C 104.26 136.60 107.12 142.56 101.00 148.00
C 103.38 146.96 104.59 144.11 107.00 143.00
C 110.33 147.18 115.91 151.95 107.00 152.00
C 119.59 156.49 136.86 151.00 149.00 156.00
C 146.00 157.96 142.20 159.17 140.00 162.00
C 141.68 160.71 148.67 159.32 149.00 159.00 Z"/>
</g>
<g fill="None" fill-opacity="0.0" stroke="#7699A6" stroke-opacity="1.00" stroke-width="0.3"><path d="
M 87.00 117.00 
C 87.04 116.65 87.88 116.26 88.00 116.00
C 88.00 116.00 88.00 115.50 88.00 115.00
C 81.91 118.82 81.93 108.19 88.00 112.00
C 88.00 112.00 87.95 111.50 88.00 111.00
C 82.48 106.29 79.43 118.68 87.00 117.00 Z"/>
</g>
<g fill="None" fill-opacity="0.0" stroke="#D7E8ED" stroke-opacity="1.00" stroke-width="0.3"><path d="
M 88.00 115.00 
C 88.00 114.00 88.00 113.00 88.00 112.00
C 81.93 108.19 81.91 118.82 88.00 115.00 Z"/>
</g>
<g fill="None" fill-opacity="0.0" stroke="#AFB1AC" stroke-opacity="1.00" stroke-width="0.3"><path d="
M 120.00 118.00 
C 119.71 119.62 120.22 121.37 120.00 123.00
C 126.27 122.83 129.92 130.12 134.00 134.00
C 136.03 134.73 136.96 137.19 139.00 138.00
C 138.45 133.34 142.13 128.99 140.97 124.03 C 139.81 119.07 132.76 117.64 136.00 113.00
C 132.72 117.18 122.03 113.54 120.00 118.00
M 121.00 122.00 
C 119.59 113.49 129.53 122.45 121.00 122.00 Z"/>
</g>
<g fill="None" fill-opacity="0.0" stroke="#236689" stroke-opacity="1.00" stroke-width="0.3"><path d="
M 182.00 178.00 
C 182.41 179.32 179.85 181.40 181.00 183.00
C 177.09 182.88 179.08 178.10 176.00 176.00
C 172.79 174.70 170.80 175.21 168.00 176.00
C 173.55 175.57 178.27 178.01 178.00 184.00
C 171.96 187.27 166.22 191.68 160.00 195.00
C 159.15 193.68 157.70 191.48 156.00 191.00
C 156.59 191.23 158.84 194.34 159.00 195.00
C 160.01 199.24 157.96 200.47 155.00 202.00
C 153.09 202.99 150.51 204.01 148.00 204.00
C 147.72 202.72 148.76 200.50 147.00 200.00
C 135.46 202.56 123.77 201.70 112.00 201.00
C 122.45 202.49 133.80 203.74 145.00 202.00
C 145.74 203.94 145.68 205.98 145.00 208.00
C 147.67 208.00 150.33 208.00 153.00 208.00
C 156.74 207.07 160.12 205.58 164.00 205.00
C 170.80 202.20 178.74 197.08 185.00 193.00
C 194.41 185.79 200.16 173.47 209.00 167.00
C 209.90 174.78 209.65 181.87 203.00 188.00
C 220.43 169.32 229.20 136.00 216.00 113.00
C 217.58 134.28 213.41 156.55 201.00 174.00
C 196.89 169.45 204.97 162.38 199.00 159.00
C 193.56 163.45 190.33 176.70 182.00 178.00 Z"/>
</g>
<g fill="None" fill-opacity="0.0" stroke="#4A869B" stroke-opacity="0.11" stroke-width="0.3"><path d="
M 250.00 121.00 
C 250.00 118.18 249.26 115.16 249.00 113.00
C 249.05 115.73 249.80 118.93 250.00 121.00 Z"/>
</g>
<g fill="None" fill-opacity="0.0" stroke="#5E8CA0" stroke-opacity="0.12" stroke-width="0.3"><path d="
M 8.00 137.00 
C 8.00 129.34 7.85 121.66 8.00 114.00
C 7.13 121.19 7.30 129.76 8.00 137.00 Z"/>
</g>
<g fill="None" fill-opacity="0.0" stroke="#345873" stroke-opacity="1.00" stroke-width="0.3"><path d="
M 68.00 124.00 
C 67.76 124.34 67.29 125.56 67.00 126.00
C 66.96 126.50 67.00 127.00 67.00 127.00
C 71.65 131.43 77.16 133.91 82.00 138.00
C 81.92 134.07 85.04 119.34 83.25 116.80 C 81.45 114.27 69.07 122.47 68.00 124.00 Z"/>
</g>
<g fill="None" fill-opacity="0.0" stroke="#959191" stroke-opacity="1.00" stroke-width="0.3"><path d="
M 141.00 142.00 
C 138.63 139.63 136.23 136.61 134.00 134.00
C 129.92 130.12 126.27 122.83 120.00 123.00
C 120.22 121.37 119.71 119.62 120.00 118.00
C 120.00 118.00 119.21 118.25 119.00 118.00
C 120.85 125.43 113.11 129.16 111.00 135.00
C 115.22 133.23 119.24 143.05 123.77 144.23 C 128.31 145.41 140.46 148.10 141.00 142.00 Z"/>
</g>
<g fill="None" fill-opacity="0.0" stroke="#F1F4F1" stroke-opacity="1.00" stroke-width="0.3"><path d="
M 121.00 122.00 
C 129.53 122.45 119.59 113.49 121.00 122.00 Z"/>
</g>
<g fill="None" fill-opacity="0.0" stroke="#77A3B6" stroke-opacity="1.00" stroke-width="0.3"><path d="
M 66.00 122.00 
C 67.07 122.45 67.06 125.12 67.00 126.00
C 67.29 125.56 67.76 124.34 68.00 124.00
C 67.95 122.05 66.58 121.85 66.00 122.00 Z"/>
</g>
<g fill="None" fill-opacity="0.0" stroke="#789BAE" stroke-opacity="1.00" stroke-width="0.3"><path d="
M 67.00 127.00 
C 62.88 130.52 59.90 123.57 64.00 122.00
C 57.01 122.23 64.01 133.33 67.00 127.00 Z"/>
</g>
<g fill="None" fill-opacity="0.0" stroke="#D5E7EF" stroke-opacity="1.00" stroke-width="0.3"><path d="
M 67.00 127.00 
C 67.00 127.00 66.96 126.50 67.00 126.00
C 67.06 125.12 67.07 122.45 66.00 122.00
C 65.53 122.12 64.50 121.98 64.00 122.00
C 59.90 123.57 62.88 130.52 67.00 127.00 Z"/>
</g>
<g fill="None" fill-opacity="0.0" stroke="#3F6A8A" stroke-opacity="1.00" stroke-width="0.3"><path d="
M 193.00 126.00 
C 193.87 127.35 196.07 126.01 195.97 129.03 C 195.88 132.05 194.08 130.54 193.00 132.00
C 192.18 133.11 191.58 134.73 191.00 136.00
C 193.45 134.72 199.85 137.42 203.00 137.00
C 201.56 137.01 198.18 134.93 196.00 136.00
C 196.26 134.61 198.05 135.22 199.00 135.00
C 197.47 131.90 199.79 129.04 202.00 127.00
C 201.88 121.97 194.45 123.73 192.00 122.00
C 192.47 123.53 192.07 124.56 193.00 126.00 Z"/>
</g>
<g fill="None" fill-opacity="0.0" stroke="#7191AB" stroke-opacity="1.00" stroke-width="0.3"><path d="
M 57.00 124.00 
C 53.79 125.02 44.94 121.07 48.00 127.00
C 50.23 123.94 54.66 126.05 57.00 124.00 Z"/>
</g>
<g fill="None" fill-opacity="0.0" stroke="#B3D8E3" stroke-opacity="1.00" stroke-width="0.3"><path d="
M 190.00 127.00 
C 191.15 129.12 189.08 132.00 193.00 132.00
C 194.08 130.54 195.88 132.05 195.97 129.03 C 196.07 126.01 193.87 127.35 193.00 126.00
C 193.19 125.70 189.89 126.98 190.00 127.00
M 195.00 131.00 
C 186.49 132.41 195.45 122.47 195.00 131.00 Z"/>
</g>
<g fill="None" fill-opacity="0.0" stroke="#F1FAFA" stroke-opacity="1.00" stroke-width="0.3"><path d="
M 195.00 131.00 
C 195.45 122.47 186.49 132.41 195.00 131.00 Z"/>
</g>
<g fill="None" fill-opacity="0.0" stroke="#365B76" stroke-opacity="1.00" stroke-width="0.3"><path d="
M 90.00 146.00 
C 89.38 145.62 88.63 145.43 88.00 145.00
C 86.07 144.53 85.31 141.55 83.00 142.00
C 82.66 146.02 82.48 150.63 81.00 154.00
C 81.19 149.32 80.37 144.31 82.00 140.00
C 77.37 135.57 71.86 133.18 67.00 129.00
C 68.11 140.12 73.75 144.73 76.02 155.98 C 78.30 167.22 87.78 164.73 93.00 155.00
C 91.18 152.16 92.90 148.38 90.00 146.00 Z"/>
</g>
<g fill="None" fill-opacity="0.0" stroke="#7698B0" stroke-opacity="1.00" stroke-width="0.3"><path d="
M 199.00 135.00 
C 198.05 135.22 196.26 134.61 196.00 136.00
C 198.18 134.93 201.56 137.01 203.00 137.00
C 204.91 138.76 206.72 134.13 204.00 133.00
C 203.02 135.44 200.93 134.27 199.00 135.00 Z"/>
</g>
<g fill="None" fill-opacity="0.0" stroke="#6694A4" stroke-opacity="0.08" stroke-width="0.3"><path d="
M 249.00 141.00 
C 249.26 139.17 249.95 136.52 250.00 134.00
C 249.84 135.64 249.14 138.68 249.00 141.00 Z"/>
</g>
<g fill="None" fill-opacity="0.0" stroke="#A4D2D8" stroke-opacity="1.00" stroke-width="0.3"><path d="
M 172.00 141.00 
C 168.04 140.00 166.88 146.54 170.75 147.19 C 174.62 147.84 175.00 141.76 172.00 141.00
M 173.00 146.00 
C 164.49 147.41 173.45 137.47 173.00 146.00 Z"/>
</g>
<g fill="None" fill-opacity="0.0" stroke="#ECF8FA" stroke-opacity="1.00" stroke-width="0.3"><path d="
M 173.00 146.00 
C 173.45 137.47 164.49 147.41 173.00 146.00 Z"/>
</g>
<g fill="None" fill-opacity="0.0" stroke="#D0DEE3" stroke-opacity="1.00" stroke-width="0.3"><path d="
M 96.00 155.00 
C 96.00 155.00 96.50 154.98 97.00 155.00
C 100.57 155.12 102.95 150.51 99.01 149.01 C 95.06 147.50 94.13 152.78 96.00 155.00 Z"/>
</g>
<g fill="None" fill-opacity="0.0" stroke="#DCEDEF" stroke-opacity="1.00" stroke-width="0.3"><path d="
M 152.00 157.00 
C 158.30 158.23 156.01 148.86 152.00 151.00
C 151.71 151.99 151.92 157.13 152.00 157.00 Z"/>
</g>
<g fill="None" fill-opacity="0.0" stroke="#4C7D94" stroke-opacity="1.00" stroke-width="0.3"><path d="
M 149.00 159.00 
C 149.00 166.92 131.81 170.39 139.00 162.00
C 137.43 163.03 135.70 163.46 134.00 164.00
C 135.81 165.02 134.59 169.56 133.00 170.00
C 136.51 170.23 139.39 168.29 143.00 169.00
C 137.45 173.58 136.50 187.34 129.00 189.00
C 130.39 189.08 131.58 189.52 132.00 191.00
C 133.43 195.96 124.92 196.51 126.00 191.00
C 126.09 190.55 126.77 189.37 127.00 189.00
C 126.25 187.32 124.57 185.96 123.00 185.00
C 126.73 187.53 122.66 194.04 127.33 195.67 C 131.99 197.29 134.10 190.72 138.00 189.00
C 147.72 184.71 157.76 178.90 168.00 176.00
C 170.80 175.21 172.79 174.70 176.00 176.00
C 178.26 176.92 178.24 178.26 180.00 178.00
C 175.75 177.18 177.33 168.75 178.00 166.00
C 175.44 167.38 176.64 170.93 175.00 173.00
C 171.69 172.74 165.46 171.74 171.00 169.00
C 169.05 167.83 165.98 164.85 164.08 163.92 C 162.19 162.99 159.27 159.86 158.22 158.78 C 157.17 157.70 148.66 157.59 150.00 156.00
C 150.00 156.59 149.31 158.23 149.00 159.00 Z"/>
</g>
<g fill="None" fill-opacity="0.0" stroke="#ACC3C9" stroke-opacity="1.00" stroke-width="0.3"><path d="
M 133.00 170.00 
C 134.59 169.56 135.81 165.02 134.00 164.00
C 132.34 164.53 128.50 164.32 129.08 166.92 C 129.66 169.52 131.41 170.43 133.00 170.00
M 134.00 165.00 
C 134.55 173.07 125.89 164.51 134.00 165.00 Z"/>
</g>
<g fill="None" fill-opacity="0.0" stroke="#80A7B9" stroke-opacity="1.00" stroke-width="0.3"><path d="
M 77.00 167.00 
C 78.88 163.68 83.68 168.03 82.00 171.00
C 85.51 167.54 78.58 162.34 77.00 167.00 Z"/>
</g>
<g fill="None" fill-opacity="0.0" stroke="#EBF5F7" stroke-opacity="1.00" stroke-width="0.3"><path d="
M 134.00 165.00 
C 125.89 164.51 134.55 173.07 134.00 165.00 Z"/>
</g>
<g fill="None" fill-opacity="0.0" stroke="#CEE3EC" stroke-opacity="1.00" stroke-width="0.3"><path d="
M 77.00 167.00 
C 75.91 170.21 79.12 173.84 82.00 171.00
C 83.68 168.03 78.88 163.68 77.00 167.00 Z"/>
</g>
<g fill="None" fill-opacity="0.0" stroke="#2783A2" stroke-opacity="1.00" stroke-width="0.3"><path d="
M 185.00 193.00 
C 188.02 191.03 189.04 189.12 192.08 187.08 C 195.12 185.05 196.10 190.77 199.00 189.00
C 199.66 193.18 194.39 194.68 193.00 198.00
C 196.52 194.99 200.08 191.70 203.00 188.00
C 209.65 181.87 209.90 174.78 209.00 167.00
C 200.16 173.47 194.41 185.79 185.00 193.00 Z"/>
</g>
<g fill="None" fill-opacity="0.0" stroke="#85A1AE" stroke-opacity="1.00" stroke-width="0.3"><path d="
M 113.00 176.00 
C 111.59 174.85 112.18 172.54 112.00 171.00
C 115.26 170.01 117.14 173.73 115.00 176.00
C 117.98 175.03 117.21 170.61 114.03 170.03 C 110.84 169.45 109.63 174.93 113.00 176.00 Z"/>
</g>
<g fill="None" fill-opacity="0.0" stroke="#DBEBEF" stroke-opacity="1.00" stroke-width="0.3"><path d="
M 113.00 176.00 
C 113.45 176.14 114.55 176.15 115.00 176.00
C 117.14 173.73 115.26 170.01 112.00 171.00
C 112.18 172.54 111.59 174.85 113.00 176.00 Z"/>
</g>
<g fill="None" fill-opacity="0.0" stroke="#658AA6" stroke-opacity="1.00" stroke-width="0.3"><path d="
M 71.00 187.00 
C 74.79 181.56 71.55 169.91 63.25 175.25 C 54.95 180.59 64.52 188.02 71.00 187.00
M 69.00 176.00 
C 73.79 178.20 69.40 186.70 64.33 183.67 C 59.26 180.64 63.95 173.68 69.00 176.00 Z"/>
</g>
<g fill="None" fill-opacity="0.0" stroke="#1E466B" stroke-opacity="1.00" stroke-width="0.3"><path d="
M 69.00 176.00 
C 63.95 173.68 59.26 180.64 64.33 183.67 C 69.40 186.70 73.79 178.20 69.00 176.00
M 70.00 180.00 
C 68.67 181.47 64.26 181.71 63.00 180.00
C 64.33 178.53 68.74 178.29 70.00 180.00 Z"/>
</g>
<g fill="None" fill-opacity="0.0" stroke="#7B9FB9" stroke-opacity="1.00" stroke-width="0.3"><path d="
M 182.00 178.00 
C 182.04 177.99 180.66 177.90 180.00 178.00
C 178.24 178.26 178.26 176.92 176.00 176.00
C 179.08 178.10 177.09 182.88 181.00 183.00
C 179.85 181.40 182.41 179.32 182.00 178.00 Z"/>
</g>
<g fill="None" fill-opacity="0.0" stroke="#5F87A3" stroke-opacity="1.00" stroke-width="0.3"><path d="
M 70.00 180.00 
C 68.74 178.29 64.33 178.53 63.00 180.00
C 64.26 181.71 68.67 181.47 70.00 180.00 Z"/>
</g>
<g fill="None" fill-opacity="0.0" stroke="#538CA5" stroke-opacity="0.29" stroke-width="0.3"><path d="
M 24.00 189.00 
C 24.44 189.43 25.65 189.62 26.00 190.00
C 24.75 187.90 23.47 186.81 22.00 185.00
C 22.75 186.31 23.24 187.68 24.00 189.00 Z"/>
</g>
<g fill="None" fill-opacity="0.0" stroke="#3184A2" stroke-opacity="1.00" stroke-width="0.3"><path d="
M 78.00 188.00 
C 77.78 187.64 78.00 187.00 78.00 187.00
C 77.72 185.77 76.28 184.73 75.00 185.00
C 75.47 186.21 76.72 187.52 78.00 188.00 Z"/>
</g>
<g fill="None" fill-opacity="0.0" stroke="#2C99B2" stroke-opacity="1.00" stroke-width="0.3"><path d="
M 185.00 193.00 
C 178.74 197.08 170.80 202.20 164.00 205.00
C 165.76 204.74 167.52 205.27 169.00 204.00
C 169.36 206.92 171.97 208.71 171.00 211.00
C 179.25 207.76 186.07 203.93 193.00 198.00
C 194.39 194.68 199.66 193.18 199.00 189.00
C 196.10 190.77 195.12 185.05 192.08 187.08 C 189.04 189.12 188.02 191.03 185.00 193.00 Z"/>
</g>
<g fill="None" fill-opacity="0.0" stroke="#35B7C9" stroke-opacity="1.00" stroke-width="0.3"><path d="
M 78.00 188.00 
C 88.77 205.31 113.39 216.61 133.00 217.00
C 137.62 217.09 142.38 217.25 147.00 217.00
C 155.73 216.53 163.07 214.11 171.00 211.00
C 171.97 208.71 169.36 206.92 169.00 204.00
C 167.52 205.27 165.76 204.74 164.00 205.00
C 160.12 205.58 156.74 207.07 153.00 208.00
C 129.02 213.94 94.72 209.49 79.00 187.00
C 79.00 187.00 78.25 186.75 78.00 187.00
C 78.00 187.00 77.78 187.64 78.00 188.00 Z"/>
</g>
<g fill="None" fill-opacity="0.0" stroke="#2B83A0" stroke-opacity="1.00" stroke-width="0.3"><path d="
M 153.00 208.00 
C 150.33 208.00 147.67 208.00 145.00 208.00
C 145.68 205.98 145.74 203.94 145.00 202.00
C 133.80 203.74 122.45 202.49 112.00 201.00
C 98.83 200.21 89.78 193.70 79.00 187.00
C 94.72 209.49 129.02 213.94 153.00 208.00 Z"/>
</g>
<g fill="None" fill-opacity="0.0" stroke="#689EAF" stroke-opacity="0.11" stroke-width="0.3"><path d="
M 34.00 202.00 
C 31.37 197.92 28.48 194.18 26.00 190.00
C 25.65 189.62 24.44 189.43 24.00 189.00
C 26.83 193.93 30.46 197.69 34.00 202.00 Z"/>
</g>
<g fill="None" fill-opacity="0.0" stroke="#91BBCA" stroke-opacity="1.00" stroke-width="0.3"><path d="
M 126.00 191.00 
C 126.75 191.48 130.70 188.56 132.00 191.00
C 131.58 189.52 130.39 189.08 129.00 189.00
C 128.50 188.97 127.14 188.78 127.00 189.00
C 126.77 189.37 126.09 190.55 126.00 191.00 Z"/>
</g>
<g fill="None" fill-opacity="0.0" stroke="#DAEDF3" stroke-opacity="1.00" stroke-width="0.3"><path d="
M 126.00 191.00 
C 124.92 196.51 133.43 195.96 132.00 191.00
C 130.70 188.56 126.75 191.48 126.00 191.00 Z"/>
</g>
<g fill="None" fill-opacity="0.0" stroke="#5B89A1" stroke-opacity="1.00" stroke-width="0.3"><path d="
M 147.00 200.00 
C 148.76 200.50 147.72 202.72 148.00 204.00
C 150.51 204.01 153.09 202.99 155.00 202.00
C 153.15 202.63 150.80 201.98 149.00 203.00
C 149.08 198.89 158.79 201.96 159.00 195.00
C 158.84 194.34 156.59 191.23 156.00 191.00
C 149.27 189.11 144.92 194.05 147.00 200.00
M 157.00 196.00 
C 153.47 195.79 150.00 195.41 149.00 199.00
C 144.75 193.54 156.84 188.48 157.00 196.00 Z"/>
</g>
<g fill="None" fill-opacity="0.0" stroke="#2C5477" stroke-opacity="1.00" stroke-width="0.3"><path d="
M 157.00 196.00 
C 156.84 188.48 144.75 193.54 149.00 199.00
C 150.00 195.41 153.47 195.79 157.00 196.00 Z"/>
</g>
<g fill="None" fill-opacity="0.0" stroke="#7EB1C3" stroke-opacity="1.00" stroke-width="0.3"><path d="
M 155.00 202.00 
C 157.96 200.47 160.01 199.24 159.00 195.00
C 158.79 201.96 149.08 198.89 149.00 203.00
C 150.80 201.98 153.15 202.63 155.00 202.00 Z"/>
</g>
<g fill="None" fill-opacity="0.0" stroke="#E8E8E8" stroke-opacity="0.00" stroke-width="0.3"><path d="
M 212.00 215.00 
C 214.17 213.15 216.10 211.22 218.00 209.00
C 216.12 210.88 213.92 213.08 212.00 215.00 Z"/>
</g>
<g fill="None" fill-opacity="0.0" stroke="#1F7897" stroke-opacity="1.00" stroke-width="0.3"><path d="
M 147.00 217.00 
C 142.38 217.25 137.62 217.09 133.00 217.00
C 137.48 217.54 142.42 217.74 147.00 217.00 Z"/>
</g>
<g fill="None" fill-opacity="0.0" stroke="#568BA5" stroke-opacity="0.21" stroke-width="0.3"><path d="
M 70.00 233.00 
C 68.50 231.89 67.77 230.88 66.00 230.00
C 67.26 230.80 68.45 232.14 70.00 233.00 Z"/>
</g>
<g fill="None" fill-opacity="0.0" stroke="#5D91A6" stroke-opacity="0.24" stroke-width="0.3"><path d="
M 187.00 233.00 
C 188.70 232.02 190.47 230.96 192.00 230.00
C 189.73 231.08 188.44 231.95 187.00 233.00 Z"/>
</g>
<g fill="None" fill-opacity="0.0" stroke="#588AA3" stroke-opacity="0.13" stroke-width="0.3"><path d="
M 140.00 247.00 
C 132.67 247.00 125.33 247.00 118.00 247.00
C 124.85 247.66 133.08 247.67 140.00 247.00 Z"/>
</g>
<g fill="#000000" fill-opacity="0.00" stroke="None">
<path d="
M 0.00 256.00 
L 256.00 256.00
L 256.00 0.00
L 0.00 0.00
L 0.00 256.00
M 141.00 6.00 
C 144.62 6.07 147.57 6.42 151.00 7.00
C 152.69 7.29 152.81 6.89 154.00 8.00
C 154.33 7.76 155.00 8.00 155.00 8.00
C 156.72 7.79 156.96 8.70 158.00 9.00
C 162.74 10.35 167.29 11.26 172.00 13.00
C 174.12 13.78 176.16 15.18 178.00 16.00
C 180.88 16.85 183.27 17.49 186.00 19.00
C 190.84 21.67 194.77 24.76 199.00 28.00
C 200.55 28.94 202.42 29.75 204.00 31.00
C 206.38 32.88 208.75 35.08 211.00 37.00
C 213.22 38.90 215.15 40.83 217.00 43.00
C 219.10 45.45 222.61 48.15 224.00 51.00
C 224.20 51.40 224.00 52.00 224.00 52.00
C 226.34 53.52 227.57 55.71 229.00 58.00
C 229.22 58.36 229.00 59.00 229.00 59.00
C 231.75 60.79 232.58 63.22 234.00 66.00
C 234.30 66.59 234.65 67.49 235.00 68.00
C 236.85 70.71 238.63 73.83 240.00 77.00
C 244.80 88.13 248.75 100.54 249.00 113.00
C 249.26 115.16 250.00 118.18 250.00 121.00
C 250.00 125.33 250.09 129.67 250.00 134.00
C 249.95 136.52 249.26 139.17 249.00 141.00
C 247.45 166.94 234.70 189.46 218.00 209.00
C 216.10 211.22 214.17 213.15 212.00 215.00
C 205.42 220.62 199.16 225.52 192.00 230.00
C 190.47 230.96 188.70 232.02 187.00 233.00
C 173.07 241.01 156.47 247.00 140.00 247.00
C 133.08 247.67 124.85 247.66 118.00 247.00
C 101.20 247.00 84.43 240.98 70.00 233.00
C 68.45 232.14 67.26 230.80 66.00 230.00
C 54.11 224.11 41.38 213.44 34.00 202.00
C 30.46 197.69 26.83 193.93 24.00 189.00
C 23.24 187.68 22.75 186.31 22.00 185.00
C 13.95 171.00 8.00 153.54 8.00 137.00
C 7.30 129.76 7.13 121.19 8.00 114.00
C 8.15 106.45 10.07 100.03 12.00 93.00
C 12.58 90.90 13.37 88.78 14.00 87.00
C 14.55 84.73 15.13 83.19 16.00 81.00
C 16.57 79.57 17.40 78.21 18.00 77.00
C 19.02 73.91 20.39 70.92 22.00 68.00
C 22.86 66.45 24.20 65.26 25.00 64.00
C 26.77 60.42 28.56 57.35 31.00 54.00
C 36.72 46.15 44.29 38.09 52.00 32.00
C 54.31 30.17 56.63 28.64 59.00 27.00
C 62.55 24.54 66.15 22.21 70.00 20.00
C 80.97 13.69 91.88 11.02 104.00 8.00
C 104.86 7.79 105.57 7.01 107.00 7.00
C 107.50 7.00 108.50 6.97 109.00 7.00
C 110.59 6.43 111.85 5.99 114.00 6.00
C 115.00 6.00 116.00 6.00 117.00 6.00
C 124.40 4.38 133.69 5.12 141.00 6.00 Z"/>
</g>
<g fill="#5A91A6" fill-opacity="0.11" stroke="None">
<path d="
M 117.00 6.00 
C 124.99 6.00 133.01 5.84 141.00 6.00
C 133.69 5.12 124.40 4.38 117.00 6.00 Z"/>
</g>
<g fill="#5CA2B1" fill-opacity="0.11" stroke="None">
<path d="
M 109.00 7.00 
C 111.07 7.11 112.63 6.25 114.00 6.00
C 111.85 5.99 110.59 6.43 109.00 7.00 Z"/>
</g>
<g fill="#2B6D90" fill-opacity="0.82" stroke="None">
<path d="
M 109.00 7.00 
C 108.50 6.97 107.50 7.00 107.00 7.00
C 104.89 8.39 105.83 7.87 104.00 8.00
C 91.88 11.02 80.97 13.69 70.00 20.00
C 66.47 22.73 62.88 24.82 59.00 27.00
C 56.63 28.64 54.31 30.17 52.00 32.00
C 44.68 38.77 37.60 46.87 31.00 54.00
C 28.56 57.35 26.77 60.42 25.00 64.00
C 24.12 65.77 23.11 66.50 22.00 68.00
C 20.39 70.92 19.02 73.91 18.00 77.00
C 17.33 79.03 16.94 79.40 16.00 81.00
C 15.13 83.19 14.55 84.73 14.00 87.00
C 13.41 89.46 12.81 90.97 12.00 93.00
C 10.07 100.03 8.15 106.45 8.00 114.00
C 7.85 121.66 8.00 129.34 8.00 137.00
C 8.00 153.54 13.95 171.00 22.00 185.00
C 23.47 186.81 24.75 187.90 26.00 190.00
C 28.48 194.18 31.37 197.92 34.00 202.00
C 41.38 213.44 54.11 224.11 66.00 230.00
C 67.77 230.88 68.50 231.89 70.00 233.00
C 84.43 240.98 101.20 247.00 118.00 247.00
C 125.33 247.00 132.67 247.00 140.00 247.00
C 156.47 247.00 173.07 241.01 187.00 233.00
C 188.44 231.95 189.73 231.08 192.00 230.00
C 199.16 225.52 205.42 220.62 212.00 215.00
C 213.92 213.08 216.12 210.88 218.00 209.00
C 234.70 189.46 247.45 166.94 249.00 141.00
C 249.14 138.68 249.84 135.64 250.00 134.00
C 250.09 129.67 250.00 125.33 250.00 121.00
C 249.80 118.93 249.05 115.73 249.00 113.00
C 248.75 100.54 244.80 88.13 240.00 77.00
C 238.36 73.99 235.59 70.52 235.00 68.00
C 234.65 67.49 234.30 66.59 234.00 66.00
C 232.23 63.78 230.04 61.89 229.00 59.00
C 229.00 59.00 229.22 58.36 229.00 58.00
C 226.66 56.48 225.43 54.29 224.00 52.00
C 224.00 52.00 224.20 51.40 224.00 51.00
C 216.37 45.67 210.71 37.20 204.00 31.00
C 202.42 29.75 200.55 28.94 199.00 28.00
C 194.24 25.11 190.19 22.28 186.00 19.00
C 183.27 17.49 180.88 16.85 178.00 16.00
C 175.49 15.26 173.98 14.04 172.00 13.00
C 167.29 11.26 162.74 10.35 158.00 9.00
C 156.64 8.88 156.33 10.44 155.00 8.00
C 155.00 8.00 154.33 7.76 154.00 8.00
C 151.18 10.02 152.28 7.49 151.00 7.00
C 147.57 6.42 144.62 6.07 141.00 6.00
C 133.01 5.84 124.99 6.00 117.00 6.00
C 116.00 6.00 115.00 6.00 114.00 6.00
C 112.63 6.25 111.07 7.11 109.00 7.00
M 145.00 9.00 
C 207.19 16.52 253.79 77.70 246.00 141.00 C 238.22 204.31 178.03 250.57 114.00 243.00 C 49.97 235.43 4.16 175.58 11.78 111.78 C 19.40 47.98 81.70 1.35 145.00 9.00 Z"/>
</g>
<g fill="#5183A0" fill-opacity="0.35" stroke="None">
<path d="
M 104.00 8.00 
C 105.83 7.87 104.89 8.39 107.00 7.00
C 105.57 7.01 104.86 7.79 104.00 8.00 Z"/>
</g>
<g fill="#6C9DAE" fill-opacity="0.34" stroke="None">
<path d="
M 154.00 8.00 
C 152.81 6.89 152.69 7.29 151.00 7.00
C 152.28 7.49 151.18 10.02 154.00 8.00 Z"/>
</g>
<g fill="#5F8FB1" fill-opacity="0.33" stroke="None">
<path d="
M 158.00 9.00 
C 156.96 8.70 156.72 7.79 155.00 8.00
C 156.33 10.44 156.64 8.88 158.00 9.00 Z"/>
</g>
<g fill="#185680" fill-opacity="1.00" stroke="None">
<path d="
M 145.00 9.00 
C 81.70 1.35 19.40 47.98 11.78 111.78 C 4.16 175.58 49.97 235.43 114.00 243.00 C 178.03 250.57 238.22 204.31 246.00 141.00 C 253.79 77.70 207.19 16.52 145.00 9.00
M 143.00 13.00 
C 188.44 17.33 226.99 53.67 238.98 98.02 C 250.96 142.38 231.96 199.12 189.30 223.30 C 146.65 247.49 90.59 245.17 53.25 211.75 C 15.91 178.34 3.69 124.01 24.92 78.92 C 46.16 33.84 93.06 8.24 143.00 13.00 Z"/>
</g>
<g fill="#164771" fill-opacity="1.00" stroke="None">
<path d="
M 143.00 13.00 
C 93.06 8.24 46.16 33.84 24.92 78.92 C 3.69 124.01 15.91 178.34 53.25 211.75 C 90.59 245.17 146.65 247.49 189.30 223.30 C 231.96 199.12 250.96 142.38 238.98 98.02 C 226.99 53.67 188.44 17.33 143.00 13.00
M 174.00 63.00 
C 150.96 49.88 129.77 50.90 104.00 55.00
C 109.19 57.03 105.81 63.84 105.00 67.00
C 101.45 65.95 96.64 66.33 95.00 62.00
C 91.16 59.22 86.96 64.77 81.30 68.30 C 75.64 71.83 83.46 77.41 90.00 77.00
C 99.42 72.34 109.68 69.14 119.00 64.00
C 122.49 59.11 118.56 54.09 127.00 54.00 C 135.44 53.91 132.86 57.98 136.00 63.00
C 147.15 68.28 158.46 74.13 170.00 79.00
C 173.06 79.09 174.91 77.04 178.01 77.01 C 181.11 76.98 182.46 79.92 185.00 81.00
C 181.10 77.59 184.54 65.53 192.00 70.00 C 199.46 74.47 194.62 79.91 188.00 81.00
C 185.00 82.60 184.53 91.24 182.00 92.00
C 185.99 101.34 189.02 112.24 192.00 122.00
C 194.45 123.73 201.88 121.97 202.00 127.00
C 199.79 129.04 197.47 131.90 199.00 135.00
C 200.93 134.27 203.02 135.44 204.00 133.00
C 206.72 134.13 204.91 138.76 203.00 137.00
C 199.85 137.42 193.45 134.72 191.00 136.00
C 186.50 145.91 182.28 155.97 178.00 166.00
C 177.33 168.75 175.75 177.18 180.00 178.00
C 180.66 177.90 182.04 177.99 182.00 178.00
C 190.33 176.70 193.56 163.45 199.00 159.00
C 204.97 162.38 196.89 169.45 201.00 174.00
C 213.41 156.55 217.58 134.28 216.00 113.00
C 229.20 136.00 220.43 169.32 203.00 188.00
C 200.08 191.70 196.52 194.99 193.00 198.00
C 186.07 203.93 179.25 207.76 171.00 211.00
C 163.07 214.11 155.73 216.53 147.00 217.00
C 142.42 217.74 137.48 217.54 133.00 217.00
C 113.39 216.61 88.77 205.31 78.00 188.00
C 76.72 187.52 75.47 186.21 75.00 185.00
C 76.28 184.73 77.72 185.77 78.00 187.00
C 78.25 186.75 79.00 187.00 79.00 187.00
C 89.78 193.70 98.83 200.21 112.00 201.00
C 123.77 201.70 135.46 202.56 147.00 200.00
C 144.92 194.05 149.27 189.11 156.00 191.00
C 157.70 191.48 159.15 193.68 160.00 195.00
C 166.22 191.68 171.96 187.27 178.00 184.00
C 178.27 178.01 173.55 175.57 168.00 176.00
C 157.76 178.90 147.72 184.71 138.00 189.00
C 135.18 192.65 137.18 200.55 129.99 199.99 C 122.80 199.44 120.09 197.66 122.00 191.00
C 106.39 185.41 92.79 171.47 75.00 175.00
C 73.46 171.30 71.22 165.50 76.00 163.00
C 72.23 152.38 69.32 141.47 65.00 131.00
C 56.03 132.87 57.11 116.22 66.00 119.00
C 68.45 105.61 81.52 92.66 74.00 79.00
C 73.89 78.52 73.76 77.31 74.00 77.00
C 72.49 73.68 66.39 73.33 67.00 69.00
C 63.46 69.22 62.07 73.74 59.00 75.00
C 56.69 78.30 53.98 82.29 52.00 86.00
C 44.12 100.77 40.32 117.36 42.00 135.00
C 32.19 128.45 36.10 110.48 36.78 99.78 C 37.46 89.08 44.41 79.41 50.00 71.00
C 54.82 64.65 60.49 57.84 67.00 53.00
C 76.92 45.62 87.91 40.12 100.00 38.00
C 130.44 32.65 163.76 41.04 182.00 68.00
C 178.47 68.14 177.53 62.83 174.00 63.00
M 57.00 124.00 
C 54.66 126.05 50.23 123.94 48.00 127.00
C 44.94 121.07 53.79 125.02 57.00 124.00
M 71.00 187.00 
C 64.52 188.02 54.95 180.59 63.25 175.25 C 71.55 169.91 74.79 181.56 71.00 187.00 Z"/>
</g>
<g fill="#74A2B5" fill-opacity="0.22" stroke="None">
<path d="
M 178.00 16.00 
C 176.16 15.18 174.12 13.78 172.00 13.00
C 173.98 14.04 175.49 15.26 178.00 16.00 Z"/>
</g>
<g fill="#81A8B9" fill-opacity="0.16" stroke="None">
<path d="
M 199.00 28.00 
C 194.77 24.76 190.84 21.67 186.00 19.00
C 190.19 22.28 194.24 25.11 199.00 28.00 Z"/>
</g>
<g fill="#71A2B7" fill-opacity="0.16" stroke="None">
<path d="
M 59.00 27.00 
C 62.88 24.82 66.47 22.73 70.00 20.00
C 66.15 22.21 62.55 24.54 59.00 27.00 Z"/>
</g>
<g fill="#5692A8" fill-opacity="0.20" stroke="None">
<path d="
M 224.00 51.00 
C 222.61 48.15 219.10 45.45 217.00 43.00
C 215.08 41.08 212.88 38.88 211.00 37.00
C 208.75 35.08 206.38 32.88 204.00 31.00
C 210.71 37.20 216.37 45.67 224.00 51.00 Z"/>
</g>
<g fill="#5E95AB" fill-opacity="0.16" stroke="None">
<path d="
M 31.00 54.00 
C 37.60 46.87 44.68 38.77 52.00 32.00
C 44.29 38.09 36.72 46.15 31.00 54.00 Z"/>
</g>
<g fill="#36B8CA" fill-opacity="1.00" stroke="None">
<path d="
M 100.00 38.00 
C 98.06 39.94 101.41 41.77 101.00 44.00
C 103.00 44.00 105.00 44.00 107.00 44.00
C 134.03 37.71 153.80 48.28 174.00 63.00
C 177.53 62.83 178.47 68.14 182.00 68.00
C 163.76 41.04 130.44 32.65 100.00 38.00 Z"/>
</g>
<g fill="#C6D4E2" fill-opacity="0.01" stroke="None">
<path d="
M 217.00 43.00 
C 215.15 40.83 213.22 38.90 211.00 37.00
C 212.88 38.88 215.08 41.08 217.00 43.00 Z"/>
</g>
<g fill="#2D9FB7" fill-opacity="1.00" stroke="None">
<path d="
M 67.00 53.00 
C 63.92 55.69 61.66 59.44 60.00 63.00
C 66.65 69.74 74.16 56.77 82.00 54.00
C 83.01 53.47 84.06 53.45 85.00 53.00
C 92.08 49.65 99.44 45.76 107.00 44.00
C 105.00 44.00 103.00 44.00 101.00 44.00
C 101.41 41.77 98.06 39.94 100.00 38.00
C 87.91 40.12 76.92 45.62 67.00 53.00 Z"/>
</g>
<g fill="#297695" fill-opacity="1.00" stroke="None">
<path d="
M 107.00 44.00 
C 99.44 45.76 92.08 49.65 85.00 53.00
C 86.71 52.64 88.56 53.34 90.00 52.00
C 88.21 54.89 90.50 57.09 91.00 60.00
C 92.28 58.70 93.65 59.22 95.00 60.00
C 95.00 53.94 99.75 55.68 104.00 55.00
C 129.77 50.90 150.96 49.88 174.00 63.00
C 153.80 48.28 134.03 37.71 107.00 44.00 Z"/>
</g>
<g fill="#246384" fill-opacity="1.00" stroke="None">
<path d="
M 85.00 53.00 
C 84.06 53.45 83.01 53.47 82.00 54.00
C 74.26 59.41 64.71 66.84 59.00 75.00
C 62.07 73.74 63.46 69.22 67.00 69.00
C 66.39 73.33 72.49 73.68 74.00 77.00
C 76.44 73.82 75.11 75.91 74.00 73.00
C 78.85 71.62 81.27 86.32 90.00 77.00
C 83.46 77.41 75.64 71.83 81.30 68.30 C 86.96 64.77 91.16 59.22 95.00 62.00
C 94.85 61.55 95.00 60.50 95.00 60.00
C 93.65 59.22 92.28 58.70 91.00 60.00
C 90.50 57.09 88.21 54.89 90.00 52.00
C 88.56 53.34 86.71 52.64 85.00 53.00 Z"/>
</g>
<g fill="#4C8A9C" fill-opacity="0.13" stroke="None">
<path d="
M 229.00 58.00 
C 227.57 55.71 226.34 53.52 224.00 52.00
C 225.43 54.29 226.66 56.48 229.00 58.00 Z"/>
</g>
<g fill="#2580A0" fill-opacity="1.00" stroke="None">
<path d="
M 50.00 71.00 
C 45.66 78.08 39.87 86.26 45.00 94.00
C 48.85 93.48 48.67 87.57 52.00 86.00
C 53.98 82.29 56.69 78.30 59.00 75.00
C 64.71 66.84 74.26 59.41 82.00 54.00
C 74.16 56.77 66.65 69.74 60.00 63.00
C 61.66 59.44 63.92 55.69 67.00 53.00
C 60.49 57.84 54.82 64.65 50.00 71.00 Z"/>
</g>
<g fill="#396283" fill-opacity="1.00" stroke="None">
<path d="
M 119.00 64.00 
C 122.92 61.84 122.68 61.38 125.75 57.75 C 128.83 54.13 131.54 60.78 133.00 62.00
C 134.01 62.51 135.07 62.56 136.00 63.00
C 132.86 57.98 135.44 53.91 127.00 54.00 C 118.56 54.09 122.49 59.11 119.00 64.00 Z"/>
</g>
<g fill="#769DB6" fill-opacity="1.00" stroke="None">
<path d="
M 95.00 60.00 
C 95.00 60.50 94.85 61.55 95.00 62.00
C 96.64 66.33 101.45 65.95 105.00 67.00
C 105.81 63.84 109.19 57.03 104.00 55.00
C 99.75 55.68 95.00 53.94 95.00 60.00
M 104.00 57.00 
C 108.47 59.11 103.99 67.91 98.78 64.22 C 93.57 60.53 98.55 54.43 104.00 57.00 Z"/>
</g>
<g fill="#315776" fill-opacity="1.00" stroke="None">
<path d="
M 104.00 57.00 
C 98.55 54.43 93.57 60.53 98.78 64.22 C 103.99 67.91 108.47 59.11 104.00 57.00
M 104.00 60.00 
C 98.39 62.88 96.31 58.04 104.00 60.00 Z"/>
</g>
<g fill="#5B9FAE" fill-opacity="1.00" stroke="None">
<path d="
M 119.00 64.00 
C 109.68 69.14 99.42 72.34 90.00 77.00
C 81.27 86.32 78.85 71.62 74.00 73.00
C 75.11 75.91 76.44 73.82 74.00 77.00
C 73.76 77.31 73.89 78.52 74.00 79.00
C 75.20 78.56 75.75 77.28 77.00 77.00
C 78.74 79.38 80.56 81.80 80.00 85.00
C 87.98 84.01 93.70 94.55 101.00 98.00
C 104.01 95.43 107.08 98.61 106.00 102.00
C 112.64 97.89 122.29 102.57 130.00 101.00 C 137.71 99.43 147.22 102.66 155.00 102.00
C 155.27 104.70 156.14 105.03 159.00 106.00
C 157.43 121.13 156.15 136.76 152.00 151.00
C 156.01 148.86 158.30 158.23 152.00 157.00
C 151.90 156.98 149.98 155.95 150.00 156.00
C 148.66 157.59 157.17 157.70 158.22 158.78 C 159.27 159.86 162.19 162.99 164.08 163.92 C 165.98 164.85 169.05 167.83 171.00 169.00
C 165.46 171.74 171.69 172.74 175.00 173.00
C 176.64 170.93 175.44 167.38 178.00 166.00
C 182.28 155.97 186.50 145.91 191.00 136.00
C 191.58 134.73 192.18 133.11 193.00 132.00
C 189.08 132.00 191.15 129.12 190.00 127.00
C 187.64 122.62 180.43 118.22 176.75 115.25 C 173.07 112.28 167.82 105.12 163.00 104.00
C 161.75 103.71 160.22 104.37 159.00 104.00
C 155.94 103.07 156.14 94.04 152.08 91.92 C 148.02 89.79 145.29 83.16 139.00 85.00
C 147.98 83.19 140.06 78.50 137.25 73.75 C 134.43 69.01 129.87 63.93 125.00 62.00
C 123.48 56.07 129.43 58.73 131.00 61.00
C 131.34 61.49 132.52 61.76 133.00 62.00
C 131.54 60.78 128.83 54.13 125.75 57.75 C 122.68 61.38 122.92 61.84 119.00 64.00
M 97.00 82.00 
C 99.93 83.66 96.50 88.93 93.33 86.67 C 90.15 84.40 93.98 80.29 97.00 82.00
M 130.00 83.00 
C 132.67 84.42 130.51 90.46 127.32 88.66 C 124.13 86.86 126.92 81.35 130.00 83.00
M 172.00 141.00 
C 175.00 141.76 174.62 147.84 170.75 147.19 C 166.88 146.54 168.04 140.00 172.00 141.00 Z"/>
</g>
<g fill="#E7F3F4" fill-opacity="1.00" stroke="None">
<path d="
M 125.00 62.00 
C 126.76 65.30 129.97 61.29 131.00 61.00
C 129.43 58.73 123.48 56.07 125.00 62.00 Z"/>
</g>
<g fill="#7A9DB6" fill-opacity="1.00" stroke="None">
<path d="
M 104.00 60.00 
C 96.31 58.04 98.39 62.88 104.00 60.00 Z"/>
</g>
<g fill="#699AB2" fill-opacity="0.15" stroke="None">
<path d="
M 234.00 66.00 
C 232.58 63.22 231.75 60.79 229.00 59.00
C 230.04 61.89 232.23 63.78 234.00 66.00 Z"/>
</g>
<g fill="#53C4CC" fill-opacity="1.00" stroke="None">
<path d="
M 125.00 62.00 
C 129.87 63.93 134.43 69.01 137.25 73.75 C 140.06 78.50 147.98 83.19 139.00 85.00
C 145.29 83.16 148.02 89.79 152.08 91.92 C 156.14 94.04 155.94 103.07 159.00 104.00
C 156.23 102.62 158.36 98.02 161.03 98.03 C 163.69 98.04 165.65 102.68 163.00 104.00
C 167.82 105.12 173.07 112.28 176.75 115.25 C 180.43 118.22 187.64 122.62 190.00 127.00
C 189.89 126.98 193.19 125.70 193.00 126.00
C 192.07 124.56 192.47 123.53 192.00 122.00
C 189.02 112.24 185.99 101.34 182.00 92.00
C 181.68 91.24 181.17 91.18 181.00 90.00
C 180.59 88.98 179.86 88.60 180.00 87.00
C 179.07 85.83 172.16 85.60 175.00 81.00
C 173.05 80.82 171.48 79.63 170.00 79.00
C 158.46 74.13 147.15 68.28 136.00 63.00
C 135.07 62.56 134.01 62.51 133.00 62.00
C 132.52 61.76 131.34 61.49 131.00 61.00
C 129.97 61.29 126.76 65.30 125.00 62.00
M 149.00 86.00 
C 139.29 87.38 148.96 77.06 149.00 86.00 Z"/>
</g>
<g fill="#5C99B2" fill-opacity="0.21" stroke="None">
<path d="
M 22.00 68.00 
C 23.11 66.50 24.12 65.77 25.00 64.00
C 24.20 65.26 22.86 66.45 22.00 68.00 Z"/>
</g>
<g fill="#568F9F" fill-opacity="0.15" stroke="None">
<path d="
M 240.00 77.00 
C 238.63 73.83 236.85 70.71 235.00 68.00
C 235.59 70.52 238.36 73.99 240.00 77.00 Z"/>
</g>
<g fill="#6C90AB" fill-opacity="1.00" stroke="None">
<path d="
M 185.00 81.00 
C 186.72 81.73 185.98 81.33 188.00 81.00
C 194.62 79.91 199.46 74.47 192.00 70.00 C 184.54 65.53 181.10 77.59 185.00 81.00
M 191.00 71.00 
C 196.56 72.43 193.69 81.86 187.99 79.99 C 182.29 78.12 185.41 69.56 191.00 71.00 Z"/>
</g>
<g fill="#1D668B" fill-opacity="1.00" stroke="None">
<path d="
M 52.00 86.00 
C 48.67 87.57 48.85 93.48 45.00 94.00
C 39.87 86.26 45.66 78.08 50.00 71.00
C 44.41 79.41 37.46 89.08 36.78 99.78 C 36.10 110.48 32.19 128.45 42.00 135.00
C 40.32 117.36 44.12 100.77 52.00 86.00 Z"/>
</g>
<g fill="#244E72" fill-opacity="1.00" stroke="None">
<path d="
M 191.00 71.00 
C 185.41 69.56 182.29 78.12 187.99 79.99 C 193.69 81.86 196.56 72.43 191.00 71.00
M 193.00 76.00 
C 191.67 77.47 187.26 77.71 186.00 76.00
C 187.33 74.53 191.74 74.29 193.00 76.00 Z"/>
</g>
<g fill="#59809F" fill-opacity="1.00" stroke="None">
<path d="
M 193.00 76.00 
C 191.74 74.29 187.33 74.53 186.00 76.00
C 187.26 77.71 191.67 77.47 193.00 76.00 Z"/>
</g>
<g fill="#518AA6" fill-opacity="0.23" stroke="None">
<path d="
M 16.00 81.00 
C 16.94 79.40 17.33 79.03 18.00 77.00
C 17.40 78.21 16.57 79.57 16.00 81.00 Z"/>
</g>
<g fill="#426B84" fill-opacity="1.00" stroke="None">
<path d="
M 74.00 79.00 
C 81.52 92.66 68.45 105.61 66.00 119.00
C 57.11 116.22 56.03 132.87 65.00 131.00
C 69.32 141.47 72.23 152.38 76.00 163.00
C 71.22 165.50 73.46 171.30 75.00 175.00
C 92.79 171.47 106.39 185.41 122.00 191.00
C 120.09 197.66 122.80 199.44 129.99 199.99 C 137.18 200.55 135.18 192.65 138.00 189.00
C 134.10 190.72 131.99 197.29 127.33 195.67 C 122.66 194.04 126.73 187.53 123.00 185.00
C 124.57 185.96 126.25 187.32 127.00 189.00
C 127.14 188.78 128.50 188.97 129.00 189.00
C 136.50 187.34 137.45 173.58 143.00 169.00
C 139.39 168.29 136.51 170.23 133.00 170.00
C 132.09 171.83 132.66 174.74 131.00 176.00
C 134.67 169.17 123.75 170.12 128.00 166.00
C 117.65 165.34 110.97 158.36 102.00 155.00
C 104.04 160.86 110.60 163.25 111.00 168.00
C 104.84 164.81 103.37 156.35 97.00 155.00
C 96.50 154.98 96.00 155.00 96.00 155.00
C 93.50 154.63 93.48 148.12 90.00 146.00
C 92.90 148.38 91.18 152.16 93.00 155.00
C 87.78 164.73 78.30 167.22 76.02 155.98 C 73.75 144.73 68.11 140.12 67.00 129.00
C 71.86 133.18 77.37 135.57 82.00 140.00
C 80.37 144.31 81.19 149.32 81.00 154.00
C 82.48 150.63 82.66 146.02 83.00 142.00
C 85.31 141.55 86.07 144.53 88.00 145.00
C 89.35 145.53 94.00 145.90 96.00 148.00
C 93.20 137.63 88.63 127.72 87.00 117.00
C 79.43 118.68 82.48 106.29 88.00 111.00
C 88.50 105.79 90.78 98.69 93.00 93.00
C 95.41 94.11 96.62 96.96 99.00 98.00
C 98.34 103.59 92.79 105.49 90.00 110.00
C 93.25 108.86 96.79 106.66 99.00 104.00
C 99.04 103.94 100.53 99.96 101.00 99.00
C 101.07 98.51 101.00 98.00 101.00 98.00
C 93.70 94.55 87.98 84.01 80.00 85.00
C 80.56 81.80 78.74 79.38 77.00 77.00
C 75.75 77.28 75.20 78.56 74.00 79.00
M 67.00 127.00 
C 64.01 133.33 57.01 122.23 64.00 122.00
C 64.50 121.98 65.53 122.12 66.00 122.00
C 66.58 121.85 67.95 122.05 68.00 124.00
C 69.07 122.47 81.45 114.27 83.25 116.80 C 85.04 119.34 81.92 134.07 82.00 138.00
C 77.16 133.91 71.65 131.43 67.00 127.00
M 82.00 171.00 
C 79.12 173.84 75.91 170.21 77.00 167.00
C 78.58 162.34 85.51 167.54 82.00 171.00
M 115.00 176.00 
C 114.55 176.15 113.45 176.14 113.00 176.00
C 109.63 174.93 110.84 169.45 114.03 170.03 C 117.21 170.61 117.98 175.03 115.00 176.00 Z"/>
</g>
<g fill="#3D6685" fill-opacity="1.00" stroke="None">
<path d="
M 170.00 79.00 
C 171.48 79.63 173.05 80.82 175.00 81.00
C 179.33 81.39 180.50 78.77 181.00 85.00
C 181.13 86.64 180.76 88.37 181.00 90.00
C 181.17 91.18 181.68 91.24 182.00 92.00
C 184.53 91.24 185.00 82.60 188.00 81.00
C 185.98 81.33 186.72 81.73 185.00 81.00
C 182.46 79.92 181.11 76.98 178.01 77.01 C 174.91 77.04 173.06 79.09 170.00 79.00 Z"/>
</g>
<g fill="#C9E3E8" fill-opacity="1.00" stroke="None">
<path d="
M 175.00 81.00 
C 172.16 85.60 179.07 85.83 180.00 87.00
C 180.11 85.72 180.79 85.76 181.00 85.00
C 180.50 78.77 179.33 81.39 175.00 81.00 Z"/>
</g>
<g fill="#CEE8ED" fill-opacity="1.00" stroke="None">
<path d="
M 97.00 82.00 
C 93.98 80.29 90.15 84.40 93.33 86.67 C 96.50 88.93 99.93 83.66 97.00 82.00 Z"/>
</g>
<g fill="#DFF5F6" fill-opacity="1.00" stroke="None">
<path d="
M 149.00 86.00 
C 148.96 77.06 139.29 87.38 149.00 86.00 Z"/>
</g>
<g fill="#E0F0F2" fill-opacity="1.00" stroke="None">
<path d="
M 130.00 83.00 
C 126.92 81.35 124.13 86.86 127.32 88.66 C 130.51 90.46 132.67 84.42 130.00 83.00 Z"/>
</g>
<g fill="#5D95AC" fill-opacity="1.00" stroke="None">
<path d="
M 180.00 87.00 
C 179.86 88.60 180.59 88.98 181.00 90.00
C 180.76 88.37 181.13 86.64 181.00 85.00
C 180.79 85.76 180.11 85.72 180.00 87.00 Z"/>
</g>
<g fill="#85ACBD" fill-opacity="0.20" stroke="None">
<path d="
M 12.00 93.00 
C 12.81 90.97 13.41 89.46 14.00 87.00
C 13.37 88.78 12.58 90.90 12.00 93.00 Z"/>
</g>
<g fill="#4E6578" fill-opacity="1.00" stroke="None">
<path d="
M 88.00 111.00 
C 87.95 111.50 88.00 112.00 88.00 112.00
C 88.00 113.00 88.00 114.00 88.00 115.00
C 88.00 115.50 88.00 116.00 88.00 116.00
C 88.24 126.47 95.27 135.84 97.00 146.00
C 96.74 131.75 98.99 118.09 102.00 104.00
C 101.00 104.00 100.00 104.00 99.00 104.00
C 96.79 106.66 93.25 108.86 90.00 110.00
C 92.79 105.49 98.34 103.59 99.00 98.00
C 96.62 96.96 95.41 94.11 93.00 93.00
C 90.78 98.69 88.50 105.79 88.00 111.00 Z"/>
</g>
<g fill="#D4E7EC" fill-opacity="1.00" stroke="None">
<path d="
M 101.00 98.00 
C 101.00 98.00 101.07 98.51 101.00 99.00
C 100.67 101.44 102.21 103.80 105.00 103.00
C 105.24 102.93 105.68 102.20 106.00 102.00
C 107.08 98.61 104.01 95.43 101.00 98.00 Z"/>
</g>
<g fill="#C9EDEF" fill-opacity="1.00" stroke="None">
<path d="
M 159.00 104.00 
C 160.22 104.37 161.75 103.71 163.00 104.00
C 165.65 102.68 163.69 98.04 161.03 98.03 C 158.36 98.02 156.23 102.62 159.00 104.00
M 163.00 103.00 
C 154.49 104.41 163.45 94.47 163.00 103.00 Z"/>
</g>
<g fill="#627583" fill-opacity="1.00" stroke="None">
<path d="
M 99.00 104.00 
C 100.00 104.00 101.00 104.00 102.00 104.00
C 98.99 118.09 96.74 131.75 97.00 146.00
C 95.27 135.84 88.24 126.47 88.00 116.00
C 87.88 116.26 87.04 116.65 87.00 117.00
C 88.63 127.72 93.20 137.63 96.00 148.00
C 94.00 145.90 89.35 145.53 88.00 145.00
C 88.63 145.43 89.38 145.62 90.00 146.00
C 93.48 148.12 93.50 154.63 96.00 155.00
C 94.13 152.78 95.06 147.50 99.01 149.01 C 102.95 150.51 100.57 155.12 97.00 155.00
C 103.37 156.35 104.84 164.81 111.00 168.00
C 110.60 163.25 104.04 160.86 102.00 155.00
C 110.97 158.36 117.65 165.34 128.00 166.00
C 123.75 170.12 134.67 169.17 131.00 176.00
C 132.66 174.74 132.09 171.83 133.00 170.00
C 131.41 170.43 129.66 169.52 129.08 166.92 C 128.50 164.32 132.34 164.53 134.00 164.00
C 135.70 163.46 137.43 163.03 139.00 162.00
C 131.81 170.39 149.00 166.92 149.00 159.00
C 148.67 159.32 141.68 160.71 140.00 162.00
C 142.20 159.17 146.00 157.96 149.00 156.00
C 136.86 151.00 119.59 156.49 107.00 152.00
C 115.91 151.95 110.33 147.18 107.00 143.00
C 104.59 144.11 103.38 146.96 101.00 148.00
C 107.12 142.56 104.26 136.60 103.02 129.98 C 101.79 123.35 106.44 115.31 111.00 112.00
C 111.55 110.18 109.25 109.53 109.00 108.00
C 108.09 106.89 105.90 104.27 105.00 103.00
C 102.21 103.80 100.67 101.44 101.00 99.00
C 100.53 99.96 99.04 103.94 99.00 104.00 Z"/>
</g>
<g fill="#F6FBFA" fill-opacity="1.00" stroke="None">
<path d="
M 163.00 103.00 
C 163.45 94.47 154.49 104.41 163.00 103.00 Z"/>
</g>
<g fill="#7898A0" fill-opacity="1.00" stroke="None">
<path d="
M 106.00 102.00 
C 105.68 102.20 105.24 102.93 105.00 103.00
C 105.90 104.27 108.09 106.89 109.00 108.00
C 110.82 110.21 114.05 111.98 116.00 114.00
C 115.24 110.93 122.84 108.48 127.02 107.02 C 131.21 105.57 139.36 108.56 144.00 109.00
C 145.12 115.17 153.52 123.29 149.67 130.67 C 145.82 138.05 142.55 142.91 148.00 149.00
C 149.12 151.81 149.99 152.60 150.00 156.00
C 149.98 155.95 151.90 156.98 152.00 157.00
C 151.92 157.13 151.71 151.99 152.00 151.00
C 156.15 136.76 157.43 121.13 159.00 106.00
C 156.14 105.03 155.27 104.70 155.00 102.00
C 147.22 102.66 137.71 99.43 130.00 101.00 C 122.29 102.57 112.64 97.89 106.00 102.00 Z"/>
</g>
<g fill="#91A3A6" fill-opacity="1.00" stroke="None">
<path d="
M 116.00 114.00 
C 117.10 115.14 118.00 116.84 119.00 118.00
C 119.21 118.25 120.00 118.00 120.00 118.00
C 122.03 113.54 132.72 117.18 136.00 113.00
C 132.76 117.64 139.81 119.07 140.97 124.03 C 142.13 128.99 138.45 133.34 139.00 138.00
C 136.96 137.19 136.03 134.73 134.00 134.00
C 136.23 136.61 138.63 139.63 141.00 142.00
C 143.30 144.30 146.30 146.44 148.00 149.00
C 142.55 142.91 145.82 138.05 149.67 130.67 C 153.52 123.29 145.12 115.17 144.00 109.00
C 139.36 108.56 131.21 105.57 127.02 107.02 C 122.84 108.48 115.24 110.93 116.00 114.00 Z"/>
</g>
<g fill="#788089" fill-opacity="1.00" stroke="None">
<path d="
M 149.00 159.00 
C 149.31 158.23 150.00 156.59 150.00 156.00
C 149.99 152.60 149.12 151.81 148.00 149.00
C 146.30 146.44 143.30 144.30 141.00 142.00
C 140.46 148.10 128.31 145.41 123.77 144.23 C 119.24 143.05 115.22 133.23 111.00 135.00
C 113.11 129.16 120.85 125.43 119.00 118.00
C 118.00 116.84 117.10 115.14 116.00 114.00
C 114.05 111.98 110.82 110.21 109.00 108.00
C 109.25 109.53 111.55 110.18 111.00 112.00
C 106.44 115.31 101.79 123.35 103.02 129.98 C 104.26 136.60 107.12 142.56 101.00 148.00
C 103.38 146.96 104.59 144.11 107.00 143.00
C 110.33 147.18 115.91 151.95 107.00 152.00
C 119.59 156.49 136.86 151.00 149.00 156.00
C 146.00 157.96 142.20 159.17 140.00 162.00
C 141.68 160.71 148.67 159.32 149.00 159.00 Z"/>
</g>
<g fill="#7699A6" fill-opacity="1.00" stroke="None">
<path d="
M 87.00 117.00 
C 87.04 116.65 87.88 116.26 88.00 116.00
C 88.00 116.00 88.00 115.50 88.00 115.00
C 81.91 118.82 81.93 108.19 88.00 112.00
C 88.00 112.00 87.95 111.50 88.00 111.00
C 82.48 106.29 79.43 118.68 87.00 117.00 Z"/>
</g>
<g fill="#D7E8ED" fill-opacity="1.00" stroke="None">
<path d="
M 88.00 115.00 
C 88.00 114.00 88.00 113.00 88.00 112.00
C 81.93 108.19 81.91 118.82 88.00 115.00 Z"/>
</g>
<g fill="#AFB1AC" fill-opacity="1.00" stroke="None">
<path d="
M 120.00 118.00 
C 119.71 119.62 120.22 121.37 120.00 123.00
C 126.27 122.83 129.92 130.12 134.00 134.00
C 136.03 134.73 136.96 137.19 139.00 138.00
C 138.45 133.34 142.13 128.99 140.97 124.03 C 139.81 119.07 132.76 117.64 136.00 113.00
C 132.72 117.18 122.03 113.54 120.00 118.00
M 121.00 122.00 
C 119.59 113.49 129.53 122.45 121.00 122.00 Z"/>
</g>
<g fill="#236689" fill-opacity="1.00" stroke="None">
<path d="
M 182.00 178.00 
C 182.41 179.32 179.85 181.40 181.00 183.00
C 177.09 182.88 179.08 178.10 176.00 176.00
C 172.79 174.70 170.80 175.21 168.00 176.00
C 173.55 175.57 178.27 178.01 178.00 184.00
C 171.96 187.27 166.22 191.68 160.00 195.00
C 159.15 193.68 157.70 191.48 156.00 191.00
C 156.59 191.23 158.84 194.34 159.00 195.00
C 160.01 199.24 157.96 200.47 155.00 202.00
C 153.09 202.99 150.51 204.01 148.00 204.00
C 147.72 202.72 148.76 200.50 147.00 200.00
C 135.46 202.56 123.77 201.70 112.00 201.00
C 122.45 202.49 133.80 203.74 145.00 202.00
C 145.74 203.94 145.68 205.98 145.00 208.00
C 147.67 208.00 150.33 208.00 153.00 208.00
C 156.74 207.07 160.12 205.58 164.00 205.00
C 170.80 202.20 178.74 197.08 185.00 193.00
C 194.41 185.79 200.16 173.47 209.00 167.00
C 209.90 174.78 209.65 181.87 203.00 188.00
C 220.43 169.32 229.20 136.00 216.00 113.00
C 217.58 134.28 213.41 156.55 201.00 174.00
C 196.89 169.45 204.97 162.38 199.00 159.00
C 193.56 163.45 190.33 176.70 182.00 178.00 Z"/>
</g>
<g fill="#4A869B" fill-opacity="0.11" stroke="None">
<path d="
M 250.00 121.00 
C 250.00 118.18 249.26 115.16 249.00 113.00
C 249.05 115.73 249.80 118.93 250.00 121.00 Z"/>
</g>
<g fill="#5E8CA0" fill-opacity="0.12" stroke="None">
<path d="
M 8.00 137.00 
C 8.00 129.34 7.85 121.66 8.00 114.00
C 7.13 121.19 7.30 129.76 8.00 137.00 Z"/>
</g>
<g fill="#345873" fill-opacity="1.00" stroke="None">
<path d="
M 68.00 124.00 
C 67.76 124.34 67.29 125.56 67.00 126.00
C 66.96 126.50 67.00 127.00 67.00 127.00
C 71.65 131.43 77.16 133.91 82.00 138.00
C 81.92 134.07 85.04 119.34 83.25 116.80 C 81.45 114.27 69.07 122.47 68.00 124.00 Z"/>
</g>
<g fill="#959191" fill-opacity="1.00" stroke="None">
<path d="
M 141.00 142.00 
C 138.63 139.63 136.23 136.61 134.00 134.00
C 129.92 130.12 126.27 122.83 120.00 123.00
C 120.22 121.37 119.71 119.62 120.00 118.00
C 120.00 118.00 119.21 118.25 119.00 118.00
C 120.85 125.43 113.11 129.16 111.00 135.00
C 115.22 133.23 119.24 143.05 123.77 144.23 C 128.31 145.41 140.46 148.10 141.00 142.00 Z"/>
</g>
<g fill="#F1F4F1" fill-opacity="1.00" stroke="None">
<path d="
M 121.00 122.00 
C 129.53 122.45 119.59 113.49 121.00 122.00 Z"/>
</g>
<g fill="#77A3B6" fill-opacity="1.00" stroke="None">
<path d="
M 66.00 122.00 
C 67.07 122.45 67.06 125.12 67.00 126.00
C 67.29 125.56 67.76 124.34 68.00 124.00
C 67.95 122.05 66.58 121.85 66.00 122.00 Z"/>
</g>
<g fill="#789BAE" fill-opacity="1.00" stroke="None">
<path d="
M 67.00 127.00 
C 62.88 130.52 59.90 123.57 64.00 122.00
C 57.01 122.23 64.01 133.33 67.00 127.00 Z"/>
</g>
<g fill="#D5E7EF" fill-opacity="1.00" stroke="None">
<path d="
M 67.00 127.00 
C 67.00 127.00 66.96 126.50 67.00 126.00
C 67.06 125.12 67.07 122.45 66.00 122.00
C 65.53 122.12 64.50 121.98 64.00 122.00
C 59.90 123.57 62.88 130.52 67.00 127.00 Z"/>
</g>
<g fill="#3F6A8A" fill-opacity="1.00" stroke="None">
<path d="
M 193.00 126.00 
C 193.87 127.35 196.07 126.01 195.97 129.03 C 195.88 132.05 194.08 130.54 193.00 132.00
C 192.18 133.11 191.58 134.73 191.00 136.00
C 193.45 134.72 199.85 137.42 203.00 137.00
C 201.56 137.01 198.18 134.93 196.00 136.00
C 196.26 134.61 198.05 135.22 199.00 135.00
C 197.47 131.90 199.79 129.04 202.00 127.00
C 201.88 121.97 194.45 123.73 192.00 122.00
C 192.47 123.53 192.07 124.56 193.00 126.00 Z"/>
</g>
<g fill="#7191AB" fill-opacity="1.00" stroke="None">
<path d="
M 57.00 124.00 
C 53.79 125.02 44.94 121.07 48.00 127.00
C 50.23 123.94 54.66 126.05 57.00 124.00 Z"/>
</g>
<g fill="#B3D8E3" fill-opacity="1.00" stroke="None">
<path d="
M 190.00 127.00 
C 191.15 129.12 189.08 132.00 193.00 132.00
C 194.08 130.54 195.88 132.05 195.97 129.03 C 196.07 126.01 193.87 127.35 193.00 126.00
C 193.19 125.70 189.89 126.98 190.00 127.00
M 195.00 131.00 
C 186.49 132.41 195.45 122.47 195.00 131.00 Z"/>
</g>
<g fill="#F1FAFA" fill-opacity="1.00" stroke="None">
<path d="
M 195.00 131.00 
C 195.45 122.47 186.49 132.41 195.00 131.00 Z"/>
</g>
<g fill="#365B76" fill-opacity="1.00" stroke="None">
<path d="
M 90.00 146.00 
C 89.38 145.62 88.63 145.43 88.00 145.00
C 86.07 144.53 85.31 141.55 83.00 142.00
C 82.66 146.02 82.48 150.63 81.00 154.00
C 81.19 149.32 80.37 144.31 82.00 140.00
C 77.37 135.57 71.86 133.18 67.00 129.00
C 68.11 140.12 73.75 144.73 76.02 155.98 C 78.30 167.22 87.78 164.73 93.00 155.00
C 91.18 152.16 92.90 148.38 90.00 146.00 Z"/>
</g>
<g fill="#7698B0" fill-opacity="1.00" stroke="None">
<path d="
M 199.00 135.00 
C 198.05 135.22 196.26 134.61 196.00 136.00
C 198.18 134.93 201.56 137.01 203.00 137.00
C 204.91 138.76 206.72 134.13 204.00 133.00
C 203.02 135.44 200.93 134.27 199.00 135.00 Z"/>
</g>
<g fill="#6694A4" fill-opacity="0.08" stroke="None">
<path d="
M 249.00 141.00 
C 249.26 139.17 249.95 136.52 250.00 134.00
C 249.84 135.64 249.14 138.68 249.00 141.00 Z"/>
</g>
<g fill="#A4D2D8" fill-opacity="1.00" stroke="None">
<path d="
M 172.00 141.00 
C 168.04 140.00 166.88 146.54 170.75 147.19 C 174.62 147.84 175.00 141.76 172.00 141.00
M 173.00 146.00 
C 164.49 147.41 173.45 137.47 173.00 146.00 Z"/>
</g>
<g fill="#ECF8FA" fill-opacity="1.00" stroke="None">
<path d="
M 173.00 146.00 
C 173.45 137.47 164.49 147.41 173.00 146.00 Z"/>
</g>
<g fill="#D0DEE3" fill-opacity="1.00" stroke="None">
<path d="
M 96.00 155.00 
C 96.00 155.00 96.50 154.98 97.00 155.00
C 100.57 155.12 102.95 150.51 99.01 149.01 C 95.06 147.50 94.13 152.78 96.00 155.00 Z"/>
</g>
<g fill="#DCEDEF" fill-opacity="1.00" stroke="None">
<path d="
M 152.00 157.00 
C 158.30 158.23 156.01 148.86 152.00 151.00
C 151.71 151.99 151.92 157.13 152.00 157.00 Z"/>
</g>
<g fill="#4C7D94" fill-opacity="1.00" stroke="None">
<path d="
M 149.00 159.00 
C 149.00 166.92 131.81 170.39 139.00 162.00
C 137.43 163.03 135.70 163.46 134.00 164.00
C 135.81 165.02 134.59 169.56 133.00 170.00
C 136.51 170.23 139.39 168.29 143.00 169.00
C 137.45 173.58 136.50 187.34 129.00 189.00
C 130.39 189.08 131.58 189.52 132.00 191.00
C 133.43 195.96 124.92 196.51 126.00 191.00
C 126.09 190.55 126.77 189.37 127.00 189.00
C 126.25 187.32 124.57 185.96 123.00 185.00
C 126.73 187.53 122.66 194.04 127.33 195.67 C 131.99 197.29 134.10 190.72 138.00 189.00
C 147.72 184.71 157.76 178.90 168.00 176.00
C 170.80 175.21 172.79 174.70 176.00 176.00
C 178.26 176.92 178.24 178.26 180.00 178.00
C 175.75 177.18 177.33 168.75 178.00 166.00
C 175.44 167.38 176.64 170.93 175.00 173.00
C 171.69 172.74 165.46 171.74 171.00 169.00
C 169.05 167.83 165.98 164.85 164.08 163.92 C 162.19 162.99 159.27 159.86 158.22 158.78 C 157.17 157.70 148.66 157.59 150.00 156.00
C 150.00 156.59 149.31 158.23 149.00 159.00 Z"/>
</g>
<g fill="#ACC3C9" fill-opacity="1.00" stroke="None">
<path d="
M 133.00 170.00 
C 134.59 169.56 135.81 165.02 134.00 164.00
C 132.34 164.53 128.50 164.32 129.08 166.92 C 129.66 169.52 131.41 170.43 133.00 170.00
M 134.00 165.00 
C 134.55 173.07 125.89 164.51 134.00 165.00 Z"/>
</g>
<g fill="#80A7B9" fill-opacity="1.00" stroke="None">
<path d="
M 77.00 167.00 
C 78.88 163.68 83.68 168.03 82.00 171.00
C 85.51 167.54 78.58 162.34 77.00 167.00 Z"/>
</g>
<g fill="#EBF5F7" fill-opacity="1.00" stroke="None">
<path d="
M 134.00 165.00 
C 125.89 164.51 134.55 173.07 134.00 165.00 Z"/>
</g>
<g fill="#CEE3EC" fill-opacity="1.00" stroke="None">
<path d="
M 77.00 167.00 
C 75.91 170.21 79.12 173.84 82.00 171.00
C 83.68 168.03 78.88 163.68 77.00 167.00 Z"/>
</g>
<g fill="#2783A2" fill-opacity="1.00" stroke="None">
<path d="
M 185.00 193.00 
C 188.02 191.03 189.04 189.12 192.08 187.08 C 195.12 185.05 196.10 190.77 199.00 189.00
C 199.66 193.18 194.39 194.68 193.00 198.00
C 196.52 194.99 200.08 191.70 203.00 188.00
C 209.65 181.87 209.90 174.78 209.00 167.00
C 200.16 173.47 194.41 185.79 185.00 193.00 Z"/>
</g>
<g fill="#85A1AE" fill-opacity="1.00" stroke="None">
<path d="
M 113.00 176.00 
C 111.59 174.85 112.18 172.54 112.00 171.00
C 115.26 170.01 117.14 173.73 115.00 176.00
C 117.98 175.03 117.21 170.61 114.03 170.03 C 110.84 169.45 109.63 174.93 113.00 176.00 Z"/>
</g>
<g fill="#DBEBEF" fill-opacity="1.00" stroke="None">
<path d="
M 113.00 176.00 
C 113.45 176.14 114.55 176.15 115.00 176.00
C 117.14 173.73 115.26 170.01 112.00 171.00
C 112.18 172.54 111.59 174.85 113.00 176.00 Z"/>
</g>
<g fill="#658AA6" fill-opacity="1.00" stroke="None">
<path d="
M 71.00 187.00 
C 74.79 181.56 71.55 169.91 63.25 175.25 C 54.95 180.59 64.52 188.02 71.00 187.00
M 69.00 176.00 
C 73.79 178.20 69.40 186.70 64.33 183.67 C 59.26 180.64 63.95 173.68 69.00 176.00 Z"/>
</g>
<g fill="#1E466B" fill-opacity="1.00" stroke="None">
<path d="
M 69.00 176.00 
C 63.95 173.68 59.26 180.64 64.33 183.67 C 69.40 186.70 73.79 178.20 69.00 176.00
M 70.00 180.00 
C 68.67 181.47 64.26 181.71 63.00 180.00
C 64.33 178.53 68.74 178.29 70.00 180.00 Z"/>
</g>
<g fill="#7B9FB9" fill-opacity="1.00" stroke="None">
<path d="
M 182.00 178.00 
C 182.04 177.99 180.66 177.90 180.00 178.00
C 178.24 178.26 178.26 176.92 176.00 176.00
C 179.08 178.10 177.09 182.88 181.00 183.00
C 179.85 181.40 182.41 179.32 182.00 178.00 Z"/>
</g>
<g fill="#5F87A3" fill-opacity="1.00" stroke="None">
<path d="
M 70.00 180.00 
C 68.74 178.29 64.33 178.53 63.00 180.00
C 64.26 181.71 68.67 181.47 70.00 180.00 Z"/>
</g>
<g fill="#538CA5" fill-opacity="0.29" stroke="None">
<path d="
M 24.00 189.00 
C 24.44 189.43 25.65 189.62 26.00 190.00
C 24.75 187.90 23.47 186.81 22.00 185.00
C 22.75 186.31 23.24 187.68 24.00 189.00 Z"/>
</g>
<g fill="#3184A2" fill-opacity="1.00" stroke="None">
<path d="
M 78.00 188.00 
C 77.78 187.64 78.00 187.00 78.00 187.00
C 77.72 185.77 76.28 184.73 75.00 185.00
C 75.47 186.21 76.72 187.52 78.00 188.00 Z"/>
</g>
<g fill="#2C99B2" fill-opacity="1.00" stroke="None">
<path d="
M 185.00 193.00 
C 178.74 197.08 170.80 202.20 164.00 205.00
C 165.76 204.74 167.52 205.27 169.00 204.00
C 169.36 206.92 171.97 208.71 171.00 211.00
C 179.25 207.76 186.07 203.93 193.00 198.00
C 194.39 194.68 199.66 193.18 199.00 189.00
C 196.10 190.77 195.12 185.05 192.08 187.08 C 189.04 189.12 188.02 191.03 185.00 193.00 Z"/>
</g>
<g fill="#35B7C9" fill-opacity="1.00" stroke="None">
<path d="
M 78.00 188.00 
C 88.77 205.31 113.39 216.61 133.00 217.00
C 137.62 217.09 142.38 217.25 147.00 217.00
C 155.73 216.53 163.07 214.11 171.00 211.00
C 171.97 208.71 169.36 206.92 169.00 204.00
C 167.52 205.27 165.76 204.74 164.00 205.00
C 160.12 205.58 156.74 207.07 153.00 208.00
C 129.02 213.94 94.72 209.49 79.00 187.00
C 79.00 187.00 78.25 186.75 78.00 187.00
C 78.00 187.00 77.78 187.64 78.00 188.00 Z"/>
</g>
<g fill="#2B83A0" fill-opacity="1.00" stroke="None">
<path d="
M 153.00 208.00 
C 150.33 208.00 147.67 208.00 145.00 208.00
C 145.68 205.98 145.74 203.94 145.00 202.00
C 133.80 203.74 122.45 202.49 112.00 201.00
C 98.83 200.21 89.78 193.70 79.00 187.00
C 94.72 209.49 129.02 213.94 153.00 208.00 Z"/>
</g>
<g fill="#689EAF" fill-opacity="0.11" stroke="None">
<path d="
M 34.00 202.00 
C 31.37 197.92 28.48 194.18 26.00 190.00
C 25.65 189.62 24.44 189.43 24.00 189.00
C 26.83 193.93 30.46 197.69 34.00 202.00 Z"/>
</g>
<g fill="#91BBCA" fill-opacity="1.00" stroke="None">
<path d="
M 126.00 191.00 
C 126.75 191.48 130.70 188.56 132.00 191.00
C 131.58 189.52 130.39 189.08 129.00 189.00
C 128.50 188.97 127.14 188.78 127.00 189.00
C 126.77 189.37 126.09 190.55 126.00 191.00 Z"/>
</g>
<g fill="#DAEDF3" fill-opacity="1.00" stroke="None">
<path d="
M 126.00 191.00 
C 124.92 196.51 133.43 195.96 132.00 191.00
C 130.70 188.56 126.75 191.48 126.00 191.00 Z"/>
</g>
<g fill="#5B89A1" fill-opacity="1.00" stroke="None">
<path d="
M 147.00 200.00 
C 148.76 200.50 147.72 202.72 148.00 204.00
C 150.51 204.01 153.09 202.99 155.00 202.00
C 153.15 202.63 150.80 201.98 149.00 203.00
C 149.08 198.89 158.79 201.96 159.00 195.00
C 158.84 194.34 156.59 191.23 156.00 191.00
C 149.27 189.11 144.92 194.05 147.00 200.00
M 157.00 196.00 
C 153.47 195.79 150.00 195.41 149.00 199.00
C 144.75 193.54 156.84 188.48 157.00 196.00 Z"/>
</g>
<g fill="#2C5477" fill-opacity="1.00" stroke="None">
<path d="
M 157.00 196.00 
C 156.84 188.48 144.75 193.54 149.00 199.00
C 150.00 195.41 153.47 195.79 157.00 196.00 Z"/>
</g>
<g fill="#7EB1C3" fill-opacity="1.00" stroke="None">
<path d="
M 155.00 202.00 
C 157.96 200.47 160.01 199.24 159.00 195.00
C 158.79 201.96 149.08 198.89 149.00 203.00
C 150.80 201.98 153.15 202.63 155.00 202.00 Z"/>
</g>
<g fill="#E8E8E8" fill-opacity="0.00" stroke="None">
<path d="
M 212.00 215.00 
C 214.17 213.15 216.10 211.22 218.00 209.00
C 216.12 210.88 213.92 213.08 212.00 215.00 Z"/>
</g>
<g fill="#1F7897" fill-opacity="1.00" stroke="None">
<path d="
M 147.00 217.00 
C 142.38 217.25 137.62 217.09 133.00 217.00
C 137.48 217.54 142.42 217.74 147.00 217.00 Z"/>
</g>
<g fill="#568BA5" fill-opacity="0.21" stroke="None">
<path d="
M 70.00 233.00 
C 68.50 231.89 67.77 230.88 66.00 230.00
C 67.26 230.80 68.45 232.14 70.00 233.00 Z"/>
</g>
<g fill="#5D91A6" fill-opacity="0.24" stroke="None">
<path d="
M 187.00 233.00 
C 188.70 232.02 190.47 230.96 192.00 230.00
C 189.73 231.08 188.44 231.95 187.00 233.00 Z"/>
</g>
<g fill="#588AA3" fill-opacity="0.13" stroke="None">
<path d="
M 140.00 247.00 
C 132.67 247.00 125.33 247.00 118.00 247.00
C 124.85 247.66 133.08 247.67 140.00 247.00 Z"/>
</g>
</svg>